<mxfile modified="2021-05-18T13:41:36.805Z" host="app.diagrams.net" agent="5.0 (Macintosh; Intel Mac OS X 10_15_7) AppleWebKit/537.36 (KHTML, like Gecko) Chrome/90.0.4430.212 Safari/537.36" etag="94__l4MFFuch8y_sApbb" version="14.6.12" type="github">
  <diagram id="WI9T0HZ2pTsCkuznbFz-" name="Page-1">
    <mxGraphModel dx="1127" dy="714" grid="1" gridSize="10" guides="1" tooltips="1" connect="1" arrows="1" fold="1" page="1" pageScale="1" pageWidth="1169" pageHeight="827" math="0" shadow="0">
      <root>
        <mxCell id="0" />
        <mxCell id="1" parent="0" />
        <mxCell id="Qk28svfCWHP9obNBSVoU-2" value="" style="rounded=0;whiteSpace=wrap;html=1;" vertex="1" parent="1">
          <mxGeometry x="666.22" y="1060" width="313.78" height="210" as="geometry" />
        </mxCell>
        <mxCell id="ij2_FURvqXdRc3KbHj5h-31" style="edgeStyle=orthogonalEdgeStyle;curved=1;rounded=0;orthogonalLoop=1;jettySize=auto;html=1;" parent="1" source="ij2_FURvqXdRc3KbHj5h-9" target="ij2_FURvqXdRc3KbHj5h-7" edge="1">
          <mxGeometry relative="1" as="geometry" />
        </mxCell>
        <mxCell id="ij2_FURvqXdRc3KbHj5h-9" value="" style="rounded=0;whiteSpace=wrap;html=1;dashed=1;" parent="1" vertex="1">
          <mxGeometry x="170.84" y="1365" width="190" height="100" as="geometry" />
        </mxCell>
        <mxCell id="AcxdMaKK0mU5kZiv2lnr-30" style="edgeStyle=orthogonalEdgeStyle;rounded=0;orthogonalLoop=1;jettySize=auto;html=1;strokeColor=#808080;entryX=1.064;entryY=0.4;entryDx=0;entryDy=0;entryPerimeter=0;" parent="1" target="AcxdMaKK0mU5kZiv2lnr-13" edge="1">
          <mxGeometry relative="1" as="geometry">
            <mxPoint x="1010" y="230" as="sourcePoint" />
            <mxPoint x="930.7281553398057" y="320.51456310679606" as="targetPoint" />
            <Array as="points">
              <mxPoint x="1010" y="300" />
            </Array>
          </mxGeometry>
        </mxCell>
        <mxCell id="AcxdMaKK0mU5kZiv2lnr-18" style="edgeStyle=orthogonalEdgeStyle;rounded=0;orthogonalLoop=1;jettySize=auto;html=1;entryX=-0.044;entryY=0.367;entryDx=0;entryDy=0;entryPerimeter=0;strokeColor=#808080;" parent="1" source="AcxdMaKK0mU5kZiv2lnr-4" target="AcxdMaKK0mU5kZiv2lnr-5" edge="1">
          <mxGeometry relative="1" as="geometry">
            <Array as="points">
              <mxPoint x="280" y="42" />
            </Array>
          </mxGeometry>
        </mxCell>
        <mxCell id="AcxdMaKK0mU5kZiv2lnr-21" style="edgeStyle=orthogonalEdgeStyle;rounded=0;orthogonalLoop=1;jettySize=auto;html=1;strokeColor=#808080;" parent="1" source="AcxdMaKK0mU5kZiv2lnr-4" edge="1">
          <mxGeometry relative="1" as="geometry">
            <mxPoint x="510" y="365" as="targetPoint" />
            <Array as="points">
              <mxPoint x="480" y="236" />
              <mxPoint x="480" y="365" />
            </Array>
          </mxGeometry>
        </mxCell>
        <mxCell id="AcxdMaKK0mU5kZiv2lnr-16" style="edgeStyle=orthogonalEdgeStyle;rounded=0;orthogonalLoop=1;jettySize=auto;html=1;strokeColor=#808080;" parent="1" source="AcxdMaKK0mU5kZiv2lnr-1" target="AcxdMaKK0mU5kZiv2lnr-4" edge="1">
          <mxGeometry relative="1" as="geometry">
            <Array as="points">
              <mxPoint x="220" y="224" />
              <mxPoint x="220" y="224" />
            </Array>
          </mxGeometry>
        </mxCell>
        <mxCell id="AcxdMaKK0mU5kZiv2lnr-19" style="edgeStyle=orthogonalEdgeStyle;rounded=0;orthogonalLoop=1;jettySize=auto;html=1;strokeColor=#808080;" parent="1" source="AcxdMaKK0mU5kZiv2lnr-1" target="AcxdMaKK0mU5kZiv2lnr-3" edge="1">
          <mxGeometry relative="1" as="geometry">
            <Array as="points">
              <mxPoint x="142" y="380" />
            </Array>
          </mxGeometry>
        </mxCell>
        <mxCell id="AcxdMaKK0mU5kZiv2lnr-17" style="edgeStyle=elbowEdgeStyle;rounded=0;orthogonalLoop=1;jettySize=auto;html=1;entryX=-0.016;entryY=0.49;entryDx=0;entryDy=0;entryPerimeter=0;elbow=vertical;strokeColor=#808080;" parent="1" source="AcxdMaKK0mU5kZiv2lnr-2" target="AcxdMaKK0mU5kZiv2lnr-6" edge="1">
          <mxGeometry relative="1" as="geometry" />
        </mxCell>
        <mxCell id="AcxdMaKK0mU5kZiv2lnr-20" style="edgeStyle=orthogonalEdgeStyle;rounded=0;orthogonalLoop=1;jettySize=auto;html=1;strokeColor=#808080;" parent="1" source="AcxdMaKK0mU5kZiv2lnr-3" target="AcxdMaKK0mU5kZiv2lnr-4" edge="1">
          <mxGeometry relative="1" as="geometry">
            <Array as="points">
              <mxPoint x="345" y="380" />
            </Array>
          </mxGeometry>
        </mxCell>
        <mxCell id="AcxdMaKK0mU5kZiv2lnr-23" style="edgeStyle=elbowEdgeStyle;rounded=0;orthogonalLoop=1;jettySize=auto;html=1;entryX=-0.007;entryY=0.52;entryDx=0;entryDy=0;entryPerimeter=0;elbow=vertical;strokeColor=#808080;" parent="1" source="AcxdMaKK0mU5kZiv2lnr-8" target="AcxdMaKK0mU5kZiv2lnr-10" edge="1">
          <mxGeometry relative="1" as="geometry" />
        </mxCell>
        <mxCell id="AcxdMaKK0mU5kZiv2lnr-22" style="edgeStyle=orthogonalEdgeStyle;rounded=0;orthogonalLoop=1;jettySize=auto;html=1;strokeColor=#808080;" parent="1" source="AcxdMaKK0mU5kZiv2lnr-9" target="AcxdMaKK0mU5kZiv2lnr-8" edge="1">
          <mxGeometry relative="1" as="geometry" />
        </mxCell>
        <mxCell id="AcxdMaKK0mU5kZiv2lnr-24" style="edgeStyle=elbowEdgeStyle;rounded=0;orthogonalLoop=1;jettySize=auto;html=1;entryX=0.009;entryY=0.518;entryDx=0;entryDy=0;entryPerimeter=0;elbow=vertical;strokeColor=#808080;" parent="1" edge="1">
          <mxGeometry relative="1" as="geometry">
            <mxPoint x="701" y="224" as="sourcePoint" />
            <mxPoint x="763.8372093023256" y="223.69767441860466" as="targetPoint" />
            <Array as="points">
              <mxPoint x="730" y="224" />
            </Array>
          </mxGeometry>
        </mxCell>
        <mxCell id="AcxdMaKK0mU5kZiv2lnr-25" style="edgeStyle=orthogonalEdgeStyle;rounded=0;orthogonalLoop=1;jettySize=auto;html=1;strokeColor=#808080;" parent="1" source="AcxdMaKK0mU5kZiv2lnr-11" edge="1">
          <mxGeometry relative="1" as="geometry">
            <mxPoint x="900" y="104" as="targetPoint" />
          </mxGeometry>
        </mxCell>
        <mxCell id="AcxdMaKK0mU5kZiv2lnr-26" style="edgeStyle=orthogonalEdgeStyle;rounded=0;orthogonalLoop=1;jettySize=auto;html=1;entryX=0.406;entryY=0;entryDx=0;entryDy=0;entryPerimeter=0;strokeColor=#808080;" parent="1" source="AcxdMaKK0mU5kZiv2lnr-11" target="AcxdMaKK0mU5kZiv2lnr-13" edge="1">
          <mxGeometry relative="1" as="geometry" />
        </mxCell>
        <mxCell id="AcxdMaKK0mU5kZiv2lnr-28" style="edgeStyle=orthogonalEdgeStyle;rounded=0;orthogonalLoop=1;jettySize=auto;html=1;exitX=1.014;exitY=0.505;exitDx=0;exitDy=0;exitPerimeter=0;entryX=0.498;entryY=0.012;entryDx=0;entryDy=0;entryPerimeter=0;strokeColor=#808080;" parent="1" source="AcxdMaKK0mU5kZiv2lnr-12" target="AcxdMaKK0mU5kZiv2lnr-14" edge="1">
          <mxGeometry relative="1" as="geometry" />
        </mxCell>
        <mxCell id="AcxdMaKK0mU5kZiv2lnr-27" style="edgeStyle=orthogonalEdgeStyle;rounded=0;orthogonalLoop=1;jettySize=auto;html=1;exitX=1.004;exitY=0.609;exitDx=0;exitDy=0;exitPerimeter=0;strokeColor=#808080;" parent="1" source="AcxdMaKK0mU5kZiv2lnr-13" edge="1">
          <mxGeometry relative="1" as="geometry">
            <mxPoint x="1020" y="230" as="targetPoint" />
            <Array as="points">
              <mxPoint x="1020" y="310" />
            </Array>
          </mxGeometry>
        </mxCell>
        <mxCell id="AcxdMaKK0mU5kZiv2lnr-4" value="Channel" style="rounded=0;whiteSpace=wrap;html=1;fillColor=#f5f5f5;strokeColor=none;fontColor=#333333;verticalAlign=top;" parent="1" vertex="1">
          <mxGeometry x="230" y="160" width="230" height="151" as="geometry" />
        </mxCell>
        <mxCell id="AcxdMaKK0mU5kZiv2lnr-1" value="Live Source" style="shape=image;verticalLabelPosition=bottom;labelBackgroundColor=#ffffff;verticalAlign=top;aspect=fixed;imageAspect=0;image=data:image/svg+xml,PHN2ZyB4bWxuczpjYz0iaHR0cDovL2NyZWF0aXZlY29tbW9ucy5vcmcvbnMjIiB4bWxuczpkYz0iaHR0cDovL3B1cmwub3JnL2RjL2VsZW1lbnRzLzEuMS8iIHhtbG5zOmlua3NjYXBlPSJodHRwOi8vd3d3Lmlua3NjYXBlLm9yZy9uYW1lc3BhY2VzL2lua3NjYXBlIiB4bWxuczpyZGY9Imh0dHA6Ly93d3cudzMub3JnLzE5OTkvMDIvMjItcmRmLXN5bnRheC1ucyMiIHhtbG5zOnNvZGlwb2RpPSJodHRwOi8vc29kaXBvZGkuc291cmNlZm9yZ2UubmV0L0RURC9zb2RpcG9kaS0wLmR0ZCIgeG1sbnM6c3ZnPSJodHRwOi8vd3d3LnczLm9yZy8yMDAwL3N2ZyIgeG1sbnM9Imh0dHA6Ly93d3cudzMub3JnLzIwMDAvc3ZnIiB4bWxuczp4bGluaz0iaHR0cDovL3d3dy53My5vcmcvMTk5OS94bGluayIgdmVyc2lvbj0iMS4xIiBpZD0ic3ZnNDYyMjYiIGlua3NjYXBlOnZlcnNpb249IjAuOTIuMyAoMjQwNTU0NiwgMjAxOC0wMy0xMSkiIHNvZGlwb2RpOmRvY25hbWU9ImNhbWVyYS5zdmciIHg9IjBweCIgeT0iMHB4IiB2aWV3Qm94PSIwIDAgNDYuNzggMzUuMTEiIHN0eWxlPSJlbmFibGUtYmFja2dyb3VuZDpuZXcgMCAwIDQ2Ljc4IDM1LjExOyIgeG1sOnNwYWNlPSJwcmVzZXJ2ZSI+JiN4YTs8c29kaXBvZGk6bmFtZWR2aWV3IGJvcmRlcmNvbG9yPSIjNjY2NjY2IiBib3JkZXJvcGFjaXR5PSIxIiBmaXQtbWFyZ2luLWJvdHRvbT0iMCIgZml0LW1hcmdpbi1sZWZ0PSIwIiBmaXQtbWFyZ2luLXJpZ2h0PSIwIiBmaXQtbWFyZ2luLXRvcD0iMCIgZ3JpZHRvbGVyYW5jZT0iMTAiIGd1aWRldG9sZXJhbmNlPSIxMCIgaWQ9Im5hbWVkdmlldzQ2MjI4IiBpbmtzY2FwZTpjdXJyZW50LWxheWVyPSJzdmc0NjIyNiIgaW5rc2NhcGU6Y3g9IjMxLjE4Mzc3NyIgaW5rc2NhcGU6Y3k9IjIzLjQwNTI0OSIgaW5rc2NhcGU6cGFnZW9wYWNpdHk9IjAiIGlua3NjYXBlOnBhZ2VzaGFkb3c9IjIiIGlua3NjYXBlOndpbmRvdy1oZWlnaHQ9IjEwMTciIGlua3NjYXBlOndpbmRvdy1tYXhpbWl6ZWQ9IjEiIGlua3NjYXBlOndpbmRvdy13aWR0aD0iMTkyMCIgaW5rc2NhcGU6d2luZG93LXg9Ii04IiBpbmtzY2FwZTp3aW5kb3cteT0iLTgiIGlua3NjYXBlOnpvb209IjE4LjUxOTI1OSIgb2JqZWN0dG9sZXJhbmNlPSIxMCIgcGFnZWNvbG9yPSIjZmZmZmZmIiBzaG93Z3JpZD0iZmFsc2UiPiYjeGE7CTwvc29kaXBvZGk6bmFtZWR2aWV3PiYjeGE7PGcgaWQ9Imc0NjIyNCI+JiN4YTsJPHRpdGxlIGlkPSJ0aXRsZTQ2MjE3Ij5QYWdlLTE8L3RpdGxlPiYjeGE7CTxnIGlkPSJzaGFwZTEwOC0xIj4mI3hhOwkJPHRpdGxlIGlkPSJ0aXRsZTQ2MjE5Ij5DYW1lcmE8L3RpdGxlPiYjeGE7CQk8cGF0aCBpZD0icGF0aDQ2MjIxIiBpbmtzY2FwZTpjb25uZWN0b3ItY3VydmF0dXJlPSIwIiBzdHlsZT0iZmlsbDojM0Y1NzY1OyIgZD0iTTQ2Ljc4LDEzLjUzYzAsMjAuMTIsMCwyMC4xMiwwLDIwLjEyICAgIGMwLDAuNzMtMC43NCwxLjQ2LTEuODMsMC43M2MtNC4zOS0zLjY2LTQuMzktMy42Ni00LjM5LTMuNjZjMC0wLjczLTEuMDktMC43My0xLjA5LTEuODNjLTEuODMsMC0xLjgzLDAtMS44MywwICAgIGMwLDQuNzYsMCw0Ljc2LDAsNC43NmMwLDAuNzMtMC43MywxLjQ2LTEuODMsMS40NmMtMjkuMjMsMC0yOS4yMywwLTI5LjIzLDBjLTAuNzMsMC0xLjgzLTAuNzMtMS44My0xLjQ2YzAtMTcuMTksMC0xNy4xOSwwLTE3LjE5ICAgIGMwLTEuODMsMS4xLTIuOTMsMS44My0yLjkzYzI5LjIzLDAsMjkuMjMsMCwyOS4yMywwYzEuMSwwLDEuODMsMS4xLDEuODMsMi45M3MwLDEuODMsMCwxLjgzYzEuODMsMCwxLjgzLDAsMS44MywwbDEuMDktMS4xICAgIGM0LjM5LTQuMzksNC4zOS00LjM5LDQuMzktNC4zOUM0Ni4wNCwxMi44LDQ2Ljc4LDEyLjgsNDYuNzgsMTMuNTN6IE0xLjgzLDE0LjYzQzEuMSwxNC42MywwLDE1LjM2LDAsMTYuNDZjMCw2LjIyLDAsNi4yMiwwLDYuMjIgICAgYzAsMC43MywxLjEsMS44MywxLjgzLDEuODNjMS4wOSwwLDIuMTktMS4xLDIuMTktMS44M2MwLTYuMjIsMC02LjIyLDAtNi4yMkM0LjAyLDE1LjM2LDIuOTIsMTQuNjMsMS44MywxNC42M3ogTTI4LjUsMTIuOCAgICBjMy42NiwwLDYuNTgtMi41Niw2LjU4LTYuMjJDMzUuMDgsMi45MywzMi4xNiwwLDI4LjUsMGMtMy42NSwwLTcuMywyLjkzLTcuMyw2LjU4QzIxLjIsMTAuMjQsMjQuODUsMTIuOCwyOC41LDEyLjh6IE0xMy44OSwxMi44ICAgIGMzLjY1LDAsNi41Ny0yLjU2LDYuNTctNi4yMmMwLTMuNjUtMi45Mi02LjU4LTYuNTctNi41OGMtMy42NiwwLTcuMzEsMi45My03LjMxLDYuNThDNi41OCwxMC4yNCwxMC4yMywxMi44LDEzLjg5LDEyLjh6Ii8+JiN4YTsJPC9nPiYjeGE7PC9nPiYjeGE7PC9zdmc+;" parent="1" vertex="1">
          <mxGeometry x="110" y="200.00000000000003" width="64" height="48" as="geometry" />
        </mxCell>
        <mxCell id="AcxdMaKK0mU5kZiv2lnr-2" value="Azure Live&#xa;Encoder&#xa;" style="shape=image;verticalLabelPosition=bottom;labelBackgroundColor=none;verticalAlign=top;aspect=fixed;imageAspect=0;image=data:image/svg+xml,PHN2ZyB4bWxuczpjYz0iaHR0cDovL2NyZWF0aXZlY29tbW9ucy5vcmcvbnMjIiB4bWxuczpkYz0iaHR0cDovL3B1cmwub3JnL2RjL2VsZW1lbnRzLzEuMS8iIHhtbG5zOmlua3NjYXBlPSJodHRwOi8vd3d3Lmlua3NjYXBlLm9yZy9uYW1lc3BhY2VzL2lua3NjYXBlIiB4bWxuczpyZGY9Imh0dHA6Ly93d3cudzMub3JnLzE5OTkvMDIvMjItcmRmLXN5bnRheC1ucyMiIHhtbG5zOnNvZGlwb2RpPSJodHRwOi8vc29kaXBvZGkuc291cmNlZm9yZ2UubmV0L0RURC9zb2RpcG9kaS0wLmR0ZCIgeG1sbnM6c3ZnPSJodHRwOi8vd3d3LnczLm9yZy8yMDAwL3N2ZyIgeG1sbnM9Imh0dHA6Ly93d3cudzMub3JnLzIwMDAvc3ZnIiB4bWxuczp4bGluaz0iaHR0cDovL3d3dy53My5vcmcvMTk5OS94bGluayIgdmVyc2lvbj0iMS4xIiBpZD0ic3ZnNTQ2MTgiIGlua3NjYXBlOnZlcnNpb249IjAuOTIuMyAoMjQwNTU0NiwgMjAxOC0wMy0xMSkiIHNvZGlwb2RpOmRvY25hbWU9ImVuY29kaW5nLnN2ZyIgeD0iMHB4IiB5PSIwcHgiIHZpZXdCb3g9IjAgMCAyMi44MiAyMS41OCIgc3R5bGU9ImVuYWJsZS1iYWNrZ3JvdW5kOm5ldyAwIDAgMjIuODIgMjEuNTg7IiB4bWw6c3BhY2U9InByZXNlcnZlIj4mI3hhOzxzb2RpcG9kaTpuYW1lZHZpZXcgYm9yZGVyY29sb3I9IiM2NjY2NjYiIGJvcmRlcm9wYWNpdHk9IjEiIGZpdC1tYXJnaW4tYm90dG9tPSIwIiBmaXQtbWFyZ2luLWxlZnQ9IjAiIGZpdC1tYXJnaW4tcmlnaHQ9IjAiIGZpdC1tYXJnaW4tdG9wPSIwIiBncmlkdG9sZXJhbmNlPSIxMCIgZ3VpZGV0b2xlcmFuY2U9IjEwIiBpZD0ibmFtZWR2aWV3NTQ2MjAiIGlua3NjYXBlOmN1cnJlbnQtbGF5ZXI9InN2ZzU0NjE4IiBpbmtzY2FwZTpjeD0iMTEuMjk4ODY0IiBpbmtzY2FwZTpjeT0iLTEuMDQxNTI5MSIgaW5rc2NhcGU6cGFnZW9wYWNpdHk9IjAiIGlua3NjYXBlOnBhZ2VzaGFkb3c9IjIiIGlua3NjYXBlOndpbmRvdy1oZWlnaHQ9IjEwMTciIGlua3NjYXBlOndpbmRvdy1tYXhpbWl6ZWQ9IjEiIGlua3NjYXBlOndpbmRvdy13aWR0aD0iMTkyMCIgaW5rc2NhcGU6d2luZG93LXg9Ii04IiBpbmtzY2FwZTp3aW5kb3cteT0iLTgiIGlua3NjYXBlOnpvb209IjEwLjY1MzgzNiIgb2JqZWN0dG9sZXJhbmNlPSIxMCIgcGFnZWNvbG9yPSIjZmZmZmZmIiBzaG93Z3JpZD0iZmFsc2UiPiYjeGE7CTwvc29kaXBvZGk6bmFtZWR2aWV3PiYjeGE7PGcgaWQ9Imc1NDYxNiIgdHJhbnNmb3JtPSJ0cmFuc2xhdGUoLTIuNzQwNjUzNWUtNSwwLjAwMzE0NTc0KSI+JiN4YTsJPHRpdGxlIGlkPSJ0aXRsZTU0NjA5Ij5QYWdlLTE8L3RpdGxlPiYjeGE7CTxnIGlkPSJzaGFwZTMwODQtMSI+JiN4YTsJCTx0aXRsZSBpZD0idGl0bGU1NDYxMSI+RW5jb2Rpbmc8L3RpdGxlPiYjeGE7CQk8cGF0aCBpZD0icGF0aDU0NjEzIiBpbmtzY2FwZTpjb25uZWN0b3ItY3VydmF0dXJlPSIwIiBzdHlsZT0iZmlsbDojM0Y1NzY1OyIgZD0iTTIyLjgyLDEzLjMxYzAtMC44NSwwLTQuNzktMC4wOC04LjY3ICAgIGMwLTIuNDQtMi4zNC00Ljc0LTUuODctNC42NEMxNi4zMiwwLDgsMC4wNyw4LDAuMDdDNi45OSwwLjE1LDYuODQsMC45NCw2Ljg0LDEuMzNzMCwwLjA3LDAsMC42M2MwLDAuNDgsMC41MywwLjg3LDEuMDksMC45NCAgICBjMCwwLDAsMCwwLDAuMWMwLDAuMDcsMCwwLjA3LDAuMDcsMC4xNEM3LjU0LDMuNyw3LjU0LDMuNyw3LjU0LDMuN2MwLDAuNjMsMCwwLjYzLDAsMC42M2MtNC40LDAtNC40LDAtNC40LDAgICAgYzAsMi44MywwLDIuODMsMCwyLjgzQzAsNy4xNiwwLDcuMTYsMCw3LjE2YzAsMy44LDAsMy44LDAsMy44YzE2LjI0LDAsMTYuMjQsMCwxNi4yNCwwYzAtMy44LDAtMy44LDAtMy44Yy0yLjIsMC0yLjIsMC0yLjIsMCAgICBjMC0yLjgzLDAtMi44MywwLTIuODNjLTMuOTgsMC0zLjk4LDAtMy45OCwwYzAtMC41NiwwLTAuNTYsMC0wLjU2QzkuNTcsMy4xNCw5LjU3LDMuMTQsOS41NywzLjE0YzAtMC4wNywwLjA3LTAuMDcsMC4wNy0wLjE0ICAgIGMwLTAuMSwwLTAuMS0wLjA3LTAuMTdjMi4xMywwLDUuNTktMC4wNyw2LjIxLTAuMDdjMy41MSwwLDMuODIsMS40LDMuODIsMi4zN2MwLDAuODUsMC4xLDYuMjIsMC4xLDguMzQgICAgYzAuMDcsMi4wNi0zLjIyLDIuMDYtMy44NCwyLjA2Yy0wLjM5LDAtNC4zMywwLTYuMjIsMC4wN2wtMC4wNy0wLjA3Yy0wLjE0LDAtMC4xNCwwLTAuMTQsMGMwLTAuMSwwLTAuMSwwLTAuMSAgICBjMC4xNC0wLjA3LDAuMTQtMC4wNywwLjE0LTAuMDdoMC4wN2MwLTAuMDctMC4wNy0wLjA3LTAuMDctMC4wN2MtMC4xNCwwLTAuMTQsMC0wLjE0LDBjMC0wLjE3LDAtMC4xNywwLTAuMTcgICAgYzAuMTQsMCwwLjE0LDAsMC4xNCwwczAuMDcsMCwwLjA3LTAuMDdIOS41N2MtMC4xNCwwLTAuMTQsMC0wLjE0LDBjMC0wLjE1LDAtMC4xNSwwLTAuMTVjMC4xNCwwLDAuMTQsMCwwLjE0LDBzMC4wNywwLDAuMDctMC4wOSAgICBIOS41N2MtMC4xNCwwLTAuMTQsMC0wLjE0LDBjMC0wLjE1LDAtMC4xNSwwLTAuMTVjMC4xNCwwLDAuMTQsMCwwLjE0LDBsMC4wNy0wLjFsLTAuMDctMC4wN2MtMC4xNCwwLTAuMTQsMC0wLjE0LDAgICAgYzAtMC4xNCwwLTAuMTQsMC0wLjE0YzAuMTQsMCwwLjE0LDAsMC4xNCwwaDAuMDdjMC0wLjEtMC4wNy0wLjEtMC4wNy0wLjFjLTAuMTQsMC0wLjE0LDAtMC4xNCwwQzkuMzUsMTQuMSw5LjM1LDE0LjEsOS4zNSwxNC4xICAgIGMwLjIyLDAsMC4yMiwwLDAuMjIsMHMwLjA3LDAsMC4wNy0wLjA3Yy0wLjA3LDAtMC4wNywwLTAuMDcsMGMtMC4yMiwwLTAuMjIsMC0wLjIyLDBjMC0wLjE3LDAtMC4xNywwLTAuMTdjMC4yMiwwLDAuMjIsMCwwLjIyLDAgICAgdi0wLjA3di0wLjA3Yy0wLjIyLDAtMC4yMiwwLTAuMjIsMGMwLTAuMTcsMC0wLjE3LDAtMC4xN2MwLjIyLDAsMC4yMiwwLDAuMjIsMGwwLDBjMC0wLjA4LDAtMC4wOCwwLTAuMDhjLTAuMjIsMC0wLjIyLDAtMC4yMiwwICAgIGMwLTAuMTYsMC0wLjE2LDAtMC4xNmMwLjIyLDAsMC4yMiwwLDAuMjIsMHMwLDAsMC0wLjA4bDAsMGMtMC4yMiwwLTAuMjIsMC0wLjIyLDBjMC0wLjE0LDAtMC4xNCwwLTAuMTRjMC4yMiwwLDAuMjIsMCwwLjIyLDAgICAgdi0wLjF2LTAuMDdjLTAuMjIsMC0wLjIyLDAtMC4yMiwwYzAtMC4xNSwwLTAuMTUsMC0wLjE1YzAuMjIsMCwwLjIyLDAsMC4yMiwwbDAsMGMwLTAuMDksMC0wLjA5LDAtMC4wOWMtMC4yMiwwLTAuMjIsMC0wLjIyLDAgICAgYzAtMC4wOCwwLTAuMDgsMC0wLjA4YzAuMjIsMCwwLjIyLDAsMC4yMiwwYzAuMDcsMCwwLjE3LTAuMDcsMC4xNy0wLjE0YzAtMC4xLDAtMC4xLTAuMS0wLjE3YzAuNDktMC41NiwwLjQ5LTAuNTYsMC40OS0wLjU2ICAgIGMwLTAuNzcsMC0wLjc3LDAtMC43N2MtMi41MiwwLTIuNTIsMC0yLjUyLDBjMCwwLjcsMCwwLjcsMCwwLjdjMC40OSwwLjcsMC40OSwwLjcsMC40OSwwLjdjLTAuMSwwLTAuMSwwLjEtMC4xLDAuMSAgICBjMCwwLjE0LDAuMSwwLjE0LDAuMTcsMC4xNHMwLjA3LDAsMC4wNywwYzAsMC4wOCwwLDAuMDgsMCwwLjA4Yy0wLjE0LDAtMC4xNCwwLTAuMTQsMHYwLjA5djAuMDhjMC4xNCwwLDAuMTQsMCwwLjE0LDAgICAgYzAsMC4xNCwwLDAuMTQsMCwwLjE0Yy0wLjE0LDAtMC4xNCwwLTAuMTQsMGwwLDBjMCwwLjEsMCwwLjEsMCwwLjFjMC4xNCwwLDAuMTQsMCwwLjE0LDBjMCwwLjE0LDAsMC4xNCwwLDAuMTQgICAgYy0wLjE0LDAtMC4xNCwwLTAuMTQsMHMwLDAsMCwwLjA4bDAsMGMwLjE0LDAsMC4xNCwwLDAuMTQsMGMwLDAuMTYsMCwwLjE2LDAsMC4xNmMtMC4xNCwwLTAuMTQsMC0wLjE0LDB2MC4wOHYwLjA3ICAgIGMwLjE0LDAsMC4xNCwwLDAuMTQsMGMwLDAuMTcsMCwwLjE3LDAsMC4xN2MtMC4xNCwwLTAuMTQsMC0wLjE0LDBsMCwwYzAsMC4wNywwLDAuMDcsMC4wNywwLjA3czAuMDcsMCwwLjA3LDAgICAgYzAsMC4xNywwLDAuMTcsMCwwLjE3Yy0wLjA3LDAtMC4wNywwLTAuMDcsMGMtMC4wNywwLTAuMDcsMC0wLjA3LDAuMDdjMCwwLDAsMCwwLjA3LDBzMC4wNywwLDAuMDcsMGMwLDAuMTUsMCwwLjE1LDAsMC4xNSAgICBjLTAuMDcsMC0wLjA3LDAtMC4wNywwYy0wLjA3LDAtMC4wNywwLTAuMDcsMC4xYzAsMCwwLDAsMC4wNywwczAuMDcsMCwwLjA3LDBjMCwwLjE0LDAsMC4xNCwwLDAuMTRjLTAuMDcsMC0wLjA3LDAtMC4wNywwICAgIGMtMC4wNywwLTAuMDcsMC4wNy0wLjA3LDAuMDdjMCwwLjEsMCwwLjEsMC4wNywwLjFzMC4wNywwLDAuMDcsMGMwLDAuMTUsMCwwLjE1LDAsMC4xNWMtMC4wNywwLTAuMDcsMC0wLjA3LDAgICAgYy0wLjA3LDAtMC4wNywwLTAuMDcsMGMwLDAuMDksMCwwLjA5LDAuMDcsMC4wOXMwLjA3LDAsMC4wNywwYzAsMC4xNSwwLDAuMTUsMCwwLjE1Yy0wLjA3LDAtMC4wNywwLTAuMDcsMCAgICBjLTAuMDcsMC0wLjA3LDAtMC4wNywwLjA3YzAsMCwwLDAsMC4wNywwczAuMDcsMCwwLjA3LDBjMCwwLjE3LDAsMC4xNywwLDAuMTdjLTAuMDcsMC0wLjA3LDAtMC4wNywwYy0wLjA3LDAtMC4wNywwLjA3LTAuMDcsMC4wNyAgICBzMCwwLjA3LDAuMDcsMC4wN3MwLjA3LDAsMC4wNywwYzAsMC4xNywwLDAuMTcsMCwwLjE3Yy0wLjA3LDAtMC4wNywwLTAuMDcsMGMtMC4wNywwLTAuMDcsMC0wLjA3LDB2MC4wOCAgICBjLTAuNDEsMC4wNy0wLjczLDAuMzEtMC43MywwLjc5YzAsMC4zMiwwLDAuMzksMC4xLDAuODhjMCwwLjM4LDAuMzEsMC43NywwLjcsMC44NGwwLDBjMCwwLjEsMCwwLjEsMCwwLjFjMC4xNCwwLDAuMTQsMCwwLjE0LDAgICAgYzAsMC4xNCwwLDAuMTQsMCwwLjE0Yy0wLjE0LDAtMC4xNCwwLTAuMTQsMHMwLDAsMCwwLjA4bDAsMGMwLjE0LDAsMC4xNCwwLDAuMTQsMGMwLDAuMTcsMCwwLjE3LDAsMC4xN2MtMC4xNCwwLTAuMTQsMC0wLjE0LDAgICAgdjAuMDd2MC4wN2MwLjE0LDAsMC4xNCwwLDAuMTQsMGMwLDAuMTcsMCwwLjE3LDAsMC4xN2MtMC4xNCwwLTAuMTQsMC0wLjE0LDBsMCwwYzAsMC4wNywwLDAuMDcsMCwwLjA3YzAuMTQsMCwwLjE0LDAsMC4xNCwwICAgIGMwLDAuMTcsMCwwLjE3LDAsMC4xN2MtMC4xNCwwLTAuMTQsMC0wLjE0LDBzMCwwLDAsMC4wN2wwLDBjMC4xNCwwLDAuMTQsMCwwLjE0LDBjMCwwLjE1LDAsMC4xNSwwLDAuMTVjLTAuMTQsMC0wLjE0LDAtMC4xNCwwICAgIHYwLjF2MC4wN2MwLjE0LDAsMC4xNCwwLDAuMTQsMGMwLDAuMTcsMCwwLjE3LDAsMC4xN2MtMC4xNCwwLTAuMTQsMC0wLjE0LDBsMCwwYzAsMC4wNywwLDAuMDcsMC4wNywwLjA3czAuMDcsMCwwLjA3LDAgICAgYzAsMC4xNSwwLDAuMTUsMCwwLjE1Yy0wLjA3LDAtMC4wNywwLTAuMDcsMGMtMC4wNywwLTAuMDcsMC0wLjA3LDAuMDljMCwwLDAsMCwwLjA3LDBzMC4wNywwLDAuMDcsMGMwLDAuMDgsMCwwLjA4LDAsMC4wOCAgICBjLTAuNjIsMC0wLjYyLDAtMC42MiwwYzAsMC4yNCwwLDAuMjQsMCwwLjI0Yy0yLjksMC0yLjksMC0yLjksMGMtMC4yMiwwLTAuMzksMC4wNy0wLjM5LDAuMTRjMCwwLjA4LDAsMC4wOCwwLDAuMDggICAgYzAsMC4wOSwwLjE3LDAuMTYsMC4zOSwwLjE2YzIuOS0wLjA3LDIuOS0wLjA3LDIuOS0wLjA3YzAsMC4xNSwwLDAuMTUsMCwwLjE1YzAuNTUsMC43LDAuNTUsMC43LDAuNTUsMC43YzEuNSwwLDEuNSwwLDEuNSwwICAgIGMwLjUzLTAuNywwLjUzLTAuNywwLjUzLTAuN2MwLTAuMTUsMC0wLjE1LDAtMC4xNWMyLjgzLDAsMi44MywwLDIuODMsMGMwLjI0LTAuMDksMC40OC0wLjA5LDAuNDgtMC4xNyAgICBjLTAuMDktMC4xNC0wLjA5LTAuMTQtMC4wOS0wLjE0YzAtMC4xLTAuMTUtMC4xLTAuMzktMC4xYy0yLjgzLDAtMi44MywwLTIuODMsMGMwLTAuMTQsMC0wLjE0LDAtMC4xNGMtMC43NywwLTAuNzcsMC0wLjc3LDAgICAgYzAtMC4wOCwwLTAuMDgsMC0wLjA4YzAuMTQsMCwwLjE0LDAsMC4xNCwwczAuMSwwLDAuMS0wLjA5aC0wLjFjLTAuMjEsMC0wLjIxLDAtMC4yMSwwYzAtMC4xNSwwLTAuMTUsMC0wLjE1ICAgIGMwLjIxLDAsMC4yMSwwLDAuMjEsMHYtMC4wN3YtMC4xYy0wLjIxLDAtMC4yMSwwLTAuMjEsMGMwLTAuMTQsMC0wLjE0LDAtMC4xNGMwLjIxLDAsMC4yMSwwLDAuMjEsMGwwLDBjMC0wLjEsMC0wLjEsMC0wLjEgICAgYy0wLjIxLDAtMC4yMSwwLTAuMjEsMGMwLTAuMTUsMC0wLjE1LDAtMC4xNWMwLjIxLDAsMC4yMSwwLDAuMjEsMHMwLDAsMC0wLjA3bDAsMGMtMC4yMSwwLTAuMjEsMC0wLjIxLDBjMC0wLjE3LDAtMC4xNywwLTAuMTcgICAgYzAuMjEsMCwwLjIxLDAsMC4yMSwwdi0wLjA3di0wLjA3Yy0wLjIxLDAtMC4yMSwwLTAuMjEsMGMwLTAuMSwwLTAuMSwwLTAuMWMwLjIxLTAuMDcsMC4yMS0wLjA3LDAuMjEtMC4wN2wwLDAgICAgYzAtMC4wNywwLTAuMDcsMC0wLjA3Yy0wLjIxLDAtMC4yMSwwLTAuMjEsMGMwLTAuMTcsMC0wLjE3LDAtMC4xN2MwLjIxLDAsMC4yMSwwLDAuMjEsMGwwLDBjMC0wLjA4LDAtMC4wOCwwLTAuMDggICAgYy0wLjIxLDAtMC4yMSwwLTAuMjEsMGMwLTAuMTQsMC0wLjE0LDAtMC4xNGMwLjIxLDAsMC4yMSwwLDAuMjEsMHMwLDAsMC0wLjFsMCwwYzEuMzYsMCwzLjYzLTAuMDcsNy4zOC0wLjA3ICAgIEMyMi44MiwxOC4wNSwyMi44MiwxNC4yNSwyMi44MiwxMy4zMXoiLz4mI3hhOwk8L2c+JiN4YTs8L2c+JiN4YTs8L3N2Zz4=;" parent="1" vertex="1">
          <mxGeometry x="245" y="195.00000000000009" width="61" height="58" as="geometry" />
        </mxCell>
        <mxCell id="AcxdMaKK0mU5kZiv2lnr-3" value="3rd party&#xa;On-Premises&#xa;Live Encoder&#xa;" style="shape=image;verticalLabelPosition=bottom;labelBackgroundColor=#ffffff;verticalAlign=top;aspect=fixed;imageAspect=0;image=data:image/svg+xml,PHN2ZyB4bWxuczpjYz0iaHR0cDovL2NyZWF0aXZlY29tbW9ucy5vcmcvbnMjIiB4bWxuczpkYz0iaHR0cDovL3B1cmwub3JnL2RjL2VsZW1lbnRzLzEuMS8iIHhtbG5zOmlua3NjYXBlPSJodHRwOi8vd3d3Lmlua3NjYXBlLm9yZy9uYW1lc3BhY2VzL2lua3NjYXBlIiB4bWxuczpyZGY9Imh0dHA6Ly93d3cudzMub3JnLzE5OTkvMDIvMjItcmRmLXN5bnRheC1ucyMiIHhtbG5zOnNvZGlwb2RpPSJodHRwOi8vc29kaXBvZGkuc291cmNlZm9yZ2UubmV0L0RURC9zb2RpcG9kaS0wLmR0ZCIgeG1sbnM6c3ZnPSJodHRwOi8vd3d3LnczLm9yZy8yMDAwL3N2ZyIgeG1sbnM9Imh0dHA6Ly93d3cudzMub3JnLzIwMDAvc3ZnIiB4bWxuczp4bGluaz0iaHR0cDovL3d3dy53My5vcmcvMTk5OS94bGluayIgdmVyc2lvbj0iMS4xIiBpZD0ic3ZnNTQ2MTgiIGlua3NjYXBlOnZlcnNpb249IjAuOTIuMyAoMjQwNTU0NiwgMjAxOC0wMy0xMSkiIHNvZGlwb2RpOmRvY25hbWU9ImVuY29kaW5nLnN2ZyIgeD0iMHB4IiB5PSIwcHgiIHZpZXdCb3g9IjAgMCAyMi44MiAyMS41OCIgc3R5bGU9ImVuYWJsZS1iYWNrZ3JvdW5kOm5ldyAwIDAgMjIuODIgMjEuNTg7IiB4bWw6c3BhY2U9InByZXNlcnZlIj4mI3hhOzxzb2RpcG9kaTpuYW1lZHZpZXcgYm9yZGVyY29sb3I9IiM2NjY2NjYiIGJvcmRlcm9wYWNpdHk9IjEiIGZpdC1tYXJnaW4tYm90dG9tPSIwIiBmaXQtbWFyZ2luLWxlZnQ9IjAiIGZpdC1tYXJnaW4tcmlnaHQ9IjAiIGZpdC1tYXJnaW4tdG9wPSIwIiBncmlkdG9sZXJhbmNlPSIxMCIgZ3VpZGV0b2xlcmFuY2U9IjEwIiBpZD0ibmFtZWR2aWV3NTQ2MjAiIGlua3NjYXBlOmN1cnJlbnQtbGF5ZXI9InN2ZzU0NjE4IiBpbmtzY2FwZTpjeD0iMTEuMjk4ODY0IiBpbmtzY2FwZTpjeT0iLTEuMDQxNTI5MSIgaW5rc2NhcGU6cGFnZW9wYWNpdHk9IjAiIGlua3NjYXBlOnBhZ2VzaGFkb3c9IjIiIGlua3NjYXBlOndpbmRvdy1oZWlnaHQ9IjEwMTciIGlua3NjYXBlOndpbmRvdy1tYXhpbWl6ZWQ9IjEiIGlua3NjYXBlOndpbmRvdy13aWR0aD0iMTkyMCIgaW5rc2NhcGU6d2luZG93LXg9Ii04IiBpbmtzY2FwZTp3aW5kb3cteT0iLTgiIGlua3NjYXBlOnpvb209IjEwLjY1MzgzNiIgb2JqZWN0dG9sZXJhbmNlPSIxMCIgcGFnZWNvbG9yPSIjZmZmZmZmIiBzaG93Z3JpZD0iZmFsc2UiPiYjeGE7CTwvc29kaXBvZGk6bmFtZWR2aWV3PiYjeGE7PGcgaWQ9Imc1NDYxNiIgdHJhbnNmb3JtPSJ0cmFuc2xhdGUoLTIuNzQwNjUzNWUtNSwwLjAwMzE0NTc0KSI+JiN4YTsJPHRpdGxlIGlkPSJ0aXRsZTU0NjA5Ij5QYWdlLTE8L3RpdGxlPiYjeGE7CTxnIGlkPSJzaGFwZTMwODQtMSI+JiN4YTsJCTx0aXRsZSBpZD0idGl0bGU1NDYxMSI+RW5jb2Rpbmc8L3RpdGxlPiYjeGE7CQk8cGF0aCBpZD0icGF0aDU0NjEzIiBpbmtzY2FwZTpjb25uZWN0b3ItY3VydmF0dXJlPSIwIiBzdHlsZT0iZmlsbDojM0Y1NzY1OyIgZD0iTTIyLjgyLDEzLjMxYzAtMC44NSwwLTQuNzktMC4wOC04LjY3ICAgIGMwLTIuNDQtMi4zNC00Ljc0LTUuODctNC42NEMxNi4zMiwwLDgsMC4wNyw4LDAuMDdDNi45OSwwLjE1LDYuODQsMC45NCw2Ljg0LDEuMzNzMCwwLjA3LDAsMC42M2MwLDAuNDgsMC41MywwLjg3LDEuMDksMC45NCAgICBjMCwwLDAsMCwwLDAuMWMwLDAuMDcsMCwwLjA3LDAuMDcsMC4xNEM3LjU0LDMuNyw3LjU0LDMuNyw3LjU0LDMuN2MwLDAuNjMsMCwwLjYzLDAsMC42M2MtNC40LDAtNC40LDAtNC40LDAgICAgYzAsMi44MywwLDIuODMsMCwyLjgzQzAsNy4xNiwwLDcuMTYsMCw3LjE2YzAsMy44LDAsMy44LDAsMy44YzE2LjI0LDAsMTYuMjQsMCwxNi4yNCwwYzAtMy44LDAtMy44LDAtMy44Yy0yLjIsMC0yLjIsMC0yLjIsMCAgICBjMC0yLjgzLDAtMi44MywwLTIuODNjLTMuOTgsMC0zLjk4LDAtMy45OCwwYzAtMC41NiwwLTAuNTYsMC0wLjU2QzkuNTcsMy4xNCw5LjU3LDMuMTQsOS41NywzLjE0YzAtMC4wNywwLjA3LTAuMDcsMC4wNy0wLjE0ICAgIGMwLTAuMSwwLTAuMS0wLjA3LTAuMTdjMi4xMywwLDUuNTktMC4wNyw2LjIxLTAuMDdjMy41MSwwLDMuODIsMS40LDMuODIsMi4zN2MwLDAuODUsMC4xLDYuMjIsMC4xLDguMzQgICAgYzAuMDcsMi4wNi0zLjIyLDIuMDYtMy44NCwyLjA2Yy0wLjM5LDAtNC4zMywwLTYuMjIsMC4wN2wtMC4wNy0wLjA3Yy0wLjE0LDAtMC4xNCwwLTAuMTQsMGMwLTAuMSwwLTAuMSwwLTAuMSAgICBjMC4xNC0wLjA3LDAuMTQtMC4wNywwLjE0LTAuMDdoMC4wN2MwLTAuMDctMC4wNy0wLjA3LTAuMDctMC4wN2MtMC4xNCwwLTAuMTQsMC0wLjE0LDBjMC0wLjE3LDAtMC4xNywwLTAuMTcgICAgYzAuMTQsMCwwLjE0LDAsMC4xNCwwczAuMDcsMCwwLjA3LTAuMDdIOS41N2MtMC4xNCwwLTAuMTQsMC0wLjE0LDBjMC0wLjE1LDAtMC4xNSwwLTAuMTVjMC4xNCwwLDAuMTQsMCwwLjE0LDBzMC4wNywwLDAuMDctMC4wOSAgICBIOS41N2MtMC4xNCwwLTAuMTQsMC0wLjE0LDBjMC0wLjE1LDAtMC4xNSwwLTAuMTVjMC4xNCwwLDAuMTQsMCwwLjE0LDBsMC4wNy0wLjFsLTAuMDctMC4wN2MtMC4xNCwwLTAuMTQsMC0wLjE0LDAgICAgYzAtMC4xNCwwLTAuMTQsMC0wLjE0YzAuMTQsMCwwLjE0LDAsMC4xNCwwaDAuMDdjMC0wLjEtMC4wNy0wLjEtMC4wNy0wLjFjLTAuMTQsMC0wLjE0LDAtMC4xNCwwQzkuMzUsMTQuMSw5LjM1LDE0LjEsOS4zNSwxNC4xICAgIGMwLjIyLDAsMC4yMiwwLDAuMjIsMHMwLjA3LDAsMC4wNy0wLjA3Yy0wLjA3LDAtMC4wNywwLTAuMDcsMGMtMC4yMiwwLTAuMjIsMC0wLjIyLDBjMC0wLjE3LDAtMC4xNywwLTAuMTdjMC4yMiwwLDAuMjIsMCwwLjIyLDAgICAgdi0wLjA3di0wLjA3Yy0wLjIyLDAtMC4yMiwwLTAuMjIsMGMwLTAuMTcsMC0wLjE3LDAtMC4xN2MwLjIyLDAsMC4yMiwwLDAuMjIsMGwwLDBjMC0wLjA4LDAtMC4wOCwwLTAuMDhjLTAuMjIsMC0wLjIyLDAtMC4yMiwwICAgIGMwLTAuMTYsMC0wLjE2LDAtMC4xNmMwLjIyLDAsMC4yMiwwLDAuMjIsMHMwLDAsMC0wLjA4bDAsMGMtMC4yMiwwLTAuMjIsMC0wLjIyLDBjMC0wLjE0LDAtMC4xNCwwLTAuMTRjMC4yMiwwLDAuMjIsMCwwLjIyLDAgICAgdi0wLjF2LTAuMDdjLTAuMjIsMC0wLjIyLDAtMC4yMiwwYzAtMC4xNSwwLTAuMTUsMC0wLjE1YzAuMjIsMCwwLjIyLDAsMC4yMiwwbDAsMGMwLTAuMDksMC0wLjA5LDAtMC4wOWMtMC4yMiwwLTAuMjIsMC0wLjIyLDAgICAgYzAtMC4wOCwwLTAuMDgsMC0wLjA4YzAuMjIsMCwwLjIyLDAsMC4yMiwwYzAuMDcsMCwwLjE3LTAuMDcsMC4xNy0wLjE0YzAtMC4xLDAtMC4xLTAuMS0wLjE3YzAuNDktMC41NiwwLjQ5LTAuNTYsMC40OS0wLjU2ICAgIGMwLTAuNzcsMC0wLjc3LDAtMC43N2MtMi41MiwwLTIuNTIsMC0yLjUyLDBjMCwwLjcsMCwwLjcsMCwwLjdjMC40OSwwLjcsMC40OSwwLjcsMC40OSwwLjdjLTAuMSwwLTAuMSwwLjEtMC4xLDAuMSAgICBjMCwwLjE0LDAuMSwwLjE0LDAuMTcsMC4xNHMwLjA3LDAsMC4wNywwYzAsMC4wOCwwLDAuMDgsMCwwLjA4Yy0wLjE0LDAtMC4xNCwwLTAuMTQsMHYwLjA5djAuMDhjMC4xNCwwLDAuMTQsMCwwLjE0LDAgICAgYzAsMC4xNCwwLDAuMTQsMCwwLjE0Yy0wLjE0LDAtMC4xNCwwLTAuMTQsMGwwLDBjMCwwLjEsMCwwLjEsMCwwLjFjMC4xNCwwLDAuMTQsMCwwLjE0LDBjMCwwLjE0LDAsMC4xNCwwLDAuMTQgICAgYy0wLjE0LDAtMC4xNCwwLTAuMTQsMHMwLDAsMCwwLjA4bDAsMGMwLjE0LDAsMC4xNCwwLDAuMTQsMGMwLDAuMTYsMCwwLjE2LDAsMC4xNmMtMC4xNCwwLTAuMTQsMC0wLjE0LDB2MC4wOHYwLjA3ICAgIGMwLjE0LDAsMC4xNCwwLDAuMTQsMGMwLDAuMTcsMCwwLjE3LDAsMC4xN2MtMC4xNCwwLTAuMTQsMC0wLjE0LDBsMCwwYzAsMC4wNywwLDAuMDcsMC4wNywwLjA3czAuMDcsMCwwLjA3LDAgICAgYzAsMC4xNywwLDAuMTcsMCwwLjE3Yy0wLjA3LDAtMC4wNywwLTAuMDcsMGMtMC4wNywwLTAuMDcsMC0wLjA3LDAuMDdjMCwwLDAsMCwwLjA3LDBzMC4wNywwLDAuMDcsMGMwLDAuMTUsMCwwLjE1LDAsMC4xNSAgICBjLTAuMDcsMC0wLjA3LDAtMC4wNywwYy0wLjA3LDAtMC4wNywwLTAuMDcsMC4xYzAsMCwwLDAsMC4wNywwczAuMDcsMCwwLjA3LDBjMCwwLjE0LDAsMC4xNCwwLDAuMTRjLTAuMDcsMC0wLjA3LDAtMC4wNywwICAgIGMtMC4wNywwLTAuMDcsMC4wNy0wLjA3LDAuMDdjMCwwLjEsMCwwLjEsMC4wNywwLjFzMC4wNywwLDAuMDcsMGMwLDAuMTUsMCwwLjE1LDAsMC4xNWMtMC4wNywwLTAuMDcsMC0wLjA3LDAgICAgYy0wLjA3LDAtMC4wNywwLTAuMDcsMGMwLDAuMDksMCwwLjA5LDAuMDcsMC4wOXMwLjA3LDAsMC4wNywwYzAsMC4xNSwwLDAuMTUsMCwwLjE1Yy0wLjA3LDAtMC4wNywwLTAuMDcsMCAgICBjLTAuMDcsMC0wLjA3LDAtMC4wNywwLjA3YzAsMCwwLDAsMC4wNywwczAuMDcsMCwwLjA3LDBjMCwwLjE3LDAsMC4xNywwLDAuMTdjLTAuMDcsMC0wLjA3LDAtMC4wNywwYy0wLjA3LDAtMC4wNywwLjA3LTAuMDcsMC4wNyAgICBzMCwwLjA3LDAuMDcsMC4wN3MwLjA3LDAsMC4wNywwYzAsMC4xNywwLDAuMTcsMCwwLjE3Yy0wLjA3LDAtMC4wNywwLTAuMDcsMGMtMC4wNywwLTAuMDcsMC0wLjA3LDB2MC4wOCAgICBjLTAuNDEsMC4wNy0wLjczLDAuMzEtMC43MywwLjc5YzAsMC4zMiwwLDAuMzksMC4xLDAuODhjMCwwLjM4LDAuMzEsMC43NywwLjcsMC44NGwwLDBjMCwwLjEsMCwwLjEsMCwwLjFjMC4xNCwwLDAuMTQsMCwwLjE0LDAgICAgYzAsMC4xNCwwLDAuMTQsMCwwLjE0Yy0wLjE0LDAtMC4xNCwwLTAuMTQsMHMwLDAsMCwwLjA4bDAsMGMwLjE0LDAsMC4xNCwwLDAuMTQsMGMwLDAuMTcsMCwwLjE3LDAsMC4xN2MtMC4xNCwwLTAuMTQsMC0wLjE0LDAgICAgdjAuMDd2MC4wN2MwLjE0LDAsMC4xNCwwLDAuMTQsMGMwLDAuMTcsMCwwLjE3LDAsMC4xN2MtMC4xNCwwLTAuMTQsMC0wLjE0LDBsMCwwYzAsMC4wNywwLDAuMDcsMCwwLjA3YzAuMTQsMCwwLjE0LDAsMC4xNCwwICAgIGMwLDAuMTcsMCwwLjE3LDAsMC4xN2MtMC4xNCwwLTAuMTQsMC0wLjE0LDBzMCwwLDAsMC4wN2wwLDBjMC4xNCwwLDAuMTQsMCwwLjE0LDBjMCwwLjE1LDAsMC4xNSwwLDAuMTVjLTAuMTQsMC0wLjE0LDAtMC4xNCwwICAgIHYwLjF2MC4wN2MwLjE0LDAsMC4xNCwwLDAuMTQsMGMwLDAuMTcsMCwwLjE3LDAsMC4xN2MtMC4xNCwwLTAuMTQsMC0wLjE0LDBsMCwwYzAsMC4wNywwLDAuMDcsMC4wNywwLjA3czAuMDcsMCwwLjA3LDAgICAgYzAsMC4xNSwwLDAuMTUsMCwwLjE1Yy0wLjA3LDAtMC4wNywwLTAuMDcsMGMtMC4wNywwLTAuMDcsMC0wLjA3LDAuMDljMCwwLDAsMCwwLjA3LDBzMC4wNywwLDAuMDcsMGMwLDAuMDgsMCwwLjA4LDAsMC4wOCAgICBjLTAuNjIsMC0wLjYyLDAtMC42MiwwYzAsMC4yNCwwLDAuMjQsMCwwLjI0Yy0yLjksMC0yLjksMC0yLjksMGMtMC4yMiwwLTAuMzksMC4wNy0wLjM5LDAuMTRjMCwwLjA4LDAsMC4wOCwwLDAuMDggICAgYzAsMC4wOSwwLjE3LDAuMTYsMC4zOSwwLjE2YzIuOS0wLjA3LDIuOS0wLjA3LDIuOS0wLjA3YzAsMC4xNSwwLDAuMTUsMCwwLjE1YzAuNTUsMC43LDAuNTUsMC43LDAuNTUsMC43YzEuNSwwLDEuNSwwLDEuNSwwICAgIGMwLjUzLTAuNywwLjUzLTAuNywwLjUzLTAuN2MwLTAuMTUsMC0wLjE1LDAtMC4xNWMyLjgzLDAsMi44MywwLDIuODMsMGMwLjI0LTAuMDksMC40OC0wLjA5LDAuNDgtMC4xNyAgICBjLTAuMDktMC4xNC0wLjA5LTAuMTQtMC4wOS0wLjE0YzAtMC4xLTAuMTUtMC4xLTAuMzktMC4xYy0yLjgzLDAtMi44MywwLTIuODMsMGMwLTAuMTQsMC0wLjE0LDAtMC4xNGMtMC43NywwLTAuNzcsMC0wLjc3LDAgICAgYzAtMC4wOCwwLTAuMDgsMC0wLjA4YzAuMTQsMCwwLjE0LDAsMC4xNCwwczAuMSwwLDAuMS0wLjA5aC0wLjFjLTAuMjEsMC0wLjIxLDAtMC4yMSwwYzAtMC4xNSwwLTAuMTUsMC0wLjE1ICAgIGMwLjIxLDAsMC4yMSwwLDAuMjEsMHYtMC4wN3YtMC4xYy0wLjIxLDAtMC4yMSwwLTAuMjEsMGMwLTAuMTQsMC0wLjE0LDAtMC4xNGMwLjIxLDAsMC4yMSwwLDAuMjEsMGwwLDBjMC0wLjEsMC0wLjEsMC0wLjEgICAgYy0wLjIxLDAtMC4yMSwwLTAuMjEsMGMwLTAuMTUsMC0wLjE1LDAtMC4xNWMwLjIxLDAsMC4yMSwwLDAuMjEsMHMwLDAsMC0wLjA3bDAsMGMtMC4yMSwwLTAuMjEsMC0wLjIxLDBjMC0wLjE3LDAtMC4xNywwLTAuMTcgICAgYzAuMjEsMCwwLjIxLDAsMC4yMSwwdi0wLjA3di0wLjA3Yy0wLjIxLDAtMC4yMSwwLTAuMjEsMGMwLTAuMSwwLTAuMSwwLTAuMWMwLjIxLTAuMDcsMC4yMS0wLjA3LDAuMjEtMC4wN2wwLDAgICAgYzAtMC4wNywwLTAuMDcsMC0wLjA3Yy0wLjIxLDAtMC4yMSwwLTAuMjEsMGMwLTAuMTcsMC0wLjE3LDAtMC4xN2MwLjIxLDAsMC4yMSwwLDAuMjEsMGwwLDBjMC0wLjA4LDAtMC4wOCwwLTAuMDggICAgYy0wLjIxLDAtMC4yMSwwLTAuMjEsMGMwLTAuMTQsMC0wLjE0LDAtMC4xNGMwLjIxLDAsMC4yMSwwLDAuMjEsMHMwLDAsMC0wLjFsMCwwYzEuMzYsMCwzLjYzLTAuMDcsNy4zOC0wLjA3ICAgIEMyMi44MiwxOC4wNSwyMi44MiwxNC4yNSwyMi44MiwxMy4zMXoiLz4mI3hhOwk8L2c+JiN4YTs8L2c+JiN4YTs8L3N2Zz4=;" parent="1" vertex="1">
          <mxGeometry x="240" y="350" width="63" height="60" as="geometry" />
        </mxCell>
        <mxCell id="AcxdMaKK0mU5kZiv2lnr-5" value="Preview&lt;br&gt;Monitoring&lt;br&gt;" style="aspect=fixed;html=1;perimeter=none;align=center;shadow=0;dashed=0;image;fontSize=12;image=img/lib/mscae/TaskVM.svg;" parent="1" vertex="1">
          <mxGeometry x="340" y="20" width="63" height="60" as="geometry" />
        </mxCell>
        <mxCell id="AcxdMaKK0mU5kZiv2lnr-6" value="Program" style="aspect=fixed;html=1;perimeter=none;align=center;shadow=0;dashed=0;image;fontSize=12;image=img/lib/mscae/WebApp_WebJobs.svg;labelBackgroundColor=none;" parent="1" vertex="1">
          <mxGeometry x="378" y="192.00000000000006" width="64" height="64" as="geometry" />
        </mxCell>
        <mxCell id="AcxdMaKK0mU5kZiv2lnr-8" value="Streaming&#xa;Endpoint&#xa;" style="shape=image;verticalLabelPosition=bottom;labelBackgroundColor=#ffffff;verticalAlign=top;aspect=fixed;imageAspect=0;image=data:image/svg+xml,PHN2ZyB4bWxuczpjYz0iaHR0cDovL2NyZWF0aXZlY29tbW9ucy5vcmcvbnMjIiB4bWxuczpkYz0iaHR0cDovL3B1cmwub3JnL2RjL2VsZW1lbnRzLzEuMS8iIHhtbG5zOmlua3NjYXBlPSJodHRwOi8vd3d3Lmlua3NjYXBlLm9yZy9uYW1lc3BhY2VzL2lua3NjYXBlIiB4bWxuczpyZGY9Imh0dHA6Ly93d3cudzMub3JnLzE5OTkvMDIvMjItcmRmLXN5bnRheC1ucyMiIHhtbG5zOnNvZGlwb2RpPSJodHRwOi8vc29kaXBvZGkuc291cmNlZm9yZ2UubmV0L0RURC9zb2RpcG9kaS0wLmR0ZCIgeG1sbnM6c3ZnPSJodHRwOi8vd3d3LnczLm9yZy8yMDAwL3N2ZyIgeG1sbnM9Imh0dHA6Ly93d3cudzMub3JnLzIwMDAvc3ZnIiB4bWxuczp4bGluaz0iaHR0cDovL3d3dy53My5vcmcvMTk5OS94bGluayIgdmVyc2lvbj0iMS4xIiBpZD0ic3ZnOTI3NzciIGlua3NjYXBlOnZlcnNpb249IjAuOTIuMyAoMjQwNTU0NiwgMjAxOC0wMy0xMSkiIHNvZGlwb2RpOmRvY25hbWU9InBsYXkuc3ZnIiB4PSIwcHgiIHk9IjBweCIgdmlld0JveD0iMCAwIDI3IDI3IiBzdHlsZT0iZW5hYmxlLWJhY2tncm91bmQ6bmV3IDAgMCAyNyAyNzsiIHhtbDpzcGFjZT0icHJlc2VydmUiPiYjeGE7PHNvZGlwb2RpOm5hbWVkdmlldyBib3JkZXJjb2xvcj0iIzY2NjY2NiIgYm9yZGVyb3BhY2l0eT0iMSIgZml0LW1hcmdpbi1ib3R0b209IjAiIGZpdC1tYXJnaW4tbGVmdD0iMCIgZml0LW1hcmdpbi1yaWdodD0iMCIgZml0LW1hcmdpbi10b3A9IjAiIGdyaWR0b2xlcmFuY2U9IjEwIiBndWlkZXRvbGVyYW5jZT0iMTAiIGlkPSJuYW1lZHZpZXc5Mjc3OSIgaW5rc2NhcGU6Y3VycmVudC1sYXllcj0ic3ZnOTI3NzciIGlua3NjYXBlOmN4PSIxNy45OTk1MjIiIGlua3NjYXBlOmN5PSIxNy45OTk4NTYiIGlua3NjYXBlOnBhZ2VvcGFjaXR5PSIwIiBpbmtzY2FwZTpwYWdlc2hhZG93PSIyIiBpbmtzY2FwZTp3aW5kb3ctaGVpZ2h0PSIxMDE3IiBpbmtzY2FwZTp3aW5kb3ctbWF4aW1pemVkPSIxIiBpbmtzY2FwZTp3aW5kb3ctd2lkdGg9IjE5MjAiIGlua3NjYXBlOndpbmRvdy14PSItOCIgaW5rc2NhcGU6d2luZG93LXk9Ii04IiBpbmtzY2FwZTp6b29tPSIyNC4wODMxNCIgb2JqZWN0dG9sZXJhbmNlPSIxMCIgcGFnZWNvbG9yPSIjZmZmZmZmIiBzaG93Z3JpZD0iZmFsc2UiPiYjeGE7CTwvc29kaXBvZGk6bmFtZWR2aWV3PiYjeGE7PGcgaWQ9Imc5Mjc3NSIgdHJhbnNmb3JtPSJ0cmFuc2xhdGUoMS45OTMyMDk4ZS02LDQuMzc4NDU4MWUtNSkiPiYjeGE7CTx0aXRsZSBpZD0idGl0bGU5Mjc2MCI+UGFnZS0xPC90aXRsZT4mI3hhOwk8ZyBpZD0iZ3JvdXA1OTA1LTEiIHRyYW5zZm9ybT0idHJhbnNsYXRlKDAuNzQ5OTkzLC0wLjc0OTk5MykiPiYjeGE7CQk8dGl0bGUgaWQ9InRpdGxlOTI3NjIiPlBsYXk8L3RpdGxlPiYjeGE7CQk8ZyBpZD0ic2hhcGU1OTA2LTIiPiYjeGE7CQkJPHRpdGxlIGlkPSJ0aXRsZTkyNzY0Ij5TaGVldC41OTA2PC90aXRsZT4mI3hhOwkJCSYjeGE7CQkJCTxwYXRoIGlkPSJwYXRoOTI3NjYiIGlua3NjYXBlOmNvbm5lY3Rvci1jdXJ2YXR1cmU9IjAiIHN0eWxlPSJmaWxsOm5vbmU7c3Ryb2tlOiM1NTZBOEE7c3Ryb2tlLXdpZHRoOjEuNTtzdHJva2UtbGluZWNhcDpyb3VuZDtzdHJva2UtbGluZWpvaW46cm91bmQ7c3Ryb2tlLW1pdGVybGltaXQ6MzsiIGQ9IiAgICAgTTMsMS41aDE5LjVjMS42OCwwLDMsMS4zOCwzLDNWMjRjMCwxLjY4LTEuMzIsMy0zLDNIM2MtMS42MiwwLTMtMS4zMi0zLTNWNC41QzAsMi44OCwxLjM4LDEuNSwzLDEuNSIvPiYjeGE7CQk8L2c+JiN4YTsJCTxnIGlkPSJzaGFwZTU5MDctNSIgdHJhbnNmb3JtPSJ0cmFuc2xhdGUoNi43Nzk4MiwtNS4yMjAwNCkiPiYjeGE7CQkJPHRpdGxlIGlkPSJ0aXRsZTkyNzY5Ij5TaGVldC41OTA3PC90aXRsZT4mI3hhOwkJCTxwYXRoIGlkPSJwYXRoOTI3NzEiIGlua3NjYXBlOmNvbm5lY3Rvci1jdXJ2YXR1cmU9IjAiIHN0eWxlPSJmaWxsOiMyQkM3RjQ7IiBkPSJNMCwyN1YxMmwxMy4yLDcuNTZMMCwyN3oiLz4mI3hhOwkJPC9nPiYjeGE7CTwvZz4mI3hhOzwvZz4mI3hhOzwvc3ZnPg==;spacingTop=2;" parent="1" vertex="1">
          <mxGeometry x="517" y="197.50000000000003" width="53" height="53" as="geometry" />
        </mxCell>
        <mxCell id="AcxdMaKK0mU5kZiv2lnr-9" value="Azure Blob&lt;br&gt;Storage&lt;br&gt;" style="aspect=fixed;html=1;perimeter=none;align=center;shadow=0;dashed=0;image;fontSize=12;image=img/lib/mscae/BlobBlock.svg;" parent="1" vertex="1">
          <mxGeometry x="512.5" y="338" width="62" height="53" as="geometry" />
        </mxCell>
        <mxCell id="AcxdMaKK0mU5kZiv2lnr-10" value="Multi-Protocol&lt;br&gt;Dynamic &lt;br&gt;Packaging/&lt;br&gt;Multi-DRM&lt;br&gt;" style="aspect=fixed;html=1;perimeter=none;align=center;shadow=0;dashed=0;image;fontSize=12;image=img/lib/mscae/VPN_Gateway.svg;" parent="1" vertex="1">
          <mxGeometry x="655" y="199.00000000000003" width="45" height="50" as="geometry" />
        </mxCell>
        <mxCell id="AcxdMaKK0mU5kZiv2lnr-11" value="Azure CDN" style="aspect=fixed;html=1;perimeter=none;align=center;shadow=0;dashed=0;image;fontSize=12;image=img/lib/mscae/Content_Delivery_Network.svg;" parent="1" vertex="1">
          <mxGeometry x="763" y="202.00000000000003" width="96" height="44" as="geometry" />
        </mxCell>
        <mxCell id="AcxdMaKK0mU5kZiv2lnr-12" value="Azure Media&lt;br&gt;Player in Browser&lt;br&gt;" style="aspect=fixed;html=1;perimeter=none;align=center;shadow=0;dashed=0;image;fontSize=12;image=img/lib/mscae/Browser.svg;spacingTop=5;" parent="1" vertex="1">
          <mxGeometry x="878.2499999999997" y="60" width="50" height="42.5" as="geometry" />
        </mxCell>
        <mxCell id="AcxdMaKK0mU5kZiv2lnr-13" value="Azure Media Player&lt;br&gt;in Mobile App&lt;br&gt;" style="aspect=fixed;html=1;perimeter=none;align=center;shadow=0;dashed=0;image;fontSize=12;image=img/lib/mscae/App_Service_Mobile_App.svg;" parent="1" vertex="1">
          <mxGeometry x="885.9999999999999" y="280" width="34.5" height="50" as="geometry" />
        </mxCell>
        <mxCell id="AcxdMaKK0mU5kZiv2lnr-14" value="Cloud DRM&lt;br&gt;License / Key&lt;br&gt;Delivery Service&lt;br&gt;" style="aspect=fixed;html=1;perimeter=none;align=center;shadow=0;dashed=0;image;fontSize=12;image=img/lib/mscae/KeyVault.svg;spacingTop=3;" parent="1" vertex="1">
          <mxGeometry x="990" y="179" width="45" height="50" as="geometry" />
        </mxCell>
        <mxCell id="AcxdMaKK0mU5kZiv2lnr-29" style="edgeStyle=orthogonalEdgeStyle;rounded=0;orthogonalLoop=1;jettySize=auto;html=1;exitX=0.364;exitY=0.004;exitDx=0;exitDy=0;exitPerimeter=0;entryX=1.043;entryY=0.678;entryDx=0;entryDy=0;entryPerimeter=0;strokeColor=#808080;" parent="1" source="AcxdMaKK0mU5kZiv2lnr-14" target="AcxdMaKK0mU5kZiv2lnr-12" edge="1">
          <mxGeometry relative="1" as="geometry">
            <mxPoint x="1022.5517241379312" y="209.41379310344826" as="sourcePoint" />
            <mxPoint x="939.1034482758621" y="91.48275862068965" as="targetPoint" />
            <Array as="points">
              <mxPoint x="1006" y="89" />
              <mxPoint x="990" y="89" />
            </Array>
          </mxGeometry>
        </mxCell>
        <mxCell id="ij2_FURvqXdRc3KbHj5h-2" value="" style="verticalLabelPosition=bottom;html=1;verticalAlign=top;align=center;strokeColor=none;fillColor=#00BEF2;shape=mxgraph.azure.mobile_services;pointerEvents=1;" parent="1" vertex="1">
          <mxGeometry x="290.84" y="1390" width="32.5" height="50" as="geometry" />
        </mxCell>
        <mxCell id="ij2_FURvqXdRc3KbHj5h-4" value="" style="verticalLabelPosition=bottom;html=1;verticalAlign=top;align=center;strokeColor=none;fillColor=#00BEF2;shape=mxgraph.azure.computer;pointerEvents=1;" parent="1" vertex="1">
          <mxGeometry x="193.34" y="1395" width="50" height="45" as="geometry" />
        </mxCell>
        <mxCell id="ij2_FURvqXdRc3KbHj5h-5" value="" style="verticalLabelPosition=bottom;html=1;verticalAlign=top;align=center;strokeColor=none;fillColor=#00BEF2;shape=mxgraph.azure.cloud_service;" parent="1" vertex="1">
          <mxGeometry x="90" y="790" width="62.5" height="50" as="geometry" />
        </mxCell>
        <mxCell id="ij2_FURvqXdRc3KbHj5h-19" value="Nginx" style="text;html=1;align=center;verticalAlign=middle;resizable=0;points=[];autosize=1;strokeColor=none;" parent="1" vertex="1">
          <mxGeometry x="40" y="860" width="50" height="20" as="geometry" />
        </mxCell>
        <mxCell id="ij2_FURvqXdRc3KbHj5h-33" value="" style="group" parent="1" vertex="1" connectable="0">
          <mxGeometry x="130.00000000000003" y="1200" width="80" height="64" as="geometry" />
        </mxCell>
        <mxCell id="ij2_FURvqXdRc3KbHj5h-26" value="" style="verticalLabelPosition=bottom;html=1;verticalAlign=top;align=center;strokeColor=none;fillColor=#00BEF2;shape=mxgraph.azure.express_route;pointerEvents=1;dashed=1;" parent="ij2_FURvqXdRc3KbHj5h-33" vertex="1">
          <mxGeometry x="6.659999999999968" width="66.67" height="40" as="geometry" />
        </mxCell>
        <mxCell id="ij2_FURvqXdRc3KbHj5h-7" value="阿里云 SLB" style="text;html=1;align=center;verticalAlign=middle;resizable=0;points=[];autosize=1;strokeColor=none;" parent="ij2_FURvqXdRc3KbHj5h-33" vertex="1">
          <mxGeometry y="44" width="80" height="20" as="geometry" />
        </mxCell>
        <mxCell id="ij2_FURvqXdRc3KbHj5h-34" value="" style="verticalLabelPosition=bottom;html=1;verticalAlign=top;align=center;strokeColor=none;fillColor=#00BEF2;shape=mxgraph.azure.server_rack;dashed=1;" parent="1" vertex="1">
          <mxGeometry x="548.5899999999999" y="1230" width="50" height="50" as="geometry" />
        </mxCell>
        <mxCell id="ij2_FURvqXdRc3KbHj5h-38" value="" style="group" parent="1" vertex="1" connectable="0">
          <mxGeometry x="136.66" y="1000" width="66.67000000000002" height="62" as="geometry" />
        </mxCell>
        <mxCell id="ij2_FURvqXdRc3KbHj5h-35" value="" style="verticalLabelPosition=bottom;html=1;verticalAlign=top;align=center;strokeColor=none;fillColor=#00BEF2;shape=mxgraph.azure.express_route;pointerEvents=1;dashed=1;" parent="ij2_FURvqXdRc3KbHj5h-38" vertex="1">
          <mxGeometry width="66.67" height="40" as="geometry" />
        </mxCell>
        <mxCell id="ij2_FURvqXdRc3KbHj5h-37" value="Nginx" style="text;html=1;align=center;verticalAlign=middle;resizable=0;points=[];autosize=1;strokeColor=none;" parent="ij2_FURvqXdRc3KbHj5h-38" vertex="1">
          <mxGeometry x="8.340000000000003" y="42" width="50" height="20" as="geometry" />
        </mxCell>
        <mxCell id="ij2_FURvqXdRc3KbHj5h-39" style="edgeStyle=orthogonalEdgeStyle;curved=1;rounded=0;orthogonalLoop=1;jettySize=auto;html=1;entryX=0.493;entryY=1.25;entryDx=0;entryDy=0;entryPerimeter=0;" parent="1" source="ij2_FURvqXdRc3KbHj5h-26" target="ij2_FURvqXdRc3KbHj5h-37" edge="1">
          <mxGeometry relative="1" as="geometry" />
        </mxCell>
        <mxCell id="ij2_FURvqXdRc3KbHj5h-57" value="" style="shape=image;verticalLabelPosition=bottom;labelBackgroundColor=#ffffff;verticalAlign=top;aspect=fixed;imageAspect=0;image=data:image/png,iVBORw0KGgoAAAANSUhEUgAAAjYAAAJUCAYAAAAGimxkAAAMa2lDQ1BJQ0MgUHJvZmlsZQAASImVVwdYU8kWnluSkJDQAhGQEnoTpFcpIbQIAlIFGyEJJJQYE4KKDVFRwbWLKFZ0VUTRtQCyqIi9LIq9LxYUlHVRF0VReRMS0HVf+d75vrnz3zNn/lMykzsDgGYvVyLJQbUAyBXnSePCg5njUlKZpHZAAGRAAp7AksuTSVixsVEAymD/d3l/CyCK/rqjguuf4/9VdPgCGQ8AZALE6XwZLxfiJgDwjTyJNA8AokJvMS1PosCFEOtKYYAQr1HgTCXercDpStw4YJMQx4b4KgBqVC5XmgmAxgOoZ+bzMiGPxmeIncV8kRgAzREQB/CEXD7EithH5OZOUeByiG2hvQRiGA/wTv+OM/Nv/OlD/Fxu5hBW5jUgaiEimSSHO+P/LM3/ltwc+aAPa9ioQmlEnCJ/WMM72VMiFZgKcZc4PTpGUWuIe0V8Zd0BQClCeUSi0h414snYsH6AAbEznxsSCbERxGHinOgolT49QxTGgRiuFnS6KI+TALE+xIsFstB4lc1W6ZQ4lS+0NkPKZqn057nSAb8KX4/k2YksFf9boYCj4sc0CoQJyRBTILbMFyVFQ6wBsZMsOz5SZTOqQMiOHrSRyuMU8VtCHCcQhwcr+bH8DGlYnMq+JFc2mC+2VSjiRKvwwTxhQoSyPthpHncgfpgLdlUgZiUO8ghk46IGc+ELQkKVuWMdAnFivIqnV5IXHKeci1MkObEqe9xckBOu0JtD7C7Lj1fNxZPy4OJU8uMZkrzYBGWceEEWd3SsMh58BYgCbBACmEAOWzqYArKAqKWrrgu+KUfCABdIQSYQAEeVZnBG8sCIGD7jQQH4AyIBkA3NCx4YFYB8qP8ypFU+HUHGwGj+wIxs8BziXBAJcuC7fGCWeMhbEngGNaJ/eOfCxoPx5sCmGP/3+kHtNw0LaqJUGvmgR6bmoCUxlBhCjCCGEe1wQzwA98Oj4DMINlfcG/cZzOObPeE5oZXwhHCT0Ea4O1lUJP0hyjGgDfKHqWqR/n0tcGvI6YEH4/6QHTLjDNwQOOLu0A8LD4SePaCWrYpbURXmD9x/y+C7X0NlR3Ymo+Rh5CCy7Y8zNew1PIZYFLX+vj7KWNOH6s0eGvnRP/u76vNhH/mjJbYYO4Sdw05iF7BGrA4wsRNYPXYZO6bAQ6vr2cDqGvQWNxBPNuQR/cMfV+VTUUmZc7Vzp/Nn5VieYHqeYuOxp0hmSEWZwjwmC34dBEyOmOc0gunq7OoCgOJbo/z7escY+IYgjIvfdEUPAfBP6e/vb/ymi4L793AH3P5d33Q21QDQjgNwfiFPLs1X6nDFgwD/JTThTjMAJsAC2MJ8XOEXzQ8EgVAwGsSABJACJsEqC+E6l4JpYBaYB4pBKVgB1oINYAvYDnaDfeAgqAON4CQ4Cy6Bq+AmuA9XTzt4BbrBe9CHIAgJoSF0xAAxRawQB8QV8UYCkFAkColDUpA0JBMRI3JkFjIfKUVWIRuQbUgV8gtyFDmJXEBakbvIY6QTeYt8QjGUiuqixqg1OhL1RlloJJqATkQz0aloAboAXYaWo5XoXrQWPYleQm+ibegrtAcDmDrGwMwwR8wbY2MxWCqWgUmxOVgJVoZVYjVYA/ydr2NtWBf2ESfidJyJO8IVHIEn4jx8Kj4HX4pvwHfjtfhp/Dr+GO/GvxJoBCOCA8GXwCGMI2QSphGKCWWEnYQjhDNwL7UT3hOJRAbRhugF92IKMYs4k7iUuIm4n9hEbCU+JfaQSCQDkgPJnxRD4pLySMWk9aS9pBOka6R2Uq+aupqpmqtamFqqmlitSK1MbY/acbVrai/U+shaZCuyLzmGzCfPIC8n7yA3kK+Q28l9FG2KDcWfkkDJosyjlFNqKGcoDyjv1NXVzdV91Meqi9QL1cvVD6ifV3+s/pGqQ7WnsqkTqHLqMuouahP1LvUdjUazpgXRUml5tGW0Ktop2iNarwZdw0mDo8HXmKtRoVGrcU3jtSZZ00qTpTlJs0CzTPOQ5hXNLi2ylrUWW4urNUerQuuo1m2tHm26tot2jHau9lLtPdoXtDt0SDrWOqE6fJ0FOtt1Tuk8pWN0CzqbzqPPp++gn6G36xJ1bXQ5ulm6pbr7dFt0u/V09Nz1kvSm61XoHdNrY2AMawaHkcNYzjjIuMX4NMx4GGuYYNiSYTXDrg37oD9cP0hfoF+iv1//pv4nA6ZBqEG2wUqDOoOHhrihveFYw2mGmw3PGHYN1x3uN5w3vGT4weH3jFAje6M4o5lG240uG/UYmxiHG0uM1xufMu4yYZgEmWSZrDE5btJpSjcNMBWZrjE9YfqSqcdkMXOY5czTzG4zI7MIM7nZNrMWsz5zG/NE8yLz/eYPLSgW3hYZFmssmi26LU0tx1jOsqy2vGdFtvK2Elqtszpn9cHaxjrZepF1nXWHjb4Nx6bAptrmgS3NNtB2qm2l7Q07op23XbbdJrur9qi9h73QvsL+igPq4Okgctjk0DqCMMJnhHhE5YjbjlRHlmO+Y7XjYyeGU5RTkVOd0+uRliNTR64ceW7kV2cP5xznHc73XXRcRrsUuTS4vHW1d+W5VrjecKO5hbnNdat3e+Pu4C5w3+x+x4PuMcZjkUezxxdPL0+pZ41np5elV5rXRq/b3rresd5Lvc/7EHyCfeb6NPp89PX0zfM96Punn6Nftt8ev45RNqMEo3aMeupv7s/13+bfFsAMSAvYGtAWaBbIDawMfBJkEcQP2hn0gmXHymLtZb0Odg6WBh8J/sD2Zc9mN4VgIeEhJSEtoTqhiaEbQh+FmYdlhlWHdYd7hM8Mb4ogRERGrIy4zTHm8DhVnO7RXqNnjz4dSY2Mj9wQ+STKPkoa1TAGHTN6zOoxD6KtosXRdTEghhOzOuZhrE3s1NhfxxLHxo6tGPs8ziVuVty5eHr85Pg98e8TghOWJ9xPtE2UJzYnaSZNSKpK+pAckrwquW3cyHGzx11KMUwRpdSnklKTUnem9owPHb92fPsEjwnFE25NtJk4feKFSYaTciYdm6w5mTv5UBohLTltT9pnbgy3ktuTzknfmN7NY/PW8V7xg/hr+J0Cf8EqwYsM/4xVGR2Z/pmrMzuFgcIyYZeILdogepMVkbUl60N2TPau7P6c5Jz9uWq5ablHxTribPHpKSZTpk9plThIiiVtU32nrp3aLY2U7pQhsomy+jxdeKi/LLeVL5Q/zg/Ir8jvnZY07dB07eni6Zdn2M9YMuNFQVjBzzPxmbyZzbPMZs2b9Xg2a/a2Ocic9DnNcy3mLpjbXhheuHseZV72vN+KnItWFf01P3l+wwLjBYULni4MX1hdrFEsLb69yG/RlsX4YtHiliVuS9Yv+VrCL7lY6lxaVvp5KW/pxZ9cfir/qX9ZxrKW5Z7LN68grhCvuLUycOXuVdqrClY9XT1mde0a5pqSNX+tnbz2Qpl72ZZ1lHXydW3lUeX16y3Xr1j/eYNww82K4Ir9G402Ltn4YRN/07XNQZtrthhvKd3yaato651t4dtqK60ry7YTt+dvf74jace5n71/rtppuLN055dd4l1tu+N2n67yqqraY7RneTVaLa/u3Dth79V9Ifvqaxxrtu1n7C89AA7ID7z8Je2XWwcjDzYf8j5Uc9jq8MYj9CMltUjtjNruOmFdW31KfevR0UebG/wajvzq9OuuRrPGimN6x5YfpxxfcLz/RMGJniZJU9fJzJNPmyc33z817tSN02NPt5yJPHP+bNjZU+dY506c9z/feMH3wtGL3hfrLnleqr3scfnIbx6/HWnxbKm94nWl/qrP1YbWUa3HrwVeO3k95PrZG5wbl25G32y9lXjrzu0Jt9vu8O903M25++Ze/r2++4UPCA9KHmo9LHtk9Kjyd7vf97d5th17HPL48pP4J/ef8p6+eiZ79rl9wXPa87IXpi+qOlw7GjvDOq++HP+y/ZXkVV9X8R/af2x8bfv68J9Bf17uHtfd/kb6pv/t0ncG73b95f5Xc09sz6P3ue/7PpT0GvTu/uj98dyn5E8v+qZ9Jn0u/2L3peFr5NcH/bn9/RKulDtwFMBgQzMyAHi7C54TUgCgw3sbZbzyLjggiPL+OoDAf8LK++KAeAJQAzvFMZ7dBMAB2KwLITd8VxzhE4IA6uY21FQiy3BzVXJR4U2I0Nvf/84YAFIDAF+k/f19m/r7v+yAwd4FoGmq8g6qECK8M2wNUqCb+vxC8IMo76ff5fhjDxQRuIMf+38BfYqQMrgid5gAAABsZVhJZk1NACoAAAAIAAQBGgAFAAAAAQAAAD4BGwAFAAAAAQAAAEYBKAADAAAAAQACAACHaQAEAAAAAQAAAE4AAAAAAAAAkAAAAAEAAACQAAAAAQACoAIABAAAAAEAAAI2oAMABAAAAAEAAAJUAAAAADKHKQcAAAAJcEhZcwAAFiUAABYlAUlSJPAAAEAASURBVHgB7J0HfBzV8cdHp957s6zm3ovcjY2NbTC9QwgkkAQIgdDSSEiDVP5JSEhoCSQk9N57MWDcey+y5SJLltV77/83Z8uWLJ1u92537+3u7/mjz93tzntv5vvW0twrM37dohAKCIAACIAACIAACFiAgMMCNsAEEAABEAABEAABEHASgGODBwEEQAAEQAAEQMAyBODYWGYoYQgIgAAIgAAIgAAcGzwDIAACIAACIAACliEAx8YyQwlDQAAEQAAEQAAE4NjgGQABEAABEAABELAMATg2lhlKGAICIAACIAACIADHBs8ACIAACIAACICAZQjAsbHMUMIQEAABEAABEAABODZ4BkAABEAABEAABCxDAI6NZYYShoAACIAACIAACMCxwTMAAiAAAiAAAiBgGQJwbCwzlDAEBEAABEAABEAAjg2eARAAARAAARAAAcsQgGNjmaGEISAAAiAAAiAAAnBs8AyAAAiAAAiAAAhYhgAcG8sMJQwBARAAARAAARCAY4NnAARAAARAAARAwDIE4NhYZihhCAiAAAiAAAiAABwbPAMgAAIgAAIgAAKWIQDHxjJDCUNAAARAAARAAATg2OAZAAEQAAEQAAEQsAwBODaWGUoYAgIgAAIgAAIgAMcGzwAIgAAIgAAIgIBlCMCxscxQwhAQAAEQAAEQAAE4NngGQAAEQAAEQAAELEMAjo1lhhKGgAAIgAAIgAAIwLHBMwACIAACIAACIGAZAnBsLDOUMAQEQAAEQAAEQACODZ4BEAABEAABEAAByxCAY2OZoYQhIAACIAACIAACAUAAAiBgfgLd3d3U0dVGHZ3tztf2TvH+xOfe749f43vt5LzulOP3rc5rHeLzcfl28hNYAvyDKFD8BDj4J9D5+dS1QHEvuM91lumRd7721PUXdcU9FBAAARDQmwAcG70Jo30Q8JIAOxr1LZVU21xJdeK1jl97va9trqDGtlpi50bm4u8IoIjgWIoKjaPIkDiKEj89r1GhCRQtfqJC4+EAyTyI0A0ETEDAT/wylPu3oQkgQkUQ8IZAa0cz1TaVU3VTGdU0l4v3Zc73teJ9jbje2CqcFvHPDsVPzBNFhMRQTGgixYQlOX9iT7zy52hxnWeCUEAABEDAFQE4Nq7I4DoIaEiAZ12qG0uoovEYVTac+uHP7LigKCPAjk+kmPFJCB9C8REnfsJTne9jw5KJZ4VQQAAE7E0Ajo29xx/W60CAl4lK6vKppPbwidd8qhQODCZHdYDdq0mHn7/TwUmJyqTkXj/RYYnCHeIdQyggAAJ2IADHxg6jDBt1I1DfUkVFNQfpWM0B8XpAvB7EDIxutD1rODQwgtJiR1BajPiJHeV8jQyJ9awx1AIBEJCeABwb6YcICspCoK2zxem4HK3Oo6NV++ho9X6xmbdKFvWghwoCvFcnPW4UDRWODv8MiRmOTcsq+EEUBGQmAMdG5tGBbj4lwCeQCipzqaCKf/aKpaV86uru9KlO6FwfArw3h52bjLix4meM8zU8OEqfztAqCICArgTg2OiKF42biQCfQMqv3EX5FbvpsHitbiw1k/rQVUMCvCcnITKNsuLHU1bCBOcrlq80BIymQEBHAnBsdISLpuUm0NzWQIcqdtCh8h10oHwbHBm5h8vn2iVGDqVhCZNoWOIkyhbOTkhguM91ggIgAAL9CcCx6c8EVyxKgGPBlNQcpv1lm2l/6WYqEntlurq7LGotzNKTAJ/AGho7kkYm59DIpBxKjR5Gfn44eaUnc7QNAkoJwLFRSgpypiTA8WN4RmZf6UbaV7JJRPDFZl9TDqTkSkcEx9DolBk0RvwMS5yMIIKSjxfUszYBODbWHl9bWtfUVud0YnJLNtCBsm3OPEi2BAGjfUIgyD+ERiRNobGps2hUynTi4+YoIAACxhGAY2Mca/SkIwGeidlTvJ72HlsrNgDvweklHVmjaeUE/B3+Yj/ORBqXOsfp6IQHRyuvDEkQAAGPCMCx8QgbKslAgJ2Z3cKR2V20mgqqcxHZV4ZBgQ4uCTj8HM7TVRPSzhBOzhzCcXKXqHADBLwiAMfGK3yobDSBprZ62nNsDe0sWiVmZnbDmTF6ANCfJgR48zGfrpqYNk84ObPFCaswTdpFIyAAAkRwbPAUSE+go6td7JnZSNsLv6I8caKpswtB8qQfNCiomECAyFY+Onk6TU5f4DxhhUSeitFBEAQGJADHZkAsuCgDgUKRsmBbwRfO2ZmW9kYZVIIOIKArgbCgSDGLM5+mZJzlzGmla2doHAQsSgCOjUUH1qxm8YmmbYXLafORZVReX2hWM6A3CHhNgDOU52Qsds7khAUhvYPXQNGAbQjAsbHNUMttaKFIKrn+8Idi/8xa4qUnFBAAgeMEAhyBNHbIbJqeeY5I7zBeJHtAIEA8GyAwGAE4NoPRwT1dCXDwvF1FK2n9oQ/pWO0hXftC4yBgBQKc1mFm9nk0JX0hBQdgw7EVxhQ2aE8Ajo32TNGiGwK1zRW08fDHtOnIZ8RLTyggAALqCAQHhDqXqWYNu4DiwlPUVYY0CFicABwbiw+wTObxZuC1B99zLjd1deNkk0xjA13MSYBj44xOmUlzh19MmfFjzWkEtAYBjQnAsdEYKJrrS4CTTO4tXkdrDrxD7NiggAAI6EOAk3KeMeJSZ1wcdnhQQMCuBODY2HXkdba7raOFthR87pyhqW4q1bk3NA8CINBDIDY8WczgXCKWqhaJZJzBPZfxCgK2IQDHxjZDbYyhja21tO7QB7Qh/yNqbmswplP0AgIg0I8AHxGfLfbgzMo+n0KDkIizHyBcsCwBODaWHVpjDeNZmdViuWmrmKXh004oIAACchAICgihGVlLnftwIkPi5FAKWoCAjgTg2OgI1w5Nl9cfpRV5b9DOoyuRUdsOAw4bTUuA4+FMFctT80deTjFhSaa1A4qDgDsCcGzcEcL9AQmU1ObTV/tfoz3Fa5GIckBCuAgCchLwd/jT5KEL6cxRV4ij4qlyKgmtQMALAnBsvIBnx6rFIpDe8n2vUm7xBuoW/1BAAATMSYAzjE8aeiYtGH0VxcPBMecgQusBCcCxGRALLp5OoLQun77IfUU4NOvh0JwOB59BwMQE2MHhzOILR11NfKIKBQTMTgCOjdlHUGf9KxqKhEPzMu0+thpLTjqzRvMg4EsCvESVk7GEFoy6iqJC432pCvoGAa8IwLHxCp91K3Pag+X7XhGnnL7EpmDrDjMsA4F+BAL8g2hm1rnOPTjIKt4Pj+4Xcks20BgRTRrFcwJwbDxnZ8maHHuGTzlxpu0OHNu25BjDKBBQQoCTbM4beSnNGX4RBfmHKKkCGS8JFNccotc2/43uXPyoly3Zu3qAvc2H9T0EOrranVm2V+x/nZrbEVivhwteQcCuBFo7mujzvS/ShsMf0Vmjr6GczMXE+3FQ9CPAgU15+b+07gglR2Xq15HFW8aMjcUH2J15fLJpz7G19OmeZ6m6EakP3PHCfRCwK4HEyHRaOv4GGpU8za4IdLWbZ8sf/PQmEeC0lRaOvpoWjfm6rv1ZuXE4NlYeXTe28dHtj3b+l/Ird7uRxG0QAAEQOE5gRNIUOnfCtykpMgNINCSw6sDb9OnuZ5wtMtvbF/1Dw9bt1RQcG3uNt9PaprZ6McX8Am0+8pnYGNxlQwIwGQRAwBsCvCTFaRp4VgF5qLwhebxuV3cn/X3ZrVTTVH6ysTsWPUKJkUNPfsYb5QSwx0Y5K9NLdnd3i4zby+izPc8ROzcoIAACIOAJAf5DzAcMdhatoiVjr6NpmWeTn5+fJ02hjiCwV8QH6+3UMBSO6r4g8irw8YAAZmw8gGbGKpwC4b3t/6TC6v1mVB86gwAISEwgLWYEXTj5FuJXFPUEnlzxUzp62u/mlOhsum3h39Q3hhqEGRuLPwScaZvj0XDmbf6WhQICIAACWhMoqjlAT664xxn/ZvHYb1BIYJjWXVi2vSOVe/o5NWxsSe1hqmosEfm8Uixru16GOfRqGO36nsDhil302Jd308q8N+HU+H44oAEIWJoAL3WvF0fDH/nidhGpfI2lbdXSON407KrwiVUU9QTg2KhnJn2Nto4W+mDHk/T06l8Lj79Yen2hIAiAgHUI1LdU0ysb/0IvbniA6luqrGOYDpaU1RXQ/pJNLlveU7zO5T3ccE0AS1Gu2ZjyzuGKnfT21seougkxaUw5gFAaBCxCILd4A+VX7KbzxNHwqRmLLWKVtmZwlHeOJeaqFFXnEae3iQ5NcCWC6wMQwIzNAFDMeIlnad53ztLcB6fGjAMInUHAggRa2hvpra2P0vPrfo/Zm9PGl/fP7CpafdrVvh/Z6eETUyjqCMCxUcdLSmkOsPfY8rudoc8H8/6lVB5KgQAIWJ7A/tLN9OiXd7n9Q255EL0MXClma5Qc6MA+m17QFL7FUpRCUDKKcX4nDrS35uC7xBv3UEAABEBAVgKcMuDVTQ/SvtKNdMHE79r65BRvFdhW+KWioSqo2kuNrbUUHhytSB5CRJixMelTwOkQ/rX8x85j3HBqTDqIUBsEbEhge+FX9PjyH9g6lcuK/W9QZ5ey8BscHT63ZIMNnxTPTYZj4zk7n9Tkh5yPb3NAp7L6Ap/ogE5BAARAwBsCNU1lzlOby8SMs9I/8N70J1Nd3luzrfALVSrhdJQqXAjQpw6Xb6U55PabW/5h6286vh0B9A4CIKAVAf6StmL/63SwbBtdNf2HIhBdqlZNS90OB0xV68wdLt9JLe1Ntl6+UzOomLFRQ8uHspyTxe7Ttz7Ej65BAAR0IsBRi/+5/EdiFmO5Tj3I02x5fSHtOLpCtUK8nzJPbMBGUUYAjo0yTj6T4mPcb255mF7b9FfhsTf6TA90DAIgAAJ6EWjtaHbORr+++SHi91Yty/a+KE5CdXlkHpajlGPDqSjlrAyXLK45RK9u/itVNhwzvG90CAIgAAJGE+DZjKKaPLp62o8pNWaY0d3r2l9h1T7K9SImTV7ZFuKZmwBHoK56WqFxzNhIOIoci2bdoQ/o3yt/BqdGwvGBSiAAAvoRqGwodv7uW3/4Q/068UHLn+55dtAow+5U4tl73o+E4p4AHBv3jAyVaG5voJc3/Jk+3Pkfp3duaOfoDARAAAQkIMAzEx/s+De9vPHPzk2zEqjklQp8XJuzeHtbEIVYGUEsRSnjZIgUb6J7deODSIlgCG10AgIgIDsBjrpbUptP18z4CaVEZ8uu7oD68QmoT3c/O+A9tRc5uCHv0XH4YU5iMHagMxgdA+9tOPwRPbXy53BqDGSOrkAABOQnUNV4fGlqy5Fl8is7gIYb8z+mioaiAe6ov9TYWkcciRhlcAJwbAbno/vdts4W4pMAnMCSp19RQAAEQAAE+hJo72yjt7c9Ru+IHzP9nuQ0Ehy3RsvCWdNRBicAx2ZwPrredX4TWfEzj+Ia6KoYGgcBEAABCQlsFrM2/1l5L3GwUjOUL/e9TE1t9Zqqin027nHCsXHPSBcJznb7r69+QqV1R3RpH42CAAiAgBUJHKs5KH53/pgOle+Q2ryyugLacPhjRTo6HMr/FHMCTd53hOKagHKartvAHRUE+Cj3V/tfoxfW/wEB91RwgygIgAAI9BBoaqujZ9f+ltYcfLfnknSvH4iTrV3dyhJd3jjvj6r0R1LMwXHBsRmcj6Z3eT8Nn3r6XESfREZuTdGiMRAAAZsRYKfh413/ozdE/jzZ9t3sEilwDlfsVDQiE9PmU3rsaBqZPE2RPAt5E+hPcScmFoRjY9Dg8Zowrw3vPrbGoB7RDQiAAAhYn8B2kWPqv6t+QfUtVVIYyykh2OFSWpZO+JZT9IwRlyitQsW1h6m22Rz7jBQbpaEgHBsNYbpqqqAql55ccQ/WRV0BwnUQAAEQ8ILA0eo8ekLsWeT9N74uX+a+THUKnawJaXMpKiTOqXJG3BjFqvOWhtySjYrl7SYIx0bnEefcJ0+vuY8aWmt07gnNgwAIgIB9CbAz8ZSYufHlrDhv6uV0OErL+RNvPinKOaBGJuWc/OzuDY59uyYEx8Y1G6/usEf9pYhf8Mbmv1OHiMGAAgIgAAIgoC+B9s5WenXTg7Qi7w19Oxqgdd43+e72fyreMJyTsYQigmP6tDR3xMV9Pg/2Ib9yFw6guAAEx8YFGG8ud3Z10FtbHiaekmQHBwUEQAAEQMAYAuxgLNvzPL299VHidAZGlQ35H9HR6v2Kuzv3xN6a3hUy4sb2/jjoe7Ytr3TLoDJ2vQnHRuORb2lvoufW/Y62iQ1tKCAAAiAAAr4hsKXgc3pe/C5u7WjSXYHa5grhTL2guJ+zRn+NQgLD+8kH+gfRsMRJ/a67uoBj3wOTgWMzMBePrta1VDrXeGUPHOWRcagEAiAAAiYjcLB8uziN+guxmbdSV83f3/GEYgcqwBFA80dd4VIfNaej8sq2GDor5VJpyW7AsdFoQDjJGR/nLq3L16hFNAMCIAACIOAtAf6d/O8V91J5faG3TQ1Ynw+I7CvZNOC9gS5eOvUO4o3Crkpm/HhXt/pd5xUC3muD0pcAHJu+PDz6VFRzQDg1PzdN/hKPjEQlEAABEDApAY758p9VPxeZsXM1taCxtZY+3PmU4jZjwhKJA/INVoL8g50B+waT6X1vH45998bhfA/Hph8SdRcOieiST6/+tUh0VqeuIqRBAARAAAQMI8CZtp9Zcz9xnj6tyvs7nlT1u//rM+8lPz8/t93PG3mZW5keAcSz6SFx6hWOzSkWqt/xA/X8ut+LtdVm1XVRAQRAAARAwFgCfBz8pQ0PEC8feVs4bYKamDljU2dRanS2om6HJUxUJMdCNU1l2AJxGi04NqcBUfqRH+pXNv4JMWqUAoMcCIAACEhAgI9Jv7Hl7yLz9kcea8MBV3m2RmlxkIMum3qnUnEKDgyj5MgMxfK5Kvb4KG7UxIJwbDwYPD7K/frmh7Ab3QN2qAICIAACvibAsW7YMVmV95ZHqryz7TGxBFWvuO5FU24Vx7vDFMuz4LxRlyuWxz6bvqjg2PTl4fYTx0Z4a+vDIrpkl1tZCIAACIAACMhL4NM9zzoDqarRcPORz1SdgoqPSKOczMVqunDKjkyaqrhOUU0e0vb0ogXHphcMd2/5gWZPnb19FBAAARAAAfMT4NQ3n+15TpEhVY0l9NGu/yqS7RG6fvavyE/8U1vCgqIoOjRBUTX+m6TlpmhFnUosBMdG4eBsyv+U3t32Tzg1CnlBDARAAATMQmBl3pv06e5nBlW3q/v43py2jpZB5XrfXDDqKooNT+59SdX7+SOxHKUK2AlhODYKqLFT8972fyHvkwJWEAEBEAABMxJYdeDtQZ2br/a9RoVV+xSbFhUST2eNuUax/ECCY1JmDnR5wGscZbmjq33Ae3a7CMfGzYjz8tN7O+DUuMGE2yAAAiBgegLs3Ay0LHWkci99tf81VfbdMPd+cvh59yc2KjR+wJxSAynCM0mHKxCFmNl4R30guha6trXgC2caeuypsdCgwhQQAAEQGIQAL0t9mfvySYnm9gZxPPwhVQdGzhx1JSVGDj3Zhjdv5gy7SHH1/YhC7GQFx8bFI8MBnLBR2AUcXAYBEAABCxPgDcU8e8PlnW2Pq0qXExeeQovHfF0zOhOHzlPc1j4Noyor7lRCwQAJdfK5SnuOraU3t+BIt88HAgqAAAiAgI8IfLb7WZFbai/lFm9QpcG3z/idSJug3ZxBfHgqORwO6upyH2KEoxCX1RVQUlSGKp2tJqwdfYuQ4SNzr23+m5h27LSIRTADBEAABEBALYFucVxErVNz8eRbFR/RVqoPO0k5Gcrj4OwrVZ5pXKkOZpODY9NrxHjj1Ssb/ywiCnf0uoq3IAACIAACIDA4gWyR32l61tmDC3l4NydjieKa+5FeAZuHe56Wo9V59OL6P1J7Z1vPJbyCAAiAAAiAgFsCgf5BdN2snws59YH43DYuBJQmz+S2Cqv3EWcyt3PBjI0Y/bL6ApGl+3fI0m3n/wmwHQRAAAQ8JPCdeX+goIAQD2u7r+bvCKThSZPdCwoJTveTV7ZFkaxVhWzv2PBmq2fX/EZVQjOrPgywCwRAAARAQB2BRWOvpbSYEeoqeSA9O/sCxbXsnl7B1o5NY2sdPbP2N1TXUqX4gYEgCIAACIAACDCBjPixtEDErDGiZMaPU9zNgbKtquLuKG7YJIK2dWw4SiMvP1U2HDPJUEFNEAABEAABWQgEB4TR9XPu8yjBpSc2hASGE8fIUVKa2urpaPV+JaKWlLGlY9PZ1Ukvi9NPRTUHLDmoMAoEQAAEQEBfAt89808U5B+sbyentT53+MWnXXH90c7LUbZzbDg2wTvbHiWeqkMBARAAARAAAbUELs+5U7OUCWr6Hp0yQ7E4HBvFqMwv+MXeF2lb4XLzGwILQAAEQAAEDCfAMWWmpJ9leL/cISfF5KPlSkppbb7YP1qpRNRyMraaseFM3V/tf91ygwiDQAAEQAAE9CeQGj2MLplyq/4duejBT+zomZF1rou7fS/z6sSBUnuuTNjGseGlp/e2P9F35PEJBEAABEAABBQQ4M27N4p4NVrmgVLQbT+RSUPP7HfN1QW7LkfZwrHhpGCvbHwQ+Z9cPf24DgIgAAIg4JKAQwTpv23h33QNwuey89NuJEdlnnbF9ceD5TtEiiD75T20vGPT0FpDz6//vYgq3OR69HEHBEAABEAABFwQuH7ufRQTluTirrGX/R0BNCxxkqJO+e9eQdUeRbJWErK0Y9PR1U4vrX+AaprKrTRmsAUEQAAEQMAgAudNvFGxI2GQSjQr+zzFXeWV2i+9gmUdG9449fbWR0VCMPsGKVL85EMQBEAABECgH4EZWUtpzrAL+1339YXM+PGKVcizYWgTyzo2q/Leoh1HVygefAiCAAiAAAiAQA8BTjp54eRbej5K9RoWFEkRITGKdCqtO0J1zfY69m1Jx2ZfySZatvd5RYMOIRAAARAAARDoTSAxMp2+OetXhqVL6N230vezhylPimm3bN+Wc2wqGorojS0PUXd3t9LnA3IgAAIgAAIg4CQQHhRNtyz4Czkc/lITGZsyS7F+dttnYynHhneAv7j+/6ilHSegFD/xEAQBEAABEHAS4Ki+ty962PAcUJ7gj49IU1ztUIW9jn1bxrHhzcJvbnmYKhqOKh5sCIIACIAACIAAE3A4HE6nJjw4yhRAHH4OGpuqbNaGv+wXVueawi4tlLSMY7My703aW7xeCyZoAwRAAARAwGYEvnfmXyk2LNlUVk/LPFuxvnZKr2AJx+ZQxU7i5JYoIAACIAACIKCWwE3z/0gp0Vlqq/lcPj1utGIdOK2QXYrpHZv6lip6bdNfRbqELruMGewEARAAARDQiMD1c+6jjLixGrVmbDOhgRGKj30X1x4mjsRvh2Jqx6aru5NeFU5NY2utHcYKNoIACIAACGhI4NqZ99KIpCkatmh8U7OylR375n2oB8u2Ga+gD3o0tWPzxd6X6Eil/fJg+OA5QZcgAAIgYCkC18z4KY1JnWl6m8aqsMEuUYhN69gcEJ7nygNvmv6hhAEgAAIgAALGEmCnZtyQ2cZ2qlNvCSqOfR8s326LGG+mdGx4nfDNLf+wxQDp9H8BzYIACICALQlcO+teyzg1PIAOP3/i9A9KCm/bKBF7baxeTOfY9MSrscsmKKs/gLAPBEAABIwiwBuFx6SYf/npdF7TM845/ZLLz3nl1j8dZTrHZu3B98hOx9ZcPp24AQIgAAIgoJjAjeJIt9k3CrsyNjNhnKtb/a4fLNve75rVLpjKsSmpzadle5Dc0moPIewBARAAAb0IOMhBty18iDJNeqRbCZeI4BgKCghRIkoFVXuprbNFkaxZhUzj2HR0tdPrIrklv6KAAAiAAAiAgDsCAY4gunPJY6YMvufOttPvK41C3NnVQfkVu0+vbqnPpnFsPt/7ApXVFVgKPowBARAAARDQh0BoUAT98JwnKC48RZ8OJGt1/JC5ijXi01FWLgFmMI5j1aw5+K4ZVIWOIAACIAACPibAOZ9uO+tvFBwQ5mNNjOs+JTpbcWdW32cj/YxNW0cLvbX1ERztVvzIQhAEQAAE7EtgaOwoumPxI7Zyani0g/yDKT48VdHAl9cXEqcjsmqR3rH5dM+zVNVYYlX+sAsEQAAEQEAjAhPS5tLN8x+gAEegRi2aq5kZ2ecqUpjDphwq36FI1oxCUjs2h0XW7o2HPzYjV+gMAiAAAiBgIIEzR11JV0//Mfn5Sf1nTVcio5KnKW7fyvtspN1jw0tQb299TPiV3YoHCoIgAAIgAAL2I3DFtLtp8tAF9jP8NIvVbJTGjM1p8Iz4uGzv81TdVGpEV+gDBEAABEDAhAQcDgfdsuAvcGpOjB2nV8hOmKhoJOvEHpuKhiJFsmYTknLOrqAql9Yf/tBsLKEvCIAACICAQQQiQmLox+c8RWkxIwzq0Rzd5GQuVqzoQYvus5HOseEAfM4lqG4sQSl+OiEIAiAAAjYikBE/ln645AniiLsofQlkx0/oe2GQT4ct6thIt8dmxf7XxfTY0UGGArdAAARAAATsSmD2sAvovAk3ik3CfnZFMKjdkaFxxEt0XV1dg8rxzcOVu5yhVKzGUqoZm7L6AlqZ96bbwYAACIAACICA/QhcPf1HdP7Em+DUDDL0fuRH41KVRSFubmugktrDg7RmzlvSODbdYunp3W3/JM5jgQICIAACIAACPQQ4gvBdix+jCWnzei7hdRACk4eeOcjdvrcOVVgvno00js3mI5+JrKO5fYnjEwiAAAiAgK0JcCThnyx9iuIjhtiagxrjmZnScrhil1JR08hJscemsbWWPtvznGmgQVEQAAEQAAH9CZwx/BI6Z/wNWHpSiTo8OJoC/YOovbPNbU3OxdjV3Ul8VNwqRYoZm092P03N7Q1WYQo7QAAEQAAEvCDgIAd9c86vaemEb8Gp8ZDj5HRlAQtbO5qpqOagh73IWc3njk1+5W7aXviVnHSgFQiAAAiAgKEEODP3j899ikYmTTW0X6t1Nn7IGYpNyrfYcpRPHRue/vpgx7+RNkHx4wdBEAABELAugZyMRXTXkscQn0aDIR4SPVxxK1bbZ+PTPTbrD39EpXVHFMOHIAiAAAiAgPUI8NLT12beQ2NTZ1nPOB9ZFBoUQXyarLWjya0GBVV7xYnkTvJ3WGOfjc9mbHjD8Je5L7kFDgEQAAEQAAHrEuDEjbz0BKdG+zGemnGWokY56fSxWuvss/GZY8NJLlva3XuSikYFQiAAAiAAAqYjMCv7fLpTxKdBagR9hk6Ns2ilfTY+cWyOiR3YWwo+12ck0SoIgAAIgIDUBAIcAfTtM35LF0y6WRwz9smfIan5aKVcavQwxU3xQR6rFMP32HSLrcIf7XzKmZ/CKhBhBwiAAAiAgDIC6bGjnUe5QwLDlFWAlMcEQgLDle+zqcy1TDwbw13l3UVr6IjYqIQCAiAAAiBgLwI8Q3PTmQ8QnBrjxn1K+kJFnfEm42KL5I0y1LHp6GpHhGFFjxiEQAAEQMA6BHiD8A/PfpJ4Tw0naUQxjoCafTYchdgKxVDHZv2hD6i6qdQK3GADCIAACICAAgJnjb7GmcAyJixRgTREtCagZp+NVRwbw/bYNLXV01f7X9d6zNAeCIAACICAhAQ4gvANc++juPBUCbWzj0oczyYoIIT4SLe7cqRyrzNgrtln1QybsVkhnJqW9kZ3XHEfBEAABEDA5ATOHvdNunvJ43BqJBnHSUPnK9Kkqa2OyusLFcnKLGSIY1PTVE4bRJRhFBAAARAAAesSSInOoh8v/Q/NH3m5SF5pyJ8X68LU0LKxqbMVt1YgZm3MXgxZivoi90XijcMoIAACIAAC1iPgcDjoipy7aULaPGwOlnB41eSNyhcbiKdnLZXQCuUq6e7YlNUV0I6jK5RrBEkQAAEQAAHTEGBn5tIp33fu4zCN0jZTNCw4itj57Orqcms5540ye9HdsflczNZ0dbuHaXaQ0B8EQAAE7EQgOjSBrpv1C+LlJxS5CfBm4DEps2nPsTVuFeWtI7XNFcTja9ai6yJoUc0Byi3eYFY20BsEQAAEQOA0ApyJ+5Ipt4m4NE/AqTmNjcwfJwyZo1i9gqpcxbIyCuo6Y/PF3hedR8dkNBw6gQAIgAAIqCMwJf0sunDSd7HspA6bFNJDY0cp1oM3EE8US4xmLbo5NoVV+yivbKtZuUBvEAABEACBEwR4uemaGffg+LaJn4io0HjF2mPGxgWqL/e97OIOLoMACIAACJiBAAd3+9r0n9CwxElmUBc6DkLA4edPabEjqKj6wCBSx2+V1uVTa0ezSKAZ6lZWRgFdZmx4tuZA2TYZ7YVOIAACIAACbgjwCZoLJ95COZlLyIF4NG5omef2pKFnKnJs+MDP0er9NDxxsnmM66WpLo7N8v2v9uoCb0EABEAABMxCgIPrLRx9NQX6B5tFZeipkEBW/HiFkkQ8QQHH5gSuYzUHKa90i2J4EAQBEAABEPA9Af42f8HEmyg0KNL3ykADXQjEhw9R3G6hiU9GaT5jwzmhUEAABEAABMxBYETSFHF8+/umjltiDtK+15KTYYYEhivK21golqK6u7tFagw/3yuuUgNNHZvy+qO0t2S9ShUgDgIgAAIgYDQBPv57ec6dlBCRZnTX6M+HBPgY98b8T9xqwEmrKxqOUmJkultZ2QQ0dWxWHXjL6eHJZiT0AQEQAAEQOE6Aj25fPvUuBNez6QMxMilHkWPDeHifja0dm7rmSuSEsul/FJgNAiAgPwH+A3VFzl00JGa4/MpCQ90IpMYMU9x2YfU+58k4xRUkEdRsxmbtofeps6tDErOgBgiAAAiAABNIjsygS3PuoLSYEQACAhQZEquYQmHVfsWyMglq4ti0djTR5iOfymQXdAEBEAABWxPgJadLp9yOGRpbPwX9jedAfezsltYX9L952pXyhkKx0bhJbDgOO+2O3B81cWw2H1nmNF5uU6EdCIAACFifQHrsaLp4yq2UHJVpfWNhoUcExqedQaW57h0bPhVVVJNnung2Xjs2HKFw/aEPPYKLSiAAAiAAAtoQ4E2h50+8keIjlMcq0aZntGI2AtkJExSrfLTaho7NvpINVN1UqhgSBEEABEAABLQjMCNrqYgU/DVVeye06x0tmZFAQsRQxWpzagWzFa9nbNYd+sBsNkNfEAABEDA1gQBHEJ09/ps0LWMJcdA1FBBQQyBMRXTpIjFjY7bilWNTWneEDlfsMpvN0BcEQAAETEkgMTJNLDfdTNkJE5Gc0pQjKIfSHE04I34sFVTudatQQ2sN1TSVUUxYkltZWQS8cmw25n8six3QAwRAAAQsS2B61tk0f8QVFBuebFkbYZixBMamzFTk2LBWvM/GFo5Na0czbS/8ytiRQG8gAAIgYBMC0aEJtHT8DTRG/AEK8A+yidUw0ygCGXFjFXdVVHOAJoiTVGYpHs/Y7Di6gti5QQEBEAABENCGgIMcNF1sBp474iKKC0/VplG0AgIDEFBzes5s+2w8dmw25SMg3wDPCi6BAAiAgGoCnOZg8djraJjYO+Pv8PjXsup+UcG+BEKDIhQbf6z2IHFoF4efQ3EdXwp69D+Ip6WKaw/5Um/0DQIgAAKmJhAWFEWLxlzjnOLn9yggYCQBP/IjzvCu5Dh3W0eLM9N3kohYbIbikWOzGbM1Zhhb6AgCICAZgQAxGzN72EViuekcsdSUIpl2UMduBEanzFDk2DCXouoDZFnHhj23nUWr7Db+sBcEQAAEPCLA+2amZCyiWcPOpxSR5sDPJNP5HhmLSqYikBE3RrG+x8RKzVTxHJuhqJ6x2X1sNTYNm2FkoSMIgIDPCDgcDhE872yalnk2cTJKTjyIAgKyEUiISFOsUlHNQcWyvhZU7dhsOfK5r3VG/yAAAiAgHQHeJzNn+EU0Ychc5zITZmakGyIodBqB8GDle7tK6/Kps6tTbG6X30lX5dhUNhZTQVXuaWjwEQRAAATsSWB40mSakXkuZSWMI2wAtuczYGareSYxJixRRBYud2tGe2cbldcXOmcg3Qr7WECVY7Ot4AvqFv9QQAAEQMCOBGLDkmlW9vk0MnmqM4s2lpjs+BRYy2YOAKk05yMf++alVdmLYsemu7ubth9FpGHZBxT6gQAIaEcgMiTWuU9mVPJ0So7KoED/YO0aR0sgIAGBzLhxyh0bsc8mJ2OxBFoProJixya/cpei6arBu8NdEAABEJCXAGfKnp55Do1Pm0vJkZnInC3vUEEzjQgkR2cqbqnYJBuIFTs2yAuleOwhCAIgYBICvLQ0JX0hDU+aImJ0pFNIYLhJNIeaIKANgaiQeMUNldQdMUUEYkWOTUdXO+0pXqvYeAiCAAiAgEwEOJbM0PjRNCo5h9JjR4v9MWkUERyNY9gyDRJ08QkBnqXk8ARdXV1u+2/vbDVFBGJFjs2+ko3U0t7k1mgIgAAIgIAvCQQHhFF2wgTKjB8rNjlmU1xYCoWHxFCQMzu2ny9VQ98gIC0BzvSdX7FbkX4ltfnSRyBW5NjsPLpSkcEQAgEQAAG9CXAqAo6YmioSRyZGDHUeVw0Xsy/BAaGYgdEbPtq3JIHhiVMUOzacJ3LS0DOl5uDWseGZmv1lW6Q2AsqBAAhYg0CAI4hSxUxLavQwSopKp1jhxESHJlC4CH4XHBhGnGuJRPI+FBAAAe0IDI0dqbgxnrGRvbh1bHJLNlCHCMyDAgIgAAKeEuB1/PjwIU5HJTY0UbwmO38ig+MoTEQ/DRFLSIFiuQjRej0ljHog4DmB+PBUxZVL6g4rlvWVoFvHZlfRal/phn5BAAQkIhAaFEExoUnOGRSO7xIZEke8BBQeFE2hQeHOE0W8xyUoIFjMrIgf/0Dn0pADSR8lGkWoAgL9CYQHx/S/6OJKY2sd1bdUOf//uxDx+eVBHZvm9gY6WL7N50pCARAAAfUE+CRQaFAkRYjNs/zDDgg7InwtLDDC6Yjw8Wbem8IzKkH+Ic4AdOyQ+DvEjwi37hB5YXgWxQ/LP+oHADVAwCQEeLaUl3k7ujoUaczHvvmLjaxlUMeGT0N1KjRUVgOhFwiYmQD/sokWSzfRIp8Lx5uICuVZEnZSopy5idgxCRF7T9gx4ai4AeyQiDrHZ0mwF8XMYw/dQcBIAhnx4+hQ+Q5FXZYKx2Zk0lRFsr4QGtSx2X0MsWt8MSjo07oEOF5EbGgyJUSmUaw4ihwjnJbezgo7KsedlCAxWxKAmRLrPgqwDASkIpAlwiSocWykUv40ZVw6Nq0dzWIZavtp4vgIAiAwGAHee5IWM9KZKC5BBIGLCUsSU7axFCqWfthhQdLEwejhHgiAgK8IDBEnEZUWnrGRubh0bPJKN+M0lMwjB918SoBD8Y8QYfgzRCA4zinER5J5SQinenw6LOgcBEDAQwLxEcpPRlU0FInUCp3SflFz6djsLV7vIR5UAwHrEOBNdSOTcmhY4iQaIgLC8fIRnw7CSR/rjDEsAQEQIIoMjlWMgUPAVDWWEM9Ky1gGdGx4w3AegvLJOF7QSUcC7MSMSZlFI0U+IXZieBkpSGzIRQEBEAABqxMIFEvlakpZfaG5HJv8yt3IDaVmhCFrSgIcmn/y0IXOJaVEZ2bnMFPaAaVBAARAwFsCHNIhURxqKK8vUtRUWV0BjUudrUjWaKEBZ2xyizcYrQf6AwHdCXAcl5nZ59LolBkiiVu6CCAXpHuf6AAEQAAEzEIgO36SYsemXMzYyFoGdGz2lW6SVV/oBQKKCXCAujFDZlNOxiJKjxvtPJmkuDIEQQAEQMBmBNJihxPlKzO6vOGoMkEfSPVzbMrqC6imqcwHqqBLEPCeQJgIXDd72AU0fsgcihcb27DJ13umaAEEQMAeBBIihyo2tLLhGHV3d4uToPIFAu3n2OwvRSZvxSMLQSkI8NHreSMvExt/Z0gd5lsKWFACBEAABFwQ4LAVSku7OBnFkyCc0Fa20s+xyYNjI9sYQZ8BCPB/wIWjrxbOzExn/qMBRHAJBEAABEBABYGwwEgV0kS8HCW9Y8PRhguq9qoyDMIgYBQBPo49f9SVlJO+SKQhiDeqW/QDAiAAArYgwAcqeG9il/inpHCgvlHJ05SIGirTZ8bmcMUuJL00FD86U0JgeNJkWjzmOpGqYISU67lKbIAMCIAACJiBQFJ0BpXU5itSlffZyFj6ODYHy7bKqCN0siEBzmq9YPTXaEbWUpHFWt30qA1xwWQQAAEQ0IRAZtw4xY5NhRkcmwNIeqnJg4FGPCfAQfPOn3iTM2geEkZ6zhE1QQAEtCXQ3d1li1xwKdFZisFViqUoGcvJGZva5nKSdVpJRnDQSVsCHDTvnHHfFJEv07VtGK2BAAiAgJcEGlvrxCGFKC9bMUd1Nfmf6luqqa2zRaSeUZeOQW8SJx2bQ+U79O4L7YNAPwLzRlxGZ4y41Da/NPoBwAUQAAHpCVQ1Fdvmd5Sagxnd1E1VDSWkZpbHiME+5dhU7DSiP/QBAhTgCKKlE24QEYEXUyCSTOKJAAEQkJgA//Gubaqg9NjREmupnWoc5FRNqWosltexOVwOx0bNYEJWPYGQwHC6aPItIirwXBER2F99A6gBAiAAAgYTqBBJIRNVROQ1WD3NuwtS+WWzUjg2shXnjA0rVtdSJZtu0MciBDj55KVTv++Md+Dn57CIVTADBEDADgTWHnqXzh3/HTuY6rSRf0fzl9CW9kZFNlc3liiSM1LI6djki/g1KCCgNQF2aC7LuYNGJuUg/ozWcNEeCICA7gQ6uzpoe+FXdPHk23TvS6YOeNktr2yLIpWqpHVsKvcoMgBCIKCEQGhQBF025Q7ik04yJkhTYgNkQAAEQOCgCIEyJmWW7UCkxmQrd2yaSqXj45yxOQLHRrqBMaNCvCn4kim30qShZ9oi3oMZxwg6gwAIKCfw2e5nRRqXK5RXsIhkYoTyLN91zRUiY0En+Tvk2TcZUNdc6czQaZHxgBk+InC2iEEzd/jF4uE+edDOR5qgWxAAARDwngD/bSytL6ChsSO9b8xkLahJbNklAhdyHDwOripLCSioypVFF+hhQgKT0xfQBRO/KzabhZlQe6gMAiAAAgMTWHvofeeN6NDEgQUsfDUyOE6VdTVNZXI5NoVwbFQNIISPE+AIwdfO/BnFRwwBEhAAARCwFAHeNLz2wLvimHeaLWeheZ+kmsKOjUwloLB6n0z6QBfJCXByyityfkDj0uaQn/iHAgIgAAJWI7C/dBN1iX9T0hdZzTRF9qhNkVAtm2NTXHtYkaEQAgHeFHzJlNsQLRiPAgiAgKUJfLjzKad9wxMnW9pOV8Y5xEZgh/jHzp2SUiP22MhUAnjKDQUEBiPA05LfnP1rW26iG4wL7oEACFiPQFldgdgMW+E0zE4Rh08fyXixDFdeX3j65QE/1zZJ5tgMqCUugsAJAtMyl9CFk26x5TozHgIQAAH7Efhk9zNOo2PCEm09O50ana3csTnhCMrytOBsriwjIZkegf5BdP3c+ykzbqxkmkEdEAABENCHQGNr7cnAdNMyz9GnE5O0mqAiP1ZdSwV1d3dLE5AVjo1JHjIj1cyKH0/fmP1LCgoIMbJb9AUCIAACPiWwMu/Nk/2PTp5+8r0d38SFJSs2mwP0NbRWU2SIumPiijtQKQjHRiUwq4svGXcdzR95BU48WX2gYR8IgEAfAu2drbTm4Lsnr/FRbzuX6NAEVebXioCGcGxUIYOw3gT4GPe35/2eOPkZCgiAAAjYjcCmI5+dNHlIzHCxrzDw5Gc7vokIjlFldl1LpZCXI0ozZmxUDZ01hTnY3k3z/0ihgeqCMlmTBqwCARCwG4EusZTy2YlNw2z7rOzz7Iagn70hKv8ecAoKWQocG1lGwkd65GQsoYtF4kqHn8NHGqBbEAABEPAtgZ3HVlFHr9AnwxOn+FYhCXoPCghWpcXxGRtVVXQThmOjG1r5G7485y4RWXOh/IpCQxAAARDQiUC3SOL4/vYnT7Ye4AiiyFA5NsGeVMoHbwJULsXVt1T5QMuBu4RjMzAXS1/lo9y3nPkXSorKsLSdMA4EQAAE3BHILdlArR1NJ8WmZ52DwxOChp+Yxee9l71nsk5CGuBNfbM8jg3WHwYYICtfig9PpZ8s/S+cGisPMmwDARBQRIBna97e9lgf2cnpC/p8tvOH+HDlSY7rxXFvWQocG1lGwgA9RiZPo9sXPUwhgeEG9IYuQAAEQEBuAvtKNlFzW0MfJVOisvp8tvOHxKihis2vb5HHscFSlOJhM7fg3OEX09IJ38IUq7mHEdqDAAhoRIBna97a9kif1kanTEf6mF5E4sQMv9LS0t5I7Z1tIg1FkNIqusnBsdENrTwNXzT5ezQja6k8CkETEAABEPAxgb3F6/vN1szKvsDHWsnVfXRooiqFGltrKCYsSVUdPYTh2OhBVaI2bxD5noYnTpZII6gCAiAAAr4l0MWzNVsf7adERjxy4/WGEhUa3/uj2/cNcGzcMoKAFwQcDgfduuBvlByV6UUrqAoCIAAC1iOw4+hXfU5CsYUZcWMoyF9d7BbrkelrUXhQdN8Lbj41iCSiMhTM2MgwChrrwMkr71j0CKnN9aGxGmgOBEAABKQj0CkC8b277V/99Jo/8vJ+1+x+ISxIXTR6XoqSocCxkWEUNNQhVDyIdy56jMKDozRsFU2BAAiAgDUIrD34nojN0tbPmOyEif2u2f1CUECoKgSNmLFRxQvCCghEhsQ6Z2pwnFsBLIiAAAjYjkBbRwst2/N8P7uz4scTz3Sj9CUQ5K+OSWNbXd8GfPQJMzY+Aq91t1Eh8XTH4kcoWKWHrbUeaA8EQAAEZCXw6e5nqUv8O72cOerK0y/hsyDgLyIPqymYsVFDC7KDEmCn5s7Fj+Ibx6CUcBMEQMDOBOpELqMN+R8NiCArYfyA1+1+0eHwV4Wgqa1elbxewog8rBdZg9p1Lj+JmRpMoxoEHN2AAAiYksCbW/4xoN4T0uaKnEiBA96z+0U/EdLVIf4pLU2SLEUp11ipZZAzjEBYUJRzTw2WnwxDjo5AAARMSKCo5gAdKt8xoOZnjLhswOu4eJxAeIjyI9+YscFT4xWBniPd2CjsFUZUBgEQsDiB7u5uemXjnwe0krNXD4keNuA9XDxOQE304WYsReGx8ZQAB9+7/ayHcaTbU4CoBwIgYBsCO4pWUE1T+YD2zhOxa/z8sHAxIJwTFyOCYwa73ecenzrr7Orsc80XHzCivqDuZZ+3nPmgyMehLoeHl12iOgiAAAiYjkB7Z6tInfCwS72nZ57j8h5uHCcQoWIpqpu6iZNh+rrAsfH1CKjs/9pZ91JqdLbKWhAHARAAAfsR+GjXU9TV1f94N5OIF5mr1eZCsh9BIt7Lqaa0dMCxUcPL9rJnj7uexqTMtD0HAAABEAABdwSqGotpU/5nLsXOGX+Dy3u4cYpASED4qQ8K3mHGRgEkiBwnMDFtPs0fid37eB5AAARAwB0BXhJ5Yf0Dg4qNTM4Z9D5uHicQHBimCkVrR7MqeT2EsRSlB1WN20yMTKcrpt2tcatoDgRAAASsSWDn0ZVUXl/o0rgZWUsRu8Ylnb431IYTaYNj0xcgPvUnEOAIopvnP0AO7NzvDwdXQAAEQOA0Anwy582tAwfj6xGdh9g1PSjcvqrNF4UZG7dIIXDj/D8QYtXgOQABEAABZQTe3vaIyw3D3EJ8RBrFhicrawxSFBgQrIpCu3AsfV2wFOXrERik/yXjrqO0mBGDSOAWCIAACIBAD4Gj1Xm0q2hNz8cBX8+b8O0Br+PiwATUpptoE0fsfV3g2Ph6BFz0nxE3RmwWvsLFXVwGARAAARDoTaBLBIZ7ft3ve1/q954jDY9ImtLvOi64JuCvMo9We2eb68YMugPHxiDQaroJ9A+i6+fcJ9KP+ampBlkQAAEQsC2Bz/Y+T+6SMC4c8zWxX1FdxmrbAj1huL9wBtWUDszYqMFlH9lvnfFbZOu2z3DDUhAAAS8JVDYco9UH3nbbyoysc93KQKAvAX+HOkewo6u9bwM++IQZGx9AH6zLM4ZfQumxowcTwT0QAAEQAIETBLq7u+iZtfe75TFuyFwKDYxwKweBvgTUznB1dMKx6UvQ5p9iw5Lp7PHX25wCzAcBEAAB5QS+2v+6yySXvVs5WxzGQFFPQG2okU7M2KiHbOUa3573O8SrsfIAwzYQAAFNCVQ1ltAXuS+5bTM5KlPkhhriVg4C/Qn4kbqFnc5uZPfuT9GmV86beCPFhCJjt02HH2aDAAioJMBLUE+v+bWiWhdN/p4iOQj1J+Dnp+4QSxccm/4Q7XiFv03MHnaBHU2HzSAAAiDgEYEvcl9WtAQVERJD6XHYt+gRZGcllY6NOHbv66JujsnX2lq0/+vn/BpHuy06tjALBEBAewJlIg/UV/tfU9TwxZNuxe9XRaS0EeoSM2m+LnBsfDwC54oomJEhcT7WAt2DAAiAgDkIdHZ10P9W/UqRskEBITQqZboiWQhZhwAcGx+OJZ+CmjPsQh9qgK5BAARAwFwE3t/xBDW21SpS+oKJN+FAhiJS2gl1U7d2jXnYEhwbD8FpUe2bc35FfsjarQVKtAECIGADAvmVu2nzkWWKLOX0CZOGLlAkC6HBCPjeURlMu4HuwbEZiIoB12ZkLaUEkWUWBQRAAARAwD2BNpE1+tk1v3UveEJiqVjmV5sOQHHjNhKUYc+MWtxwbNQS00A+wBFE5034jgYtoQkQAAEQsAOBbnp+/e+po0tZgkWHw0HTMs+2AxjdbewmdZuBZchxCMdG98eifwdXTrubAkSiSxQQAAEQAAH3BDbmf0L5FbvdC56QOGfcDRSgMiu14sZtJtjdrW4pSm2kYj1wwrHRg+ogbcaL5aexQ2YPIoFbIAACIAACPQQ4uvB725/o+ej2lWdrZmaf51YOAsoIdKmMSyPDvlE4NsrGVjOpr8+4BzEVNKOJhkAABKxMgI92/2fVvapMXDr+25itUUVscOHO7o7BBU67qzZp5mnVNfkIx0YTjMoaGS3iKSRFZSgThhQIgAAI2JzAG1seooaWGsUU+CTUzKxzFctD0D2BTpUzNjJs2IZj435cNZO4ZMr3NWsLDYEACICAlQnsOLqCdhWtUWXi+RNvxkkoVcTcC3eozNYNx8Y9U8tIzMw6jyKCYyxjDwwBARAAAb0I1DSV0eubH1LVPEcZzslcrKoOhN0T6OhUdhKtpyUZNm1jxqZnNHR+PXv8N3TuAc2DAAiAgPkJ8AzBE1/do9qQS6fcLqIM+6uuhwqDE2jvbB1c4LS7cGxOA2LVjwtGXUXBAWFWNQ92gQAIgIBmBF7a8CfFKRN6Og0PiqbxQ+b0fMSrhgTaOltUtSZDKBPM2KgaMs+E54+83LOKqAUCIAACNiKw+sDblFe6WbXFV834EdLTqKamrEJbR7MywRNSgRLEaINjo2rI1AvzbA2v/aKAAAiAAAi4JnC0ej99svsZ1wIu7iRGptOwhAku7uKytwRa2ptUNREowd87ODaqhky98LyRl6qvhBogAAIgYCMCTW319N9Vv/DI4qun/0jU8/OoLiq5J9Dc1uBeqJdEkL/vv8jDsek1IFq/5ZNQ2FujNVW0BwIgYCUCHNn2yRX3iDxQ6gLBMYORSTmUHJVpJRzS2cJOp5oiwwoFHBs1I6ZSduGYq1XWgDgIgAAI2IvAK5v+Qpw2wZNyWc4dnlRDHRUEGtuUB0jkZoMDQlW0ro8oHBt9uDq/SSBujU5w0SwIgIAlCKzIe532Fq/3yJYzhl+C2GAekVNXqb6lWlUFODaqcJlLeOn4G8ylMLQFARAAAQMJHCzfTsv2vOBRj5w6YfHYaz2qi0rqCNQ2VaiqEBIYrkpeD2HM2OhANTo0ATmhdOCKJkEABKyhqgiuAABAAElEQVRBgCMLP7fmtx4bc+nUO0iGeCkeG2Ciio1ttaq0hWOjCpd5hM8V2WVRQAAEQAAE+hNoFXFRHl/+Q+oS/zwpMWGJNDFtvidVUUclge7ubpU1iODYqEZmjgqjU2eYQ1FoCQIgAAIGEujq5hNQP6WW9kaPe7125s9FMD4c7/YYoIqKPF5qSqB/MCGlghpiJpGdkbVUioE1CS6oCQIgYBMC3dRNL234PyqvL/TY4nGpsyklOsvj+qiojoDazN6hQRHqOtBJGntsNAZ7xohLNG4RzYEACICA+Ql8uusZ2leyyWNDHOSgS6fe7nF9VFRPQG0CzLCgSPWd6FADjo2GUCNDYikuPFXDFtEUCIAACJifwMb8T2j1wXe8MuT8STdJsX/DKyNMVrlVZTqFsKAoKSyEY6PhMCwZe52GraEpEAABEDA/AT7W/d72f3llCJ805WV+FGMJNLWrizocDsfG2AEyorexYv0XBQRAAARA4DgB3k/zzJr7vcbxjdm/RPZurymqb6CxRd1R7/DgGPWd6FADMzYaQU2PHY1pUo1YohkQAAHzE2horaZ/imPd3pYp6QuRD8pbiB7Wr2upVFUzIjhalbxewnBsNCK7YPRVGrWEZkAABEDA3ARaO5rokS/u9CixZW/LOcLwRZO/1/sS3htIoFoEUlRTZEkjBMdGzagNIpudMGGQu7gFAiAAAvYgwEeEH//yh9Tc1uC1wVfP+AlxbBQU3xCobDimquMIcYBGhgLHRoNRGJ40Gf/5NOCIJkAABMxNgAO6/XvFz6i6qdRrQzLix9KYlJlet4MGPCdQWndEVWU+GSxDgWOjwSjMFVlmUUAABEDAzgQ4/P5z635HxbWHNMFw7cyfadIOGvGcgFoHNTIkzvPONKwJx0YDmJnx4zRoBU2AAAiAgDkJcFTh1zY/SAfLtmtiwEWTbyFZYqJoYpAJG+ns6lCltcPPIc2YwbFRNXT9hYfEDKcgrAH3B4MrIAACtiHw/vYnaFfRGk3sTYxMp+mIWaMJS28aURt12N8RSOzcyFDk0EIGEh7qMHf4xR7WRDUQAAEQMD+BT3Y/QxxZWKtyw5z7yE/8Q/EtgeZ2dZu/edZOlgLHxsuRGJY4ycsWUB0EQAAEzElg+f7XaPWBtzVTfun4GygqNF6z9tCQ5wQaWmpUVZZltoaVhmOjauj6CocEhpMs5/b7aoZPIAACIKAvgTUH36Uv9r6oWSfxEWmEgxia4fS6IbUbh4P8Q7zuU6sG4Nh4QRK5S7yAh6ogAAKmJbDh8Ef08a7/aar/t+beL9ImYAlKU6heNFbRUKSqdnBgmCp5PYXh2HhBF7mhvICHqiAAAqYksKXgc3p/x5Oa6n7exO8QJ7pEkYeA2mP7YYGR0igPx8aLoUiOyvCiNqqCAAiAgLkIbCtcTm9vfVRTpZOjMmn2sAs1bRONeU+gsGq/qkZkiTrMSsOxUTV0p4Rjw5IRbfgUDrwDARCwOIHtR7+iN7f8Q3Mrb+AlKJyC0pyrNw12d3dRU1udqiZiJJpxg2OjauhOCU/NXHzqA96BAAiAgIUJsFPzxua/a27hFTl34QCG5lS9b7Cts1V1I3ERqarr6FUhQK+Grd7uiMQpVjcR9oEACIAAbRfLT2/oMFPDoTImpy8EYQkJNLWqm61hE5JEYEVZChwbD0ciMXKohzVRDQRAAATMQWCr2Cj8lsZ7atjyAEcQXTvzXnNAsKGWNc1lqq1OFVH4ZSlwbDwYiaCAEAoOCPWgJqqAAAiAgDkIcDTh97b/Sxdlr597H/HvURQ5CZTVF6pSjI/phwTIc9wbjo2q4TsuPC51jge1UAUEQAAEzEFg7aH36aOdT+miLMf/ykLiYF3YatVoUXWeqqYCxQycTAWOjQejMSo5x4NaqAICIAAC8hNYmfcmfbbnOV0UjQlLpAsm3axL22hUOwKHyneqaoyj8MtU4Nh4MBqp0cM8qIUqIAACICA3gWV7X6AV+1/XTckb5/1RZID21619NOw9AT7qXddSqaohmWLYsOJwbFQN33FhJGnzABqqgAAISEygmz4US0/rDn2gm46X59yJ6MK60dWu4daOZtWNxYYnq66jZwU4Nirp8m7+QP9glbUgDgIgAAJyEuimbnpry8PEUYX1KqNTZtCU9LP0ah7takigrlndbA13nRQpVxR+ODYqH4jsxIkqa0AcBEAABOQkwMsOL234E+WWbNBNwdCgCPrajJ/o1j4a1pZAef1R1Q0OjR2puo6eFeDYqKSbHT9eZQ2IgwAIgIB8BDq7OuiZNfdTfuVuXZW7ef7/ibg1gbr2gca1I3C0Wl2OKO45M26cdgpo0BIcG5UQU2OwcVglMoiDAAhIRqCjs42eWHEPldYd0VWziybfQgkRabr2gca1JbC/bIuqBh0Of+liEsGxUTWERJz8EgUEQAAEzEqgtaOJHvvybqppKtfVhNEp02lG1rm69oHGtSXQ3d1N5SqD84UEyHXUm4nAsVH5XIQHR6usAXEQAAEQkINAQ2sNPfrFXaozN6vVPjwoWuyruUdtNcj7mEBLR6NqDaIlyurdozwcmx4SCl+D/BEGXCEqiIEACEhEoLLhmJip+QF1dLXprtUtC/6MfTW6U9a+g5om9TmikiTMmwjHRsWzERUST5wTAwUEQAAEzETgSNVe+t/KX1KX+Kd3uWr6DykmLEnvbtC+DgSO1RxU3Wpa7CjVdfSuAMdGBeGM+LEqpCEKAiAAAr4nsOPoCnp980OGKJKTsYQmps03pC90oj2BvFJ1G4dZg5FJU7RXxMsW4dioAJgana1CGqIgAAIg4FsCX+a+Ql/ue9kQJRIj0+niKbca0hc60YfAfpWOjZ+fg+IlPPUGx0bF8xEfPkSFNERBAARAwDcEOPDeG1v+QTxbY0ThiOw3z39A5IFyGNEd+tCBAKdSULv/Srbklz1Y4Nj0kFDwihxRCiBBBARAwKcEOEbNf1f/ijwJtOap4jfN/yPJ+kfOU5vsVo83l6stsZLupYJjo2Ikw4OjVEhDFARAAASMJcDHuR9f/gNqaKkxrOMLJ32XhsQMN6w/dKQPgSNVe1Q3nBotZ8BaODYqhjIkIEyFNERBAARAwDgCRTUH6KmV94rlhA7DOuWNwjOzzzOsP3SkHwFPli2HJ07STyEvWoZjowIesnqrgAVREAABwwhsKfic3t76qGH9cUeJkWl0xbS7DO0TnelDoEvsySqqPqC68VHJ01XXMaICHBsVlB0O4FKBC6IgAAI6E+AQ+O/veII25n+ic099mw/0583Cfxabhf373sAnUxKoa65QrTd/0Q8KkDNgLf5SqxhO7PhXAQuiIAACuhJo62ylp1f/2tBNwj0GfW/BX8VmYSzN9/Aw+2tBVa5qE2IkTKXQYwQcmx4Sbl75OCMKCIAACMhAoLqxlP614sfU3NZguDpfn/lTsQw11PB+0aF+BLZ7EBZgSMwI/RTysmU4NgoBRoQg+aVCVBADARDQkcCeY+vo5Y1/0rEH100vHH01jU2d7VoAd0xHgGMeHSzdqlrvUSnTVNcxqkKAH/lRt/iHMjiBsCAc9R6cEO6CAAjoSYD/AH2067+07tAHenbjsu1xwqFZNOYal/dxw5wEasX+Gk9yiI1JniWtwQGx4SlU1VgsrYKyKBaMo96yDAX0AAHbEeCosP9d9Usqrj3kE9tTorPo6hk/EX0jCbBPBkDHTg9X7FTdenBAKAUGyLs9IyA9bhQcGwXDGhQQrEAKIiAAAiCgLQF2Zv4j4tO0i4jCvijhQdHiBNT/IV2CL+Ab0OfG/E9V95IgYX6o3kY40mNH9/6M9y4I+PthO5ILNLgMAiCgC4FuWnPwXfrn8h/5zKnhQxPfX/R3QgwvXQbY5412drV7dKouK2GCz3UfTIGAjLgxg93HvRMEHA4kd8PDAAIgYAwBzvf0woY/0sGy7cZ06KKXWxc+SBHBMS7u4rLZCZTVF3pkwuShCzyqZ1SlgKSoTOL9I60dTUb1iX5AAARAAARcECivP0r/WXWvT45y91bpW3N/I451p/e+hPcWI7D72BrVFjkc/sR7rmQuDg46lxGH5Sh3g9TZ1elOBPdBAARAwAsC3bT+8If0yBd3+NypuTznThomaR4gLwCj6mkE1h/66LQr7j/GhCa6F/KxhHPjSGb8OMorU3+O3ce6G9q9kYnlDDUMnYEACPicQLuIIvzC+j/SofIdPtdl8djraEr6WT7XAwroS6C+pdqjlRozbF854diM15egBVpv72ixgBUwAQRAQDYCx2oO0n9X/5LaJPgdMyv7fFow6krZEEEfHQgcKNviUauTJN9fw0Y5HZuhsSOdu975WwPKwASa240PXT6wJrgKAiBgBQKcwPLLfS/T8n2vSmHOhLR5dP6km6TQBUroT2DVgXdUd+Intq6MSJqiup7RFZyOjb/IWs3TSwfLfbsD32jj1fTX1FanRhyyIAACIOCSAP8++Z9IYFlad8SljJE3hidNpqum/VCE30MAPiO5+6ovPixU7sGJqOjQeF+prKrfk2eYsyU/l67KKh2EG9tqdWgVTYIACNiNwN7idfTnj74tjVMzNHYUfXP2r8jPD06NXZ7Fw+W7PDI1K94c21acMzZsYTbvgN/7gkfG2qFSV1eXM6cWvtHYYbRhIwhoT4Bj07y++SHaIxwbWUpyZAbdOO8PIqqwvywqQQ8DCKw68JZHveRkLPGontGVTjo2aTHDKSQwjFraEc/G1SBwEjo//AJwhQfXQQAEXBAoqjlAT6++z6NTKC6a9PpynMgTeMuCvxBvRUCxDwHepF5QlavaYHZ+sxJMNmPDSmcnTKS9xetVG2yXCnzkO8gf32zsMt6wEwS8JdDV3Umf7H6G1h58z9umNK0fHZpAt531dwrwlzeRoaYGo7GTBA5XerYMFS8cYbOUk3tsWOHhiZPNordP9MSRb59gR6cgYEoClY3H6G+f3iKdUxMZEkt3LHpYfElDYl9TPlheKr1i3+setTAyZZpH9XxRqc8c5Iikqb7QwTR9trQ3UnhwtGn0haIgAALGE+Al6xV5b9LnEu5Z5Ezddy56lIICQo0Hgx59ToBPQxVW7/NID45xZJbSx7HhNde48FSqaiw2i/6G6tnQWkPxEUMM7ROdgQAImIdAbXMFPb3mfqpsKJJOaXZq7lryGAWLvZQo9iSwv3SzR4YHC0c4NizZo7q+qNRnKYoVGIlZG5fjUNNc7vIeboAACNiXAAfbW3PgXfrrpzdL6dSEBUU5nZqQwHD7DhIspy9yX/GIQlrMCI/q+apSf8cmOcdXukjfL2fdRQEBEACB3gR4lubRL++gj3f/r/dlad7zTM3dSx4Xp17h1EgzKD5QhFccPJ1JnJqx2Acae95ln6UoboZPRgWKTWVIr9Af6jFxZBMFBEAABJgAz9KsPvA2fbrnWWmBRITEOPfUwKmRdogMU2xbwZce9cVpFCamz/eorq8q9XNsAsXxv2GJE2lfySZf6SRtv56c/ZfWGCgGAiDgMYHqxlJ6Zu39Yj9iicdt6F0xKiSe7lj8MAUHYE+N3qxlb79bhJddvt+znGR8zNsh/pmp9HNsWPnRydPh2AwwihzYiONSIErnAHBwCQRsQKBLnHhavu8VaRJXukIeE5ZIt58ljnQHhLgSwXUbESitPeJx9vhxQ+aajtSAjs2olOnkt93PmULAdBbprHBzGx/5jtK5FzQPAiAgG4GS2nx6bt1vqb6lWjbV+ugTH5FGty38q3NLQZ8b+GBbAivyXvPY9jnDL/S4rq8qDujY8BTmEJFigcOAo/QlUCtORsGx6csEn0DAygQ6utrpw53/pk35n0lvZkp0Fn33zD9TgCNQel2hoDEE2jpbaVfRGo86iwiOId58brYyoGPDRoxJnQXHZoDRLKnLdzp9A9zCJRAAAYsROFS+g17c8IDH0/hG4siIG0PfPuN3yP1kJHQT9LX32FqPtRyZbJ5ow72NdLkjaJxwbFD6E8iv8CzPRv+WcAUEQEBWAq0dzfTC+j+IYHv3mcKpGZmUQ98RWbqR0FLWJ8pXenXTJ3ue8bjzM0de5nFdX1Z0OWOTGJlOCWKttkLCCJq+BJZbstGX3aNvEAABXQl0086iVfTGlr9TV1eXrj1p1fjEtPl05bQfkJ+fn1ZNoh2LECirK6SGlhqPrAkJjBCR9tM8quvrSi4dG1ZsXOpskfPkDV/rKFX/nC+qo7MNWXGlGhUoAwLeE+DI4i+u/yPxJmGzlNnDLqDzJ94o1IVTY5YxM1LPz3Nf9Li7EUnmTYrtcimKaYw34TEvj0dRRUWONIoCAiBgDQKdXR306e5nRSbu75rKqVk09lrh1NwkBgFOjTWeRG2taGlvor3F6z1u9MyRV3pc19cVB52xSY0ZRrHhycTBqFBOEeDTYkiGeYoH3oGAWQlwUsBXNz1oin00vRlfMuX7NC1zSe9LeA8CfQhsObKsz2c1H0JEolQ+YWfWMuiMDRs1YcgZZrVNN733eOEF66YUGgYBEFBMoKqxmB5f/gN6ft3vTefUfGP2L+HUKB5pewpyINlle1/w2PgRJk+GPeiMDVOZkHYGrcx702NAVqy4v2SDMKtb/GAK2IrjC5usS6BVTM9/IGLSbCtcbjojHQ4H3XLmXyg1epjpdIfCxhLgmciOrjaPO10w+mqP68pQ0a1jw/+JeNmlsuGYDPpKoUOHWJNvbK1HoD4pRgNKgIB7AryPZu3B96ROWDmYFZzv6fZF/6Do0ITBxHAPBASBbnp/+5MekwgNiqTkyAyP68tQ0e1SFCs5MW2eDLpKpcOxWkRllmpAoAwIDECAM3DvFlFX//jhdaZ1ajjv04/OeRJOzQDji0v9CRRW76e6lsr+NxReGZsyU6GkvGKKHJtJQ8+U1wIfaba7aLWPeka3IAACSggcFsE0H/z0Rnpl01+oXYRoMGMZGjuK7lz8GIUEhptRfejsAwLvbvunV72eNeYar+rLUNntUhQryYH6OHfUsZqDMugshQ47jq6gS6beLnbZYJ+NFAMCJUDgBAH+PfXGloeovL7I1EwmiJnyq5yB9xR9/zS1rVBeGwKldUeIfzwtUaHxlpgZVOTYMCSetYFjc+px4X029S1VxAlDUUAABHxPoKy+kN7a+jAVVZt/mXih2Ly5aMzXfQ8VGpiKwDvbHvdK3ynpZ3lVX5bKqhwbDmLFx8hQjhM4XL6TJqcvBA4QAAEfEuC0L29ve4wKKvf6UAvtuub0CFj+146nXVoqqy+go2J/jaeFVx8WjLzK0+pS1VPs2HD68uEixHJe6RapDPClMusOfwDHxpcDgL5tTYAdGt5PkF+52xIc+Dj3zfP/RGkxIyxhD4wwlsBbWx/xqsPk6EwKDAjyqg1ZKit2bFhhnqaCY3Nq6HjKu72zlQL9g09dxDsQAAFdCfA3U3ZoCqpyde3HyMbDg6LptrMeosiQWCO7RV8WIVBce8jrJdh5I8yZyXugIVTl2IxNneXcnc+JIFGOE+D0Clnx44EDBEBAZwK8x4/3EPAvcSsVPphx47w/4AuSlQbVYFte3/x3r3oM8A+y1PKnKscmwBEojJ9PGw5/7BVEK1VmFnBsrDSisEUmAt0i2NgRsXeGHZpKsfRktTI5fQFdPvVO8vPDySerja1R9nBYg3Kxcd6bMjIpx5vq0tVV5diw9jkZS+DY9BrGXUWr6Mppd5PDz7/XVbwFARDwhkBXdxftK9lI7+34FzW01HjTlLR1zx73TZo/8nJp9YNi8hPoFv9PXtv8V68VPWf89V63IVMDqh0bnjblNAtWmw72ZlB4ipwDaaGAAAh4R6BDBNLbWvgFfbzrf6YNqqeEwDfn/Iqs9i1Zid2Q0ZbAjqKVXjv+nKYjPjxVW8V83Jpqx4b1nZ51Dr23/V8+Vl2e7tcd+kDM2sCxkWdEoInZCDS11dHqA+/Q6ry3qUv8s2rhCMK3LvgrxYYnW9VE2GUQgY6udnpn66Ne9zZ72AVetyFbAx45NrzP5pPdT1NbR4ts9vhEH45CfNnUO8jf4RFOn+iMTkFABgJ8ZJvjY+WWbJBBHV114Nnu75zxewoKCNG1HzRuDwJf7H1JZPDu8MpYf4c/zRlxsVdtyFjZo7/EnGl28tAFtDH/Exlt8olOR6r20rCEiT7pG52CgJkI8L6AQxU76f0d/7bkhuCBxmJm1nl0waSbsEl4IDi4pppAfUs1rTrwlup6p1fIFn+zHOKf1YpHjg1DmJF1LhybXk/D8txXaNg8ODa9kOAtCPQh0NrRTFsLvqDP9jxr6f0zfYwWH66ZcQ+NGzLn9Mv4DAIeE3htk/cbhrnzpeO/5bEOMlf02LFJic6izPhx4ijmHpntM0w3jn7K8X2Qhdcw5OjIJAQqG4/R8n2v0vbCr0yisTZqRoTE0Hfn/5liwhK1aRCtgIAgcFjMdmoRbZsTXiZHZVqSqceODdOYlX0+HJtejwXvtZmZfV6vK3gLAvYkwDnlDpRto492PkWVjcW2gzA6ZYaYqfmJ2HcXaDvbYbB+BDrFnpqXNvxJkw7mDL9Ik3ZkbMQrx2Zs6mxir6+uuVJG2wzXadneF5xLdH5+fob3jQ5BQAYCDa01Is7VR7Qi73Xq6rLu6abBWF8y5Taalnn2YCK4BwIeEfgi9yXnyoBHlXtVYocbjk0vIL3f8o5qnrX5bM9zvS/b9j0vRRVW76OMuDG2ZQDD7UeANwMfEXmbPt39jFfZhc1Ojpeebpr3AMWFp5jdFOgvIYGapjJamfemJpqNTZ1pyU3DPXC8mrHhRqZnnuNcP+dkkChEH4iTHrcu1GZjF3iCgMwEGltraXPBZ7Q89zVx7LRNZlV1121i2ny6POdOhHzQnbQ9O+DUIs+t+61GxvvReRNu1KgtOZvx2rEJDYqgqRmLnNPPcpporFYckbmy4RjFRwwxtmP0BgIGEOAvMJyb5st9L3udTdgAdXXvgo/KXjPrpzQmZabufaED+xLYlP+pyAelTa60ITHDLJ9F3mvHhh81XqvbmP8xdXd32/fJ62X5ezueoG/N/U2vK3gLAuYlwBsWC6v3i8jAb4n8TZvMa4jGmnNqmW/NvZ9CgyI1bhnNgcApAjwzqmWk/3MnfPtU4xZ9p4ljw3kmxqbMoj3F6yyKSZ1Zh8p3UFVjCdba1WGDtEQE+FQT50Bbe/B92iny0aD0JcB/HPgLnZ/4hwICehHgJajn1/9es+b5sE9W/HjN2pO1IU0cGzZu3sjL4Nj0GuW3tz3qDJ/e6xLegoDUBI47M4ecy8o7RMwZK+ds8nQgOCbNt8/4HcWGIdeTpwxRTzmBLUeWabrke9boa5R3bmJJzRwbzm6dnTDBuf5uYh6aqZ5fsZtKavOJAxmigICsBHiZifeF8RHtHYUr4MwMMlBnjrqSFo35Ojn8rBeCfhCzcctHBDh0wjvbHtes9+DAMBGGYIlm7cnckGaODRs5f+QVcGx6jfYrmx6kOxc/gunqXkzw1vcEOCvw0eo84cx8QLuK1vheIck1iAqJp2+d8RtKiEiTXFOoZxUCvF/1mdX3aWrO3OHWS3bpCpCmjs2IpCmUFjOCimoOuOrPVtcrRebifcUbaYyIGYACAr4k0NbRImLN7BF7Zt5zRgT2pS5m6vvMUVeIWZprMUtjpkGzgK4r8t6g0voCzSwJ8A+iBaOv0qw92RvS1LFhY3m69qUN/ye73Ybp99rmv9K95z9PAQitbhhzdHScQFNbndOJWX3gHedyE7goJ8B7aK6f82uEbVCODJIaESivL6TPRRR7Lcu0jCWWDsh3OivNHRuenUiOyqLSuvzT+7Ll5/bONmdE1vMn3mRL+2G0cQT4BAVHJ91bvJ7WHHiX6lqQ6sQT+ueMu57OGHEJ+WEvjSf4UMcLAp1imfipVb/0ooX+Vf0dAWSHI969LdfcseHjjwvFlNcrG//Sux9bv1936ANn6gkE7bP1Y6CL8bz5t0R8ieDM2RzEy+4RgL2BPCRmOF036+cieFmcN82gLgh4TOCNLX8nnmnVskxOX2i7iNiaOzY8IONS51BSVAaV1Wm3RqjlQPuirWfW3k8/WPIvfAv0BXyL9dnc1kBHKvfQ+vwP6WDZdotZZ7w5DoeDrsz5IU1Imys6R1wa40cAPTKBXUWrNN/M7xD5HC+cdLPtAOvi2HB267NGfw2zNr0ep5qmcvpq/+tiNuvqXlfxFgTcE+AkkxzwMbdkgzNgHpaY3DNTKjEhbR5dOuX7FBQQorQK5EBAcwK1zRX06ibtcwxOHrpQ7O8M0lxf2RvUxbFho8cNmeOM4cKxXFCOE+CU8xPFL1IsSeGJcEegtaPZmSl7a8EXtOvoKsSXcQdM5f3IkFix7PQL4uUnFBDwJQFeTn5yxT2aq8B7ay6a/F3N2zVDg37ivLxuCZ5ySzbSi+v/aAYOhunIv1B/dPa/iacIUUCgh4BzVqaphPaXbqb1hz50ztD03MOrtgTOm3gjzc4+H8vC2mJFax4SeGH9H3TJwTYja6lwbL7noVbmrqbbjA1jGZ0ynTgi8VGRQA/lOIH6lmp6d/vjdOnUO4DE5gR4r0xh9T7aImZlco+tw6yMzs8D/z66fOpdImllhM49oXkQUEZgRd7rujg1/iK8iJ1P4urq2PAJqSXjvkFPr/61slG2iRT/IRsrlupGJ0+3icUwkwnwUc6y+qOUK45jbzj8MTW21QKMAQQ4cvDXZ/3MGTzUgO7QBQgoInCwfDst26NtvJqejucMv9B2J6F6bOdXXZeiejp6Zs39xIOIcoqAQ4RL+vG5T1FEcMypi3hnKQK8ysubAg9V7KCN+R9rmszOUqB0Mob/j1005XuUk7EYy046MUaznhGobiylfyy7TZdZWt4I//MLXrBVQL7TR8EQx6a45hD966sfi/Bhum3nOd0uU3zmTMF3LX7c1p61KQZKhZIcg6JQLL1yXJk9Ig8TMmSrgKehaI6ItHq+2EuD004aQkVTmhBoaW+kBz+9iTjNiR6Fg/HZKS/UQAx1XYrq6TA1ZhhNGDqPdh5d2XMJr4IAHwF/VSTK/PrMn4GHSQnw6aWS2sO0+9ha4hNMrR1NJrXEGmqnxY6gq6f/mDglAgoIyEaAE9D+c/mPdHNqwoOjbO/U8Jgb4thwR0vGXkd7xQZJHliUUwQ4/P3qA2+LEO6XnrqId9ISaO9sFftkCml/yWbadOQT4s3gKL4nEB4UTV+b+RPKih/ve2WgAQgMQKBLxKP6r0iXUN1UOsBdbS5dNPlWbRoyeSuGOTb8DWpm9nm05uC7Jkemvfqf7H6GMuPHOU+Qad86WvSGADvilQ3HKK90C20+8hlVNhZ70xzqakyAowZfNOlWsY9mEfbRaMwWzWlHgLdhvLThAV1PCCdEpImo/7O1U9rELRmyx6aHT3N7g3PDVFNbfc8lvJ4gECCCKf3wnCfFZuJYMPEhAT65xM4Lb3bfkr+MSuuRFsSHwzFo1/NGXEZnjbmGAv3tF1l1UDC4KRmBbnpzy8O0rXC5rnrdtvAhZ1BcXTsxSeOGOjbMhBNCfrjzPybBY6yaYUFR9IOz/0nBAWHGdmzj3pyOTINwZCqEI3Pkc5GV/oiNaZjD9HFD5tLFk28h/v+CAgKyE/hgx79p/eEPdVVzeOJkumHu/br2YabGDXdsOrs66bEv76aKhqNm4mSYrtGhCXTHokdwmkMn4h2dbeLZOyZmZLY5A+OVi/0yKOYgkB47mq6YdjfFhaeYQ2FoaXsCvM2A91DqWRx+/vTTc59G4MlekA13bLhvDhv//Lrf91IDb3sTYOfm9kX/wMxNbygevucjlbzZ94BwZLaKGRk9N+55qCKquSGQGJlGV077IaVGD3MjidsgIA+BZXufpxX739BdIT7azUe8UU4R8Iljw90/t+53zg2Zp1TBu94EeJqdnRsE8OtNxf173sfFy0n7SjbRtoIvEd3XPTJpJXhm5vKcuygjboy0OkIxEBiIwGd7nqOVeW8OdEvTayGBEfTz85/TtE0rNOYzx6aioci5JMWZTVEGJsAbim8+88/im2r2wAI2v8qRfRtaa+hYzQHaW7yBdhatoHax1IRibgLx4al0Wc4dJxwaP3MbA+1tR+DjXf8z7PQvx0AbmzrLdozdGewzx4YV+3TPs7Qq7y13Otr+/uU5d9KU9LNsz4Gd4JrmMiqs2ieCPa6ig2XbENnXQk9FclQmXTLl+yLswUgLWQVT7EKAj3S/v/0JkT7lE0NM5qXZWxf+1ZC+zNaJTx0bjtr6yOe3U11Lldm4Ga4vOzaXTv0+8UYxuxR+PspF0sjDFTudRyWx0deaI5+dMJEumHQTJUVmWNNAWGV5Ajx7/Prmh8SssTHR9f38HPQjER6EE7yi9CfgU8eG1dlZtIpe2wSvs//Q9L/CuaVumvcARYVa72HuFlE568WyUnHtIRHVdxPtEOk3kJ6g/zNgpSvsrC8eey3xZnkUEDArga7uTudhmANiBtmoMiv7fPFl4GajujNdPz53bJjY02vuo0PlO0wHz1cK83T9tMzFonvz7j/g1ARVjSV0pHIP7Tq2mvIrdvsKJ/o1kADvGztrzLU0M2spBQciXpOB6NGVDgR4T9+/V/5U5IvL16H1gZsMDYqke897duCbuOokIIVjwxuJH//yB8gjpeKh5JMi1836uYhdEKmilm9EeZq2sY1nY/KdJ+E4GWpjW61vlEGvPiHAszIXTLyZRqVMs9Vyqk9go1NDCDS21tHjy+82PF8cB+LjgHworglI4diwep/vfZG+2v+aa01xpx8BB4k8OVNEnhwxe+Mn0ewNx45xzsZU7RFZr9dgNqbfyNnnAp/Y4OUm7J+xz5jbwVIOKfHEV/eIL+PGnsIcJvajfeuM39oBsVc2SuPY8JQeRySuQpJB1QPKAcyum/ULEZE1VXVdbyvw+jJv/i6uOUR5ZZtpV9Eaamlv9LZZ1DcxgaCAEOHMXEdTxR6akMBwE1sC1UGgP4EdR1f8f3vnAR5Hde3xo957tbpsWbZk2XKTK7YB2xDTi03oSYA0EkgBEggkIbwveS9f3nshD5JAIDwghPJoCWDTMTa2ce9VLpJluUiyeu/vnLFFjK22u7Mzd2b+VyyzOzP33nN+Z7179pZztIXC517x7hl/3wC6n6eg5N8XyuAElHFsRExJPPjcmocHlxhXByRQxOsWJAJlgF/QgPd4ckG2M7Z2NFEVp8MoqdqhLfzGTiVPiNqrruxuWpB/E6VF53Kmbeuu/7KXVaCNXgRkg8PS7U/T+tJ39WrSpXYuL/wOyWc8ytAElHJsRNzXNz9K246sGFpy3NEvAV9fX7pq4vepMG0ef7n49nvPcE/2TSkdqd3LAfDW0aHK7YgbM1x4DrlPErZemHcDTeT3mxXWeznELFBTZwKyQ/OZVT/Xdm3q3PSwmpMYT9+74NFh3YubeFsNL+zsVQmELMh67JO7qKWjQSWxLCdLRHAMfbXoJ8MOR9/V00n1rVUcxfegtsB39/G1JI4NCgj0R6AgdRbNHb2EkqIylVrf1Z+sOAcCnhA4ypHNn1n1oGlRzSV22b0XPU3hwdGeqOGouso5NkLfrDlMO1o+Iy6PlnACwTNjhfRwhvWG9hqq4F1KMv0n262b2ursqD500pFAXHgqLcy7mUYnTfLadKeO4qIpEPCIgEy9r9j3Kn2y9yWP2vG08sL8W2jO6Gs8bcZR9ZV0bMQCL6z9NWcB3+goY3hT2alZC0kSa+48ulrbseTNvtC2fQjIVNO83MU0MeN8TsgaYx/FoAkIDEJAkunKek8ZwTazxPOPibvnP26mCJbsW1nHpqG1mh5ffjfvsGmxJFgIDQJWJSBhBIqyv0LT+BEfkYapJqsaEnK7RaC4YhO9uP431NPT41Z9vSr58hrJHyNtgls4/d2qZUAlSRuwqOA2enMLvFUDcKMLEKD8lFk0O+cKSo3OQRA9vB8cR6CLQ468seUPWsgKFZRfkH8zckG5aQhlHRvRZ1LGfA7wthZTUm4aF9VAYCgCoxILaU7ONSRrsSROBgoIOJHAkZp99PznjyiTny4xMoPOy7naiabQRWdlp6L6tGtsq+XAfT/gXVKNfadwBAEQ8IBAVtw4mpN7DcnRWzGPPBAPVUHAMAKyG/StrX+mrUeWG9bnUB35cT61ey9+msICo4a6FdcHIKC8YyNyS1j+Vzb8bgAVcBoEQGAoAlnx47RfgFnxBRTopQCOQ8mA6yCgEoHS6l1aVm7VwlqcSnK8QCVUlpNF6amoPprjeO6/MP18Dtz3ad8pHEEABIYgMDppCs0adbkWywgjM0PAwmXHEJANKa9v/j3tO6HertusuHyakgmnxtM3oyUcG1FSMgMfrt5NdS2VnuqM+iBgSwKym2l8+hwt7LosAPbDmhlb2hlKuUdAYtFuOvwhvbPtSSUjqEsOqFtn/dI95VDrSwQsMRXVJ3FZzV4tAmQP5+xAAQEQIC0h3rSsRTQhbS4lRqZjNxPeFCDQDwGJHvzy+t9ydPWT/VxV49TXZ/2KRiZMUEMYi0thmREb4ZwRO5bmjbmOlu992eLYIT4IuE8gjrO4z8q5ksYkTaXIkFhuCAkn3aeJmnYm0NBWQ29s/gMdqtqutJqTefoJTo1+JrKUYyNqz8tdomWWloVfKCDgFAKyXmZ69iLKjM2joIBQp6gNPUHALQLtvI7mg93P04bS992qb2SlqJAETlz8PSO7tH1flpqK6rOGRCX+06c/RqLMPiA42o6Av28gSRoMWTSfHJnF62Us9xvEdjaBQuoT6Oxup1X736Tl+15RX1iW0NfXj3604Ikv5fKzhOCKC2lJx0aYStjrv3M+KUlUhgICdiAgGdlnj7qK8kZMp+iwRKQysINRoYMhBCRq8NpDS+mj3S8ouTB4IAhXTbqLJmdcONBlnHeTgGV/Buby0Pzs0Vdp3rmbuqMaCJhOICV6FG/JvoJyEidqSUpNFwgCgICFCMgIzdpDy+hjizk0gnhMchGcGi+91yzr2AiPBXk3kYTClm3gKCBgFQL5I2ZwgslFlBY7BsHyrGI0yKkUAYlFs/rAP+iz4tctNULTBzE8KJpumH5/30scdSZg2amoPg6NvOr9z5/eQ03tdX2nLHOUuCOj+Jf6iOiRFBeWTNGhiRQeFENB/iHU2tmkbU2saT5BVY1H6ER9KR2vL6Gung7L6AdBTxHw5/UxU7MuponpF1ByVBa2ZOONAQJuEpDP+0/2vsTxaD5yswXzq0nW7rvmP86f+SPMF8amEljesRG7lJzcSc+teZh6eruVN5N8yRXxr/VJ6Rdy3JEM/pLzdUnm2pYKbS553cGllvyl4pKyFr45NDCSt2RfTgUpsymGnVYfbMm2sDUhutkEKhvK6N1dz9DBym1mi+Jx/0iZ4DHCIRuwhWMjWq4+8E96f9ezQyps1g2yy+XKSXfS+NTzdPnFLsnbdh5dRct2/JXaOpvNUgv9nkEglh0Yycg7JnkqRQRLfBkUEAABdwnID9X9lVto2fanSX7Q2aHkp8yk64t+YgdVlNbBNo6N7I56deN/a1/2qhEv4mmIRQW3kb9foO6iSRTmbZyZ9u1tT/A0VZfu7aPBwQmkxeSyM3MVZSeMp5CA8MFvxlUQAIEhCciygg0l79Nn+1+z1WdaVEg83XPRU0Pqjxs8J2Abx0ZQdHS30VMrH6CKhlLPyejQQkhgOH191iM0Iipbh9YGb0Iy1EoG9P2Vmwe/EVc9JiAjMtOzL6WMuDws/vWYJhoAAaJu/lEmSwo+2vMCHas7aDskkrftnoV/ofDgaNvppqJCtnJsBHBtcwU9ufI+Dt7XaCrv7PjxdMuMh7wySjOYYh/veZFWFL862C245iIBWeQ9IX2utgA4lbdnI7mkiwBxOwj0Q0BG2asay2kdx5/ZVPqhjdcM+mjfBaOTJvdDAae8QcB2jo1Akrwgz3/+iGmLiQvT59E1k39g2oJR+dWzkrdBorhPoG8n06SM+ZQUmenyIm/3e0ZNELA3gbqWStpavoJjkL1BMtJs93Le6Kvpovxb7a6mUvrZ0rERwutKltHS7cbPZ8o0xY3Tf2aaU9P37vrn1j9aektknx5GHgN4DdRMDpZXmDaP4sNTyccHySWN5I++7EugrqVKW//42YE3qLWjyb6KnqWZJG6+Y86/n3UWL71NwNIB+gaDMz37EpItgkYmQZMtvtcX/dR0p0a4XFF4J1U1HaWy6j2DYXL8teCAMJrNi39lt1pMWJIStnO8UQDA8gR6e3uppvk4bS//jD4/9LYjd26GBUXSbbN/bXlbWlEB247YiDG6e7rpb2sfMSxl/fcueFSbtlDljdDJ+VP+84PbHfULaTjswwKjaM7oayg/dSZFc2ZdFBAAAc8JdHMICgkiuqXsE358bKsdTa7SCfALorsufIyDruLzxVV2etxva8dGAEkE36dW3k8nefTCm2Va1iK6rPBb3uzCrbYrGg7TH5f/0K26dqokCSbn5i7WEkxGBsfZSTXoAgKmEZCt2SUnd2jbs0urd5kmh0odi1Nz3dR7tXhWKsnlJFls79iIMWVI9C/s3LR0NHjFtrLQ9GeX/N3wHVDDVebdnc/Q5wffHu7ttrlP4kbMzb1Wc2YkVQUKCICAZwQkR9Px+kO05/ha2syjMk5Y/OsKMVmXJ07NuJRZrlTDvToTcIRjI8zKavbSs2t+SZLeXu9y9aTvk+yeUbVIlOLfLL3ZEXmmZOh37ujFNHbENM67hZgRqr4nIZcVCPRqYTMkT92+io20lQOBOmnhrzsWkt1PsgsKxVwCjnFsBPPOo6vp1U3/RbKwTa8iqRIeuuxFXdIk6CVTf+3Ir6t/bHm8v0uWPyfOzLzcJTQ2eRqFBUVZXh8oAAJmEJAfQPW8e6m8tpj2nNhAxSfWO3qdjKs2kCS310y+29VquN8LBGy7K6o/VgWps6mutYo+2PVcf5fdOrdw3M3KOzWimGxhfmvLn2wTBEummTRnBiMzbr1vUcnZBCTSb2NbLZ1oKOHNFTto17HV2mtnU3Ff+6y4cXTlxDvdbwA1dSXgKMdGyElen4bWk1qGbD1IipduheLH64Cmj7rU0mttZNGvrJmRRHKYZrLCuw4yqkCgs7udGtqqqaK+TFvou+f4Ou21CrLZQYa48BS6ftpPOSK5475OlTWfIy2xqOB2/oddQ7uPfe6RYVI4vL6VEh9OyVhgOcdGtmbPHbOYCngxHjJme/R2RWVbE+jlhbztJLuUqnmzxPH6g3T45B4t/1JXj/7rCm2N0gXlJFbNLTN+TqGBES7Uwq3eJuBIx0ZWri+e8iN6vr2BPNmiOIuj1FqpyC8LK5Qg/1Bta/aEtDkkU04oIAACxClieth5aaXmjnpeC3NSC2EhU0lHqvdRRWMZEBlMQLZ13zT9QYoNSza4Z3Q3FAFHOjYCxZ+zrd44/QF6ZvVDJKv+3SmZcfnuVDOtjgyVynSODEurWGRab3bOlZQYmYEIwCoaCDJ5jYAkhOzu7qS2rhYtLEVDaw3VtpzgJJFH+fOphI7xCAy2VnsNv8sN+/r4adu602JyXa6LCt4n4FjHRtBKOP1bZvyCnl71gJYV3FXcERaMjZIRl6flbHFVV2/dnxCRSgvzbqWcpEmas6l3Pz293dov3V7+tSu74eQof9pRnsv1ntNH7d5uLWK1LK6Ua31H2THS3d1F3b185Gtd/CXUy+1Ipm8//pATp9HXx5+PfuQrjy/OcW5wPu/rI0e5dvrIr31On5MRRLnO/z99Tp7zH5/j/51+/q8jn+Q/Kfx/7b9Tr/Rmh/Y8IyDvsS5+r8gaFxlpaelo5NGWBmrm6aI6XudX11xJNS3HqaqhXBuF8aw31DaKgPzru3LidxGAzyjgbvTjaMdGeElE2q/NfJie/uwBbX56uAxlukS+wKxWVEghwF/tNGPUZZxw8nKXp5rEOenuFceiQ/t129bRrH0pyA6PevmyaKmg6ib+smh05peFBIsMDgynsIBICuF5f3He+x4h/Fzet/5+ASQJP/3lweEKxCk79VwcM3HUTjlofc6avM/FedOcry+O4qDxR7w4X/xBr/1p/pX1nSwZPdEcX07Jojmx7NRKepLO7jZq52zU7Tyq0s6B6iSqeQsndJTAn83t9dqjsb2GGltrOd5Lo212IFrtM87b8i7Mv0XpuGXe1t8K7TvesREjyRzp12b9kp5Z9XPtw2o4hhsRlT2c25S7RxI9mlVkvYws3JYM6PKleWaRL5Me/nUrw+2tneys8BeFOCq1LZXsqBzjNQSl2q4OLIQ8k9q5z2WEoKmtTnuce9W4M+Jg+Z12mmQUSxwoX3GgZCSLHSvNefKTe06NdJ26X5wnvkfOac5UgHbsG/0S58qHz4sT1cNOx5kjan0ja5If7tSomjglndo92mgbc5E6fc+Fk7zf5P2k1eHn3fxczqOAwEAEJPgeAvANREed81/+dlFHLsMlSYrMoptnPETPff7wsOayw4OtGQjOjG3SOYkTtZgzwlh+9Ur+qjp2WCqbyulE3SE6UrsPMTQMf8d7t0NxEOAkeJcxWjeWQFHWxSSjNSjqE4Bjc4aN0mPH0I3THqAX1v16yNQL8svSiuXskRJv6yBrSiQB6V9XPejtrtA+CIAACHiFwIS0uXTZhG9ro4Ve6QCN6kpAJshRziAwMmGCttpdhr8HK1bNmSJD9kYWWZhbx2HaUUAABEDAigQkIKikSpBF/ijWIADHph87jU0u0la9y1z+QEVGIaxYmtprrSg2ZAYBEAABwwlI/rklU37Ma78G/6FruGDocFACcGwGwCPZuheNv32Aq8SLWisGvKbyBQmrjgICIAACIDA4gdykqXRd0b3nbHQYvBauqkAAjs0gVpgx8lK6aNzXBrxD4lNYrRRXbrSayJAXBEAABAwlkJs0hfM//cQrsbUMVcShncGxGcLwkjTz4gGcG9mObKUi21+x3sVKFoOsIAACRhOQcBSS1FKi06NYkwAcm2HYbTY7N5dO+OY5K+IPVm0bRm11bqlowDSUOtaAJCAAAqoRyBsxna4vglOjml1clQeOzTCJTc++hK7mlfFnLiJbfeAfw6ytxm2bDn+ohiCQAgRAAAQUI1CQOpt3xN6HNTWK2cUdceDYuEBtYvr5WuJMyeoqRaZ1GttqXGjBvFtlm/emUjg25lkAPYMACKhKQBLwLubdTxIlG8X6BODYuGhDWVT2jdn/RmFBpyIPrytZ5mIL5ty+78RG5K4xBz16BQEQUJjA9OxFdPWku3g0Hl+HCpvJJdFgSZdwnbo5LWY0fWvubykhIp1WFb+pZe91oxnDqkjiyLe3PWFYf+gIBEAABKxAYG7uYl4/+S0E37OCsVyQEY6NC7DOvDUmNIm+Oec/aGRiIa0++NaZl5R7vuf4Wi0DtnKCQSAQAAEQMIGABF+9eNzXaUHeTSb0ji69TQCOjQeEgwNCOXHmg1TPCR1bOho8aMl7VSWb8eubH/VeB2gZBEAABCxEQDaAXDXp+zQ750oLSQ1RXSEAx8YVWv3cK/9Irph4Jx2o3Eq9/KdaeW/H//JUWYdqYkEeEAABEDCcgGz8uIFj1EzKuNDwvtGhcQR8eP2Fet/Gxumva0+yQyoiOFbXNj1p7FjdQXpixb2eNIG6IAACIGALAqGBEbyr9WeUETvWFvpAiYEJwLEZmI1bV2R0JMAv0K26elbq6Gqj371/O7V3tejZLNoCARAAAcsRiA5NpFtn/oLiw1MtJzsEdp0ApqJcZzZoDXFqmtrrBr3H2xe72Ll6cuW9cGq8DRrtgwAIKE8gJXqUtosVTo3yptJNQIzY6Ibyyw01ttVSeHD0OWkYvnyX/q9aOxp5+uk+y2Yf158IWgQBEHAqAS1D99R7KNA/2KkIHKk3HBsvmr2ts4WC/EMMi5FQWr2bnl/zK+rqwWJhL5oVTYMACFiAgATeWzT+DgTes4Ct9BYRjo3eRM9qr6e3mxp4UXF0SMJZV/R7KVNP72x/kjaXfaJfo2gJBEAABCxIQCIIS4yamaMut6D0EFkPAnBs9KA4RBvi3Kza/yZlx4+n9NhcvttniBrDuywb2nYdW01vbH4MozTDQ4a7QAAEbExARsgl59OY5Kk21hKqDUUAjs1QhHS8vrL4NVpf+q72ayJ/xEy3s8i2djTRzmOr6OM9LykbGFBHbGgKBEAABIYkEB2aQDfxdu6kyKwh78UN9iYAx8Zg++46toZHWP6HenkUJy1mDGXEjaVk/ocYF55CkcFxFBwQ9oXDIyMynbxepq2ziZrb6+lIzT7aUPIeVTSWGSw1ugMBEAABdQlIbJobpt3/RXJidSWFZEYQgGNjBOWz+pDAeS+u+4229uasS9pLX19f8iV/TC/1BwfnQAAEQOAMApMz5tNlhd8mf9+AM87iqZMJwLExyfqyHfzlDb/VRmFMEgHdggAIgIBlCUg6m68UfINmjLzUsjpAcO8QgGPjHa7DalUSVC7d/hRtOvzhsO7HTSAAAiAAAkShgZF0XdG9NJI3ZKCAwNkE4NicTcSE1xtL36dlO/7KU0+dJvSOLkEABEDAOgRGRI3UEllKmgQUEOiPAByb/qiYcK68tphe2fA7qm89aULv6BIEQAAE1CdQmH4+XVH4XSXy8alPy7kSwrFRyPYtHQ302qZH6UDlFoWkgiggAAIgYC4BP19/bT3N9OxLzBUEvVuCABwbxcwkW7xX7n+Nlu99mXp6exSTDuKAAAiAgLEEIoNjeT3NfSRbulFAYDgE4NgMh5IJ95Sc3MmjN7+nRk7HgAICIAACTiSQHV9ASziJZXhQtBPVh85uEoBj4yY4I6o1tzfQm1seo+KKjUZ0hz5AAARAQAkCPpx25rzRV9P8vBs5iaWfEjJBCOsQgGOjuK16qZfWHlpKH+56HrumFLcVxAMBEPCcQGhgBF096W7ke/IcpWNbgGNjEdOfqC/VpqYqkU7BIhaDmCAAAq4SyIzL5ySWP6KokHhXq+J+EPiCABybL1Co/6Szu4M+3P03WscjODKSgwICIAACdiAg003zxiyheblLeOrJ1w4qQQcTCcCxMRG+u10frNqmrb1paK12twnUAwEQAAElCMSEJdG1k3+IXU9KWMMeQsCxsagdWznjt6Rj2F6+0qIaQGwQAAGnE5iSuYDj09xGQf4hTkcB/XUkAMdGR5hmNLXn+Fp6a9sT1Nxeb0b36BMEQAAEXCYQERzDEYTvxAJhl8mhwnAIwLEZDiXF75GIxe/w6M3Oo6sUlxTigQAIOJ1AYfo8uqTgDgoJDHc6CujvJQJwbLwE1oxmZfTmne1/4aB+tWZ0jz5BAARAYEACkSFxdPmE72CUZkBCuKAXATg2epFUpB1Ze/P+zmdpS9kn2DmliE0gBgg4mYCPjw9NzbyIFubfSsEBoU5GAd0NIgDHxiDQRncjO6fe2vZnqm2uMLpr9AcCIAACGoGEiHQtG3dmXB6IgIBhBODYGIba+I46u9tp+b5XaM2BtzihZrfxAqBHEAABRxII8AvUYtLMzrmKJDM3CggYSQCOjZG0TepLoha/zaM3R2qLTZIA3YIACDiFwJjkqXTJ+DsoJjTJKSpDT8UIwLFRzCDeEqe3t5c2Hv6APtr9Ask6HBQQAAEQ0JOABNpbVHA7jU0u0rNZtAUCLhOAY+MyMmtXkHg37+96lrYdWYHFxdY2JaQHASUIBPgF0ZzR12jZuP19A5SQCUI4mwAcG4fa/3D1bm1reEXDYYcSgNogAAKeEPAhHypInU0XjbuVk1YmeNIU6oKArgTg2OiK01qNyYLidSXv0vK9L1FbZ4u1hIe0IAACphFIjc6hReNvR34n0yyAjgcjAMdmMDoOudbUXqetvUHsG4cYHGqCgJsEZGRmQf5NNCFtLo/X+LjZCqqBgHcJwLHxLl9LtV7Ou6aW7Xiaymv3W0puCAsCIOBdAhJYb87ok3FBoQAACOVJREFUa2nGyMtItnKjgIDKBODYqGwdE2ST3VPby1fQh3teoIbWahMkQJcgAAKqEJAYNNOyvkLzxiyh0MBIVcSCHCAwKAE4NoPice5FCe635uDbtGr/G9Te1epcENAcBBxIQNIgyHTThWNvQDwaB9rf6irDsbG6Bb0sf3N7A60ofpU2lL5H3T1dXu4NzYMACJhNYGzyNJqfdyMlRWaaLQr6BwG3CMCxcQub8yrVtVTSp/v+j7YeWc7pGXqcBwAag4DNCYxMmMAOzU2UHpNrc02hnt0JwLGxu4V11q+66ZiWf2rn0VVwcHRmi+ZAwAwCmXH52pRTdnyBGd2jTxDQnQAcG92ROqPBk01HtREcODjOsDe0tB+BjNixdMHY62lUQqH9lINGjiYAx8bR5vdc+erm4/RZ8eu0rfxTXoODDOKeE0ULIOBdAuLQnD/mq5STONG7HaF1EDCJABwbk8Dbrdv61ipac+At2nT4I+robrObetAHBCxPICtuHDs015GspUEBATsTgGNjZ+uaoFtLRyOt5zQN60qWkuyoQgEBEDCXQE7iJJqXu5hkLQ0KCDiBABwbJ1jZBB07uzs4g/hyLRaOrMdBAQEQMI6AxKHJS55Oc3KvJcnrhAICTiIAx8ZJ1jZBV4lkvL9yM33Owf4OVW2nXv5DAQEQ8A4BSXcwMf0CmjXqCooLT/FOJ2gVBBQnAMdGcQPZSbzKhjKeolrGIzkrsA7HToaFLqYTiAiOpWnZi6go6yKkPjDdGhDAbAJwbMy2gAP7b+1sIskkvr7kParhXVUoIAAC7hGQHU7TR15K+SNmkp+vn3uNoBYI2IwAHBubGdRK6sg01cGqrbSe0zUUn9iIgH9WMh5kNY1AkH+IlsepiJNTJkdlmSYHOgYBVQnAsVHVMg6Tq771JG3mreKbyj5CVnGH2R7qDo+ALAKekrmQxqfNIXFuUEAABPonAMemfy44axIByUO1v2KTFg+nmI89vQj6Z5Ip0K0CBEICw6kwbR5NzpjPozPZCkgEEUBAfQJwbNS3kWMlbGyroS28ZXxL2cdU3YS1OI59IzhMcV8fP44KPIkmZVxAY5KLyN83wGEEoC4IeEYAjo1n/FDbAAKyRfxw9W7aWracdh5bTR1diGxsAHZ0YTCBlKiRVJh+vjbVFB4UbXDv6A4E7EMAjo19bOkITcSpEedG1uOU1ex1hM5Q0r4EYsKSaELqXG0xcEJEmn0VhWYgYCABODYGwkZX+hKQiMYSE2db+Qqqa6nUt3G0BgJeIhDJMWfGpc6m8annUWrMaPLhPxQQAAH9CMCx0Y8lWjKJgExVldcU065ja7SH7LBCAQGVCMjU0riUmZpDkxmbT5LyAAUEQMA7BODYeIcrWjWJgDg5x+oO0p7j62jv8fVU2VhmkiTo1ukEZJpJ8jXljZhBEkgPzozT3xHQ3ygCcGyMIo1+TCFQ21xBxZWbSLaOl5zcSV2cnBMFBLxBwNfHl9JicrWdTLlJUykpMsMb3aBNEACBIQjAsRkCEC7bh4BkHJfdVRLt+EDlNqpsOMzjO0jKaR8LG6+J5GjKSZxIo3l79siEQs7TFGG8EOgRBEDgSwTg2HwJB144iUBTex2V8ijOoZM7qKRqB1Ujb5WTzO+WrhLxNytuHDsxEzRHJjEyHYt/3SKJSiDgPQJwbLzHFi1bjEBDWzUdPrmbSnlUR0Z2qhqPYETHYjbUW9xA/2BeH5NH2fEFlMWPlKhRSDapN2S0BwI6E4BjozNQNGcfAi0djXSkZh/Hy9mjHcvr9mONjn3M268mMpUkjkxmXL72GMFB85A1u19UOAkCyhKAY6OsaSCYagS6e7rpREMJldcWn3J0avdTbfMJjOqoZqhhyiPxY+LCU7QdS+m8a0l2LsVHpGJqaZj8cBsIqEoAjo2qloFcliAgozpH6w7QUXZy+o6ydgdFPQJhQVEkGbLTOCheajQ/YnJ4sW+keoJCIhAAAY8IwLHxCB8qg8C5BGStjsTSOV53SDseqz9IjW21596IM14hIEkjEyLSte3WSZGZfMykRN56HRkc55X+0CgIgIBaBODYqGUPSGNTAs3tDVTVdIQXJJdri5IreWGyPJcM5iiuE5BppIiQWIoPS+HppFSK5ymleD7K1FJ0aCJJTBkUEAABZxKAY+NMu0NrRQi0d7Vqea4k11UtP04dK/hYpT1v7WxSRFLjxQjwC6aYsESKCU2iWH5IJF953ncM8AsyXij0CAIgoDwBODbKmwgCOpmAOD4yqtPQWqMdtec81SVTWzLlVc8OUIPFRn38fPxI1ruEcf6kiOAYkjxK4doxil/HaiMu0SEJFBoUiYW8Tn7zQ3cQcJMAHBs3waEaCKhCoLuniySqcmd3+1mPs8/1ve47nr6/i489p8/Jc62dDuricz48pSNrVvx8/U8fA/jor7324/PaNT++7sPX+dh3byAHsgsJCONHOAXzIyTwX8+DAkLgsKjy5oEcIGBDAnBsbGhUqAQCIAACIAACTiWAFXZOtTz0BgEQAAEQAAEbEoBjY0OjQiUQAAEQAAEQcCoBODZOtTz0BgEQAAEQAAEbEoBjY0OjQiUQAAEQAAEQcCoBODZOtTz0BgEQAAEQAAEbEoBjY0OjQiUQAAEQAAEQcCoBODZOtTz0BgEQAAEQAAEbEoBjY0OjQiUQAAEQAAEQcCoBODZOtTz0BgEQAAEQAAEbEoBjY0OjQiUQAAEQAAEQcCoBODZOtTz0BgEQAAEQAAEbEoBjY0OjQiUQAAEQAAEQcCoBODZOtTz0BgEQAAEQAAEbEoBjY0OjQiUQAAEQAAEQcCoBODZOtTz0BgEQAAEQAAEbEoBjY0OjQiUQAAEQAAEQcCoBODZOtTz0BgEQAAEQAAEbEoBjY0OjQiUQAAEQAAEQcCoBODZOtTz0BgEQAAEQAAEbEoBjY0OjQiUQAAEQAAEQcCoBODZOtTz0BgEQAAEQAAEbEoBjY0OjQiUQAAEQAAEQcCoBODZOtTz0BgEQAAEQAAEbEoBjY0OjQiUQAAEQAAEQcCqB/wfYiZvF4CDubAAAAABJRU5ErkJggg==;" parent="1" vertex="1">
          <mxGeometry x="310" y="1510" width="36.09" height="38" as="geometry" />
        </mxCell>
        <mxCell id="ij2_FURvqXdRc3KbHj5h-66" value="" style="group" parent="1" vertex="1" connectable="0">
          <mxGeometry x="358.72" y="870" width="231.27999999999997" height="330" as="geometry" />
        </mxCell>
        <mxCell id="ij2_FURvqXdRc3KbHj5h-51" value="" style="shape=image;verticalLabelPosition=bottom;labelBackgroundColor=#ffffff;verticalAlign=top;aspect=fixed;imageAspect=0;image=data:image/svg+xml,PHN2ZyB4bWxucz0iaHR0cDovL3d3dy53My5vcmcvMjAwMC9zdmciIHhtbG5zOnhsaW5rPSJodHRwOi8vd3d3LnczLm9yZy8xOTk5L3hsaW5rIiB2ZXJzaW9uPSIxLjEiIGlkPSJMYXllcl8xIiB4PSIwcHgiIHk9IjBweCIgdmlld0JveD0iMC4wMTY5NjU4NjYwODg4NjcxODggLTAuMDE5NjQ3NTk4MjY2NjAxNTYyIDM3Ny40ODMwMzIyMjY1NjI1IDk2Ljk5NTIzMTYyODQxNzk3IiBzdHlsZT0iZW5hYmxlLWJhY2tncm91bmQ6bmV3IDAgMCAzNzcuNSA5Ny4xOyIgeG1sOnNwYWNlPSJwcmVzZXJ2ZSIgd2lkdGg9IjM3Ny40ODMwMzIyMjY1NjI1IiBoZWlnaHQ9Ijk2Ljk5NTIzMTYyODQxNzk3Ij4mI3hhOzxzdHlsZSB0eXBlPSJ0ZXh0L2NzcyI+JiN4YTsJLnN0MHtmaWxsOiM2REIzM0Y7fSYjeGE7CS5zdDF7ZmlsbDojRkZGRkZGO30mI3hhOzwvc3R5bGU+JiN4YTs8cGF0aCBjbGFzcz0ic3QwIiBkPSJNODguNSw1LjdjLTEuMywzLjItMy4xLDYuMy01LjIsOS4xQzY0LjctNC41LDM0LTUsMTQuOCwxMy42Uy01LDYyLjksMTMuNiw4Mi4xYzAuNiwwLjcsMS4zLDEuMywyLDEuOWwxLjgsMS42JiMxMDsmIzk7YzIwLjQsMTcuMiw1MSwxNC42LDY4LjItNS44QzkyLjIsNzIsOTYuMiw2Mi4yLDk2LjksNTJDOTguMywzOS45LDk0LjYsMjQuMyw4OC41LDUuN3ogTTIyLjYsODQuNWMtMS40LDEuOC00LDItNS44LDAuNiYjMTA7JiM5O3MtMi00LTAuNi01LjhzNC0yLDUuOC0wLjZDMjMuNyw4MC4xLDI0LDgyLjcsMjIuNiw4NC41eiBNODguMiw3MEM3Ni4zLDg1LjksNTAuNyw4MC41LDM0LjQsODEuM2MwLDAtMi45LDAuMi01LjgsMC42JiMxMDsmIzk7YzAsMCwxLjEtMC41LDIuNS0xYzExLjUtNCwxNi45LTQuOCwyMy45LTguNGMxMy4xLTYuNywyNi4yLTIxLjQsMjguOC0zNi42Yy01LDE0LjYtMjAuMiwyNy4yLTM0LDMyLjNjLTkuNSwzLjUtMjYuNiw2LjktMjYuNiw2LjkmIzEwOyYjOTtsLTAuNy0wLjRjLTExLjYtNS43LTEyLTMwLjksOS4yLTM5YzkuMy0zLjYsMTguMS0xLjYsMjguMi00QzcwLjYsMjkuMiw4MywyMS4yLDg4LDEwLjdDOTMuNiwyNy42LDEwMC40LDUzLjgsODguMiw3MHoiLz4mI3hhOzxwYXRoIGNsYXNzPSJzdDAiIGQ9Ik0xMjQuNCw2Ny42Yy0xLjMtMC44LTIuMS0yLjItMi0zLjdjMC0yLjQsMS45LTQuNCw0LjMtNC40YzAsMCwwLDAsMC4xLDBjMC44LDAsMS42LDAuMiwyLjMsMC42JiMxMDsmIzk7YzQsMi44LDguNyw0LjMsMTMuNSw0LjVjNC42LDAsNy4zLTIsNy4zLTUuMXYtMC4yYzAtMy43LTUtNC45LTEwLjUtNi42Yy02LjktMi0xNC43LTQuOC0xNC43LTEzLjh2LTAuMmMwLTguOSw3LjQtMTQuMywxNi43LTE0LjMmIzEwOyYjOTtjNS4yLDAuMSwxMC4yLDEuNCwxNC44LDMuOGMxLjYsMC44LDIuNiwyLjMsMi42LDQuMWMwLDIuNC0yLDQuNC00LjQsNC40aC0wLjFjLTAuNywwLTEuNC0wLjItMi4xLTAuNWMtMy40LTEuOS03LjEtMy0xMS0zLjImIzEwOyYjOTtjLTQuMiwwLTYuNiwyLTYuNiw0LjZ2MC4yYzAsMy41LDUuMSw0LjksMTAuNiw2LjdjNi45LDIuMSwxNC42LDUuMywxNC42LDEzLjd2MC4yYzAsOS45LTcuNywxNC44LTE3LjQsMTQuOCYjMTA7JiM5O0MxMzYsNzMuMSwxMjkuNyw3MS4yLDEyNC40LDY3LjZ6Ii8+JiN4YTs8cGF0aCBjbGFzcz0ic3QwIiBkPSJNMTYzLjgsMjkuOWMtMC4xLTIuOSwyLjMtNS4zLDUuMi01LjRoMC4xYzMsMCw1LjQsMi40LDUuNCw1LjRsMCwwdjMuMmMzLjUtNC45LDguNC04LjgsMTYtOC44JiMxMDsmIzk7YzExLDAsMjEuOCw4LjcsMjEuOCwyNC40djAuMmMwLDE1LjYtMTAuNywyNC40LTIxLjgsMjQuNGMtNy44LDAtMTIuNy0zLjktMTYtOC4zdjE2LjZjMCwzLTIuNCw1LjQtNS40LDUuNGwwLDAmIzEwOyYjOTtjLTIuOSwwLTUuMy0yLjQtNS4zLTUuM3YtMC4xVjI5Ljl6IE0yMDEuNSw0OC45di0wLjJjMC05LjEtNi4xLTE1LTEzLjQtMTVzLTEzLjcsNi4xLTEzLjcsMTV2MC4yYzAsOSw2LjQsMTUsMTMuNywxNSYjMTA7JiM5O1MyMDEuNSw1OC4yLDIwMS41LDQ4Ljl6Ii8+JiN4YTs8cGF0aCBjbGFzcz0ic3QwIiBkPSJNMjE2LjUsMjkuOWMtMC4xLTIuOSwyLjMtNS4zLDUuMi01LjRoMC4xYzMsMCw1LjQsMi40LDUuNCw1LjRsMCwwdjIuNmMwLjUtNCw3LjEtOCwxMS44LTgmIzEwOyYjOTtjMi43LTAuMiw1LjEsMS44LDUuMyw0LjVjMCwwLjMsMCwwLjUsMCwwLjhjMCwyLjYtMS44LDQuOC00LjMsNS4yYy03LjcsMS4zLTEyLjksOC0xMi45LDE3LjN2MTUuNWMwLDMtMi40LDUuMy01LjQsNS4zJiMxMDsmIzk7Yy0yLjksMC01LjMtMi4zLTUuMy01LjJjMCwwLDAsMCwwLTAuMUwyMTYuNSwyOS45TDIxNi41LDI5Ljl6Ii8+JiN4YTs8cGF0aCBjbGFzcz0ic3QwIiBkPSJNMjQ4LjYsMzBjLTAuMS0yLjksMi4zLTUuMyw1LjItNS40aDAuMWMzLDAsNS40LDIuNCw1LjQsNS40bDAsMHYzNy45YzAsMy0yLjQsNS4zLTUuNCw1LjNzLTUuMy0yLjQtNS4zLTUuMyYjMTA7JiM5O0wyNDguNiwzMHoiLz4mI3hhOzxwYXRoIGNsYXNzPSJzdDAiIGQ9Ik0yNjQuOCwzMGMtMC4xLTIuOSwyLjMtNS4zLDUuMi01LjRoMC4xYzMsMCw1LjQsMi40LDUuNCw1LjRsMCwwdjIuMmMzLjItNSw4LjgtNy45LDE0LjctNy43JiMxMDsmIzk7YzEwLjYsMCwxNi43LDcuMSwxNi43LDE4djI1LjNjMC4xLDIuOS0yLjIsNS4yLTUuMSw1LjNjLTAuMSwwLTAuMSwwLTAuMiwwYy0yLjksMC4xLTUuMy0yLjMtNS40LTUuMnYtMC4xdi0yMiYjMTA7JiM5O2MwLTcuMy0zLjYtMTEuNS0xMC4xLTExLjVjLTYuMiwwLTEwLjYsNC40LTEwLjYsMTEuN3YyMS45YzAsMy0yLjQsNS40LTUuNCw1LjRzLTUuNC0yLjQtNS40LTUuNEwyNjQuOCwzMEwyNjQuOCwzMHoiLz4mI3hhOzxwYXRoIGNsYXNzPSJzdDAiIGQ9Ik0zNTQuMywyNC40Yy0zLDAtNS40LDIuNC01LjQsNS40bDAsMFYzM2MtMy41LTQuOS04LjQtOC44LTE2LTguOGMtMTEsMC0yMS44LDguNy0yMS44LDI0LjR2MC4yJiMxMDsmIzk7YzAsMTUuNiwxMC43LDI0LjQsMjEuOCwyNC40YzcuOCwwLDEyLjctMy45LDE2LTguMmMtMC41LDguNS01LjcsMTIuOS0xNC44LDEyLjljLTUsMC0xMC0xLjItMTQuNC0zLjdjLTAuNi0wLjMtMS4yLTAuNC0xLjktMC40JiMxMDsmIzk7Yy0yLjUsMC00LjUsMS45LTQuNiw0LjRjMCwxLjksMS4yLDMuNywzLDQuM2M1LjcsMi44LDExLjksNC4yLDE4LjIsNC4yYzguNSwwLDE1LjEtMiwxOS4zLTYuM2MzLjktMy45LDYtOS44LDYtMTcuN1YyOS45JiMxMDsmIzk7YzAuMS0zLTIuMy01LjQtNS4zLTUuNUMzNTQuNCwyNC40LDM1NC4zLDI0LjQsMzU0LjMsMjQuNHogTTMzNS40LDYzLjljLTcuNCwwLTEzLjQtNS44LTEzLjQtMTUuMXYtMC4yYzAtOS4xLDYuMS0xNSwxMy40LTE1JiMxMDsmIzk7czEzLjcsNi4xLDEzLjcsMTV2MC4yQzM0OS4yLDU3LjgsMzQyLjgsNjMuOSwzMzUuNCw2My45eiIvPiYjeGE7PHBhdGggY2xhc3M9InN0MCIgZD0iTTI1OS40LDExLjZjMCwzLTIuNCw1LjQtNS40LDUuNHMtNS40LTIuNC01LjQtNS40czIuNC01LjQsNS40LTUuNGwwLDBjMi45LTAuMSw1LjMsMi4zLDUuNCw1LjImIzEwOyYjOTtDMjU5LjQsMTEuNSwyNTkuNCwxMS41LDI1OS40LDExLjZ6Ii8+JiN4YTs8cGF0aCBjbGFzcz0ic3QwIiBkPSJNMzcyLDM1LjdjLTMsMC01LjUtMi41LTUuNS01LjVzMi41LTUuNSw1LjUtNS41czUuNSwyLjUsNS41LDUuNVMzNzUsMzUuNywzNzIsMzUuN3ogTTM3MiwyNS41JiMxMDsmIzk7Yy0yLjYsMC00LjcsMi4xLTQuNyw0LjdzMi4xLDQuNyw0LjcsNC43czQuNy0yLjEsNC43LTQuN3MtMi00LjctNC42LTQuN0gzNzJ6IE0zNzMuNSwzMy4zbC0xLjYtMi41aC0xLjF2Mi41aC0wLjlWMjdoMi42JiMxMDsmIzk7YzEuMS0wLjEsMiwwLjgsMi4xLDEuOWwwLDBjMCwwLjktMC43LDEuNy0xLjYsMS45bDEuNywyLjVIMzczLjV6IE0zNzIuNCwyNy44aC0xLjZWMzBoMS43YzAuNiwwLDEuMS0wLjUsMS4xLTEuMSYjMTA7JiM5O1MzNzMuMSwyNy44LDM3Mi40LDI3LjhMMzcyLjQsMjcuOHoiLz4mI3hhOzxwYXRoIGNsYXNzPSJzdDAiIGQ9Ik04NS42LDc5LjhDOTIuMiw3Miw5Ni4yLDYyLjIsOTYuOSw1MiIvPiYjeGE7PHBhdGggY2xhc3M9InN0MSIgZD0iTTg4LjIsNzBDNzYuMyw4NS45LDUwLjcsODAuNSwzNC40LDgxLjNjMCwwLTIuOSwwLjItNS44LDAuNmMwLDAsMS4xLTAuNSwyLjUtMWMxMS41LTQsMTYuOS00LjgsMjMuOS04LjQmIzEwOyYjOTtjMTMuMS02LjcsMjYuMi0yMS40LDI4LjgtMzYuNmMtNSwxNC42LTIwLjIsMjcuMi0zNCwzMi4zYy05LjUsMy41LTI2LjYsNi45LTI2LjYsNi45bC0wLjctMC40Yy0xMS42LTUuNy0xMi0zMC45LDkuMi0zOSYjMTA7JiM5O2M5LjMtMy42LDE4LjEtMS42LDI4LjItNEM3MC42LDI5LjIsODMsMjEuMiw4OCwxMC43QzkzLjYsMjcuNiwxMDAuNCw1My44LDg4LjIsNzB6Ii8+JiN4YTs8cGF0aCBjbGFzcz0ic3QxIiBkPSJNMjIuNiw4NC41Yy0xLjQsMS44LTQsMi01LjgsMC42cy0yLTQtMC42LTUuOHM0LTIsNS44LTAuNkMyMy43LDgwLjEsMjQsODIuNywyMi42LDg0LjV6Ii8+JiN4YTs8L3N2Zz4=;" parent="ij2_FURvqXdRc3KbHj5h-66" vertex="1">
          <mxGeometry y="296" width="132.12" height="34" as="geometry" />
        </mxCell>
        <mxCell id="ij2_FURvqXdRc3KbHj5h-50" value="" style="rounded=0;whiteSpace=wrap;html=1;dashed=1;" parent="ij2_FURvqXdRc3KbHj5h-66" vertex="1">
          <mxGeometry x="2.1199999999999477" width="130" height="280" as="geometry" />
        </mxCell>
        <mxCell id="ij2_FURvqXdRc3KbHj5h-53" value="" style="group" parent="ij2_FURvqXdRc3KbHj5h-66" vertex="1" connectable="0">
          <mxGeometry x="28.279999999999973" y="110" width="70" height="70" as="geometry" />
        </mxCell>
        <mxCell id="ij2_FURvqXdRc3KbHj5h-41" value="" style="verticalLabelPosition=bottom;html=1;verticalAlign=top;align=center;strokeColor=none;fillColor=#00BEF2;shape=mxgraph.azure.cloud_service_package_file;dashed=1;" parent="ij2_FURvqXdRc3KbHj5h-53" vertex="1">
          <mxGeometry x="13" width="42.5" height="50" as="geometry" />
        </mxCell>
        <mxCell id="ij2_FURvqXdRc3KbHj5h-45" value="Gateway2" style="text;html=1;align=center;verticalAlign=middle;resizable=0;points=[];autosize=1;strokeColor=none;" parent="ij2_FURvqXdRc3KbHj5h-53" vertex="1">
          <mxGeometry y="50" width="70" height="20" as="geometry" />
        </mxCell>
        <mxCell id="ij2_FURvqXdRc3KbHj5h-54" value="" style="group" parent="ij2_FURvqXdRc3KbHj5h-66" vertex="1" connectable="0">
          <mxGeometry x="29.279999999999973" y="20" width="70" height="70" as="geometry" />
        </mxCell>
        <mxCell id="ij2_FURvqXdRc3KbHj5h-40" value="" style="verticalLabelPosition=bottom;html=1;verticalAlign=top;align=center;strokeColor=none;fillColor=#00BEF2;shape=mxgraph.azure.cloud_service_package_file;dashed=1;" parent="ij2_FURvqXdRc3KbHj5h-54" vertex="1">
          <mxGeometry x="13" width="42.5" height="50" as="geometry" />
        </mxCell>
        <mxCell id="ij2_FURvqXdRc3KbHj5h-44" value="Gateway1" style="text;html=1;align=center;verticalAlign=middle;resizable=0;points=[];autosize=1;strokeColor=none;" parent="ij2_FURvqXdRc3KbHj5h-54" vertex="1">
          <mxGeometry y="50" width="70" height="20" as="geometry" />
        </mxCell>
        <mxCell id="ij2_FURvqXdRc3KbHj5h-55" value="" style="group" parent="ij2_FURvqXdRc3KbHj5h-66" vertex="1" connectable="0">
          <mxGeometry x="28.279999999999973" y="200" width="70" height="70" as="geometry" />
        </mxCell>
        <mxCell id="ij2_FURvqXdRc3KbHj5h-42" value="" style="verticalLabelPosition=bottom;html=1;verticalAlign=top;align=center;strokeColor=none;fillColor=#00BEF2;shape=mxgraph.azure.cloud_service_package_file;dashed=1;" parent="ij2_FURvqXdRc3KbHj5h-55" vertex="1">
          <mxGeometry x="14" width="42.5" height="50" as="geometry" />
        </mxCell>
        <mxCell id="ij2_FURvqXdRc3KbHj5h-43" value="Gateway3" style="text;html=1;align=center;verticalAlign=middle;resizable=0;points=[];autosize=1;strokeColor=none;" parent="ij2_FURvqXdRc3KbHj5h-55" vertex="1">
          <mxGeometry y="50" width="70" height="20" as="geometry" />
        </mxCell>
        <mxCell id="ij2_FURvqXdRc3KbHj5h-111" value="" style="group" parent="1" vertex="1" connectable="0">
          <mxGeometry x="670" y="750" width="240" height="201" as="geometry" />
        </mxCell>
        <mxCell id="ij2_FURvqXdRc3KbHj5h-80" value="" style="rounded=0;whiteSpace=wrap;html=1;dashed=1;" parent="ij2_FURvqXdRc3KbHj5h-111" vertex="1">
          <mxGeometry width="240" height="170" as="geometry" />
        </mxCell>
        <mxCell id="ij2_FURvqXdRc3KbHj5h-81" value="" style="group" parent="ij2_FURvqXdRc3KbHj5h-111" vertex="1" connectable="0">
          <mxGeometry x="83.5" y="7" width="80" height="60" as="geometry" />
        </mxCell>
        <mxCell id="ij2_FURvqXdRc3KbHj5h-82" value="" style="verticalLabelPosition=bottom;html=1;verticalAlign=top;align=center;strokeColor=none;fillColor=#00BEF2;shape=mxgraph.azure.cloud_service;dashed=1;" parent="ij2_FURvqXdRc3KbHj5h-81" vertex="1">
          <mxGeometry x="15" width="50" height="40" as="geometry" />
        </mxCell>
        <mxCell id="ij2_FURvqXdRc3KbHj5h-83" value="Nacos" style="text;html=1;align=center;verticalAlign=middle;resizable=0;points=[];autosize=1;strokeColor=none;" parent="ij2_FURvqXdRc3KbHj5h-81" vertex="1">
          <mxGeometry x="15" y="40" width="50" height="20" as="geometry" />
        </mxCell>
        <mxCell id="ij2_FURvqXdRc3KbHj5h-90" value="" style="shape=image;verticalLabelPosition=bottom;labelBackgroundColor=#ffffff;verticalAlign=top;aspect=fixed;imageAspect=0;image=data:image/png,iVBORw0KGgoAAAANSUhEUgAAB9EAAAGHCAYAAAAHoaIyAAAACXBIWXMAAAsSAAALEgHS3X78AAAgAElEQVR42uzdW3tb2X3n+R8pTyRegblnFVF2uU5Osrlt7cp0umNCvJpJp5v0HNrlQ8Kt6Y5jO7ZFvwKhXoFAH5JOTz+jre656Ti2oD7NuQSW7SrJcBvAM890nKp0CkTVfcgr2LRlzsVeFCmJInFYANZa+/t5Hj1lW6aK/G9hr8NvHeYODw8FAAAAAIBN/+B/OVyRtHjif6o8/E9zx+PQw8d/T5LmHvlvXfPrtN9/+Hvmz+m+tTnfpfoAgEn7yP/780VJKyf+p7L5dVpbVpZUfmQWdu6R/9Y4ox185Pf+9pVLDaoPAAAweXOE6AAAAACAQf3uvzxcOZzTUXCwqEdDg9V8pHnuSPThfzx1RHru1z/5Px0++fu7Og7f25L2dBy6d9/6Q8J2AMCTnu/8PG/XTFv32GKvsqRlO23V4VBf+8ifc/z7O+afR+3bnqS25qT3XiJsBwAAGAchOlAwUZysSKpRiTNtdVrNNmUApvpuOgpjyubX47s6zpJPFOUakvb4DAPAeH73Xx4evZNPvptXJJWkRybvnzLSPHck+vA/TjBEH8Su5tTVccjekNR96w8I2AEgZA+D8uN27uify4+3JYcjt3XntVVWQvTzvn7/RBvXPvrPBOwAXGPmrBf16HzQMHNDwNR1Ws0KVQgbITpQvA5JRdJdKnGmK51WkwElMLn30NEgqGJ+PQxlLNvR8URRo9Nqdqk+ADzqd//nw7Ly0ODofVyWFFmcvH/aSPT4zxrp60/5nob5+sH+rB1JXc09bEvab39+fo+/NQDgl+fbPz9u4+a0oqNTUwZsHzwP0U//+vwfncfbue6LlxgzAZgYE5SX9ZSFuoBvOq3mHFUI28xCdBPkrTz2wlwe4Et39OjqyTaT4sDQnz1C9LMRogOTGShtmF/RjL6NXeU7DOvKQ3WCEACF8sl/cbhowoPK4XmLmAjRn/b7u2Yc2lAeqtNnBACHfPQ4MF85zP8ZDdW+nPL/DThEP+3/u3+ynZPU6L54iXETgKE9lv88+T4GAkCIHr6phegTnjx/OCneaTXrPFbg3A4MIfrZCNEBO++bsqQt0/YvO/gt3pGU0XcAEKpP/ovDso5P/ahIWj43EHg4Ujz7twscop/29UcnnzQkNd7+HLvVAWAaPtr6+aIePd1q9eQ7e6T25ZT/b8FC9NP+rKN514akdveFS1ydBeARZv7n6F1cEYE5CoIQPXwTDdFnNHm+r3yHWUYIBpz6uayIEP08hOjAeO+Z1LT/vgya9iVlkmqcbgPAZ5/888Oy5h4LzZ8YAeb/IES3+Gc9+fudw+OwoXGPUB0ArPjoT36++Fg7F531TiZEP+Prx/s59nXcztW7L3AEPFA05pq+jTPHHUABEKKHbyIhehQnG8onz1dn/PPtSqp2Ws2MRw08/HxWRIh+HkJ0YLQB1Jb55fNdVjum78A7AIAXPvnnh0eTV/nC5QEnwgnRLf5Z5399R+YqkXuf5fh3ABjGR3/y80dPthzinUyIfsbXj/lzPPa9PHJt1u5HOf4dCJE5aTgVO82BhwjRw2c1RDfheU3urTwiTAeOP6cVEaKfhxAdGPydEkp4Tt8BgBc++eeHZR3v+lh/coR33ggw/wchusU/a7ivPzo5rSGpfu+z7FIHgJNe+MnPH+5uPMz/WRq1fSBEP+Prx/w5zvledkxbV9/9KLvUAZ+ZvOfoV4mKAI8iRA+flRDdhHJVzX7n+bl/pyWlnVaTu3tQ5M5PRYTo53m902pWKQNw5rsk1PD8cbum79DgqQOYldV/fnh0t2B6OHfOrg9C9MG+3uafNc7Xz+mOjgL1z8x3+dsOoIhe+E8Pg/MNzR0vEBu3fSBEP+Prx/w5hvheOppTQ1K2+zx3qQM+IDgHBkeIHr6xQnQzgV6VdM2zn3u702pu8fhR0I5QRYTo5yFEB85+j6TKT54p0mBqR9IWC/EATMvqPz8sK1+olB/TbowfXps/R+P9OYTolr7+0d/rSMpEoA6gAExwnppf0WnvRUL0ybXDUwzRT379rvId6gTqgGNOHNX+yNgDwNkI0cM3cohuXqx1j1+q7EpHUTtFFRGin4cQHXh625+p2HdfbSs/5p3jdwFYt/pnh2XNaUOPBwonEKI//fcDCNFP2pGUHc4d1u+/doE2B0AQXvjxzxdNO7eh064keey9SIg+uXZ4RiH6SbtmbJntPs+R78AsmA2SG8oX7nLHOTACQvTwjRSiR3GyJelGAD//vvIgvc5fBRSog1QRIfp5CNGBJwdWVfl38syk7CrflU7/AcDYVv/s8GjyKpW0Ovnw2vw5Gu/PIUS39PXn1vlQku5Iyu6/doF2B4CXXvjxz4+C882Jh+CE6IN9/Zg/h+W+SUdS7VCq9z5yiYVjwIRFcVJWPsfDce3AmAjRwzd0iB7FSSZpM7A6XO20mhl/HVCQjlJFhOjnIUQHjt8Zvp88M0l3lC/GY6IHwNBW/+xwRcfHtR9PXhGiD/VzPPI9DfP1Nv+syYfoR/aV79qr3X/tQpdPEQCXvfDjn5d1fFz78ijvVEL0ybXDjoXoJ7+nW5Ky3kcuNfgUAXaZOeGqpFWqAdhBiB6+gUN0swutHvBLliAdReowEaKfjRAdyN8XVUnXqcSZdpUH6Q1KAeA8q396uKg5pcrD89MXJxGiD/VzPPI9DfP1Nv+s6YXoJ+0o353OGBaAU8yu8y09bf6QEP3UtnDa7bDDIfrJcVZNeaDOomVgDFGcpMrDczZHAJYRoodvoBDdBOgNhX83BkE6itBxqogQ/TyE6Cj6eyL0hXO8NwBM1eqfnth1PnfOkYmE6EP9HI98T8N8vc0/azYh+tHX78uEDPc/ze50ALPxYvNg0bRz6eHc4bKNdspG+0CIfsbXj/lzTLVvMneY707/8EKDTxswOMJzYPII0cM3aIhel7RekJoQpCP0DlRFhOjnIQxDkd8RK8oXznEv1vB2JG1wvDuAI5U/PdyQtHV4clGS6xPVU/s+CNEHq/PhMP/uW8rD9AafPgDT8GLz4GiR2OaI760zf58QfXLtsGch+tF/6kiq9T68kPHpA56O8ByYHkL08J0bogd6B/p54k6r2eavBwLtSFVEiH4eQnQUeaB1k0qMZVd5kE4/Aiioyp8eLiq/57wqM3Hl1UT11L4PQvTB6jxSGJUf9f5pjnoHMBkvNg+eemQ7Ifow7QMh+mB1PjxtzJUpD9RZwAwYhOfA9BGih29+gBfvZgHr0jBH2QIAUJTBViYCdBuWTT9ig1IAxVL5thYr31ZVUte8T5m8wqysSrr52//mQfe3/82DlHIAsOXFHx2kLzYPupJui6ufMNsx13VJ3Wf/tl999r1+mZKgyKI4qURx0mAMAgD2feiMl++KijuZXlJ+lO0Kf0UAAIEPthaV36W6STWs9iNuR3HCFTFAAVS+rbLMPbDiKgy4ZVl5mF6TVDucU+1H/+QCO/YADOXFHx08ccIK4NC467qk68++1791KFXff26hS1lQFFGclJXP56xTDQCYjLN2omdFb4fMrjwAAEIdcC0qXzRGgD4ZN+lLAOGqfFvlyreVSXpP0jURoMNdRyFD99W/eFB99S8ecOoagHO9+KODxRd/dFAVJ6zAD5uS3nvmvX72DDvTUQBRnFQltUWADgATNX/GSziiPNo0R9oDABDagOsoQKe9n3xfIqMMQDgeC89ZhASfEKYDGMiJ8Py6WCQGz8ZfIkxHwMzR7byfAWBK5k95EZeVH0eI3E1ztD0AAKEMugjQp4sgHQhA5VtarHxLVeU7PgjP4bNHwnTKAeDIiz86SF/80UFXhDMIYAwmwnQEJIqTRTOvcFecDAIAU3PaTvQqHeUnNMziAgAAvB94iQB9FgjSAU9dOQ7PuyJUQFhKkq6/+hcPuq/+xYOUcgDF9dL9h+E5x7YjuHGYpPYz7/Wrz3T7nMACL0VxsmHGIizkBYApm3/shVzmZXyqkqS6CR4AAPB14EWAPlsE6YBnrnxLqQjPEb5lSTdf/c6D7qvfeVChHEBxvHT/oPLS/YOGCM8RtocnsDzT7VcpB3xhdp/XJd1mLAIAs/H4TnQ6Eme0W5JqlAEA4OvgSwToLiBIBzxw5VuqXPmWuspDBSasUBTLku6++p0HjVe/86BMOYBwvXT/oPzS/YO68mOBV6kICqIk6foz3X73mW5/g3LAZVGcVJRfI7VONQBgduZPvJgXJdGBONtmFCfcFw8A8G3wRYDuXn8iowyAe658S+Ur31JD3DWIYluV9N6r33lQe/U7DziNDQjIS/cPFl+6f1CV9J4IZlBcy5JuP9PtN57p9lcoB1wTxUmV8QgAuOHkTvQNsctiEDfMSjAAAHxRFwG6a1iYBzjkyje1eCW/9/w9sSMPOHJNUvfV7zygvQIC8NL9g1THV5QAyPt8rWe6/Rr3pcMF5vj2Bu9pAHDH4yE6BlOP4oSVigAAHwZhmQiEXHUjipOUMgCzdeWb2lB+VCKTVcCTSpJuvPqdB+3kLx8wBgY89NK9g5WX7j2895zNM8CTrknqPrPbZ2yGmTGb9rpi/gYAnDJvXtKL4hinYZQkZaZuAAC4OgirStqkEk67ycI8YDaufFPlK99UQ9JtcVQicG63QlIr+csHteQvOeId8MFL9w4WX7p3UJXUEqEMcJ6SpJvP7PYbz+xyxDum3MnKF9ffFQudAMA5RzvR2YU+QvsmKaMMAACHB2HsqvRDI4qTMmUApufKN1VVvvucUAEYzjVJ3eQvHzCHADjspXsHFXHKCjCKVUmtpd1+dWmXI94xeeb0wJtUAgDcdBSiVyjFSNbNLj8AAFwahK1IqlEJb5SUXxXDJA0wYVe+qZUr33wYKrDTAxi93bqd/OWDOrvSAbeY3eeZ8h2NnLICjO66pPbSbr9CKTAJ5v7ztjg9EACcdhSic0zNGJ2qKE5YhQ8AcGYgJqkhwiHvHp1Y+ABMlNl93jKfNwDjWxe70gFnvHTvYEP5fboEMoAdy5LuLu32a+xKh9XBf34SXYNxCQC47yhE54U9noz7TAEAjqiLAN1Xm1GcbFEGwK4r39DKlW9wpC0wIce70r/LrnRgFl5++2Dx5bcP6pJuMw4AJuKapPZSj13pGJ/JENoijwEAL8xHcUIHwM7EQcYxrACAGQ/GauJ+X9/doG8G2HPlG+w+B6Yk35X+XXalA9P08tsHFeW7z9epBjBR+a70Xr+21GNXOkZjAvSGWPAEAN6Yl0TDb6kdVL77DwCAWQzGNpSvkIf/uB8dGNPaN7Syxu5zYNryXenfZVc6MGlm93lN+d3nhDHA9FyT1Fjq9TmRFEMxczYN3tkA4Jd5cR+6TatmFyAAANMcjC1KyqhEMEo8T2B0a9/QlrhjEJildUnt5LsPKpQCsO/ltw+OdjKygBaY0RBcUmup169SCgz0FyZOUnHlBgB4aZ4SWHfNNIwAAEwL96CHZ5370YHhrH1Di2vfUF3SDd6JwMwtS7qbfPdBlVIA9rz89sGWuKYEcMX1pV6/wfHuOIvJCW5SCQDwE8e5T0bN3HECAMCkB2Rb4h70UFXpTwCDWdtWRVJb3AkLuOZ68t0HDY53B8bz8lsHiy+/fXC0UAyAO1YldZd6/Q1KgccRoAOA/zjOfTJK4j5TAMDkB2QrYiIt9P5ERhmAs61tq6r8TthlqgE4aVVSN/kex7sDo3j5rYMVsVAMcH3cdnup1+eKTzxk5mv4OwEAnuM498lZVn68LgAAk5JRgvDH3lGcVCkD8KS1bS2ubasu6TrVAJxXknQ3+R7HuwPDePmth8e3s1AMcN+1pV6/zfHuMAF6Q1wxBQDeI0SfrNUoTjLKAACYwKCsKu5CLIrrHOsOPGptW+zKAzxt0y5/70Hj8vc43h04y8tvHSy+/BbHtwM+DtWVH+9eoRQF/QtAgA4AQSFEn7xNc/8JAAA2B2XsvCyWjBIAubVtpconptiVB/hpVVL78vcesEAMOIU5vr0hFooBvipJurvU629RimIxV7tmIkAHgGAQok/HTXaQAQAsyihB8cbjHOsOSGvbyiTdFBNTgO+WJTUuf+9BSimAYy+/dbChPEDnxCnAfzeWev2M490Lhfc3AASGEH2KjahZjQYAwMiiONliUFZYW1GclCkDisjcf96QtEk1gGCUJN28/L0HNUoBPLz//LZYKAaEZFNSgyA9fOZKV+ZqACAwhOjTnSBoUAYAwBiDsrKkKpUodF8iowwomhP3n69SDSBI1y5/70H98m3uSUdxvfzDg0zcfw4EO5RXfk86p5SG+oDzzQ4s9gWAABGiT7lNNavSAAAYRU3sTCm61ShONigDimJtW0fH2nL/ORC2dUmNy7cflCkFiuTlHx4svvzDg7YIX4DQlZTvSE8pRViiOKmIRVAAECxC9OnbNKvTAAAYdmC2TiUgqcYVMSiCtW2l4lhboFDdHUnty7cfsFMPhfDKDw+OTlrh+F+gGEqSbi71+lVKEUjHJR+X16kEAISLEH02bpgwBACAQWWUAMayJBbkIWhr26pJukklgMIpKd+RzqkrCJoJ0BvipBWgiK4v9fqM78NQFwt+ASBohOgzbGTN3bYAAJzJnGDCBBtO2qIfgVCtbSuTdI1KAIVVknT78u0HKaVAiF754UEqqSWCF6DINpd6/cZSr88JY56K4qQqaZVKAEDYCNFnOzFQ5zhWAMA5A7NFSVUqgVP6Efy9QFDWtrW4ti3uhQVw5Obl2w9o6xAUE6Bz0goAKQ9gCdI9ZE6YvU4lACB8hOgzbnMl1SgDAOAMVbFLBafb5HoYhGJtW4vKj7XlXlgAJ12/fPtBRhkQgld+eMBVJQAeFykP0lcohScPLN/oQN8EAAqCEH32Ns0xvQAAPD44K4sjjXG2KiWA79a2dXQvLAE6gFPHzATp8N0rPzjI6NcDeNrQXwTpvo3BuW4PAAqCEN0NN6I42aAMAIDHcFoJzrNKHwI+I0AHMKDNy7cfNC7ffsCRt/COCdC5qgTAWUoiSHeeOQmOBVEAUCCE6O7IojihowQAODk4W6cSGACLLeClEwE6V1YAGMSqpMblOkE6/EGADmAIBOkO4xh3ACgmQnS3OkqZaZABAKhSAgxoOYqTlDLAJwToAEYUiSAdHnjlBweLr/zgoCECdADDOQrSK5TCOVVxjDsAFA4hunsTAhllAICCNwb5LvRVKoEhB/SAFwjQAVgYNxOkw1mv/OBg0bRz9OcBjKIk6e5Sr59SCkc6HvnpsRzjDgAFNC+pTRmcsh7FSZUyAECh0Q5gWOxGhxcI0AFYEklqfIIgHY45EaBHVAPAmG4SpDuDK9QAoKDmJe1RBudcj+JkgzIAQPGwCx1jqFICuIwAHYDtbpMI0uEQAnQAE0CQPuvORr5YnTkaACgojnN3V2aOigEAFEuVEmBE7EaHswjQAUwIQTqcQIAOYIJuckf6jDoZcbIo5mgAoNAI0d1VklQ3jTUAoBgDtIpY4YzxMMCHcwjQAUy6CyWCdMwQATqAKagv9fpstpq+LUnLlAEAiosQ3W3LkuqUAQAKo0oJMG7fgd3ocAkBOoApIUjHTLzyfQJ0AFNRktQgSJ9ixyLf2LZFJQCg2AjR3bcaxUmNMgBA8AO0itiFDjuqlAAuWNtWWQToAKbYnZLU+MSdXxKkYyoI0AFMGUH69MfVjGMAoOAI0f1wjV1lAFCIARpgw7JZlAHMzNq2FpWfqMTEE4BpIkjHNDVEgA5gugjSp9GZiJOypGtUAgBAiO6PWhQndJAAINwBGrvQYVOVEmBWTIDeEMECgBl1rUSQjgl75fsHGe0cgBkpScqWen3aOcbTAIAJI0T3q4PUMPexAAAYoAFnWWXxHWaoLoIFALNFkI6J+VgeoG9SCQCzbucI0idQ2HyTA+94AIAkQnTflJTv6gEAMEADzrNFCTBta9vKxMkaABzpZokgHZYRoANwrJ3LKIN1KSUAABwhRPewgxTFCR0kAGCABpxnkxNsME1r26qJYAGAY+NnEaTDEgJ0AA5aX+r1M8pgqdOQj59ZjA4AeIgQ3U+bUZyklAEAgsAADZNEfwFTsbatVNI1KgHAQQTpGBsBOgCHbS71+swr2LGl/CRYAAAkEaL77CZ3nQKA38yCKAZomPQkADBRa9uqSLpJJQC43O0SQTpGRIAOwAM3lnr9lDKMjRoCAB5BiO63Bse0AgADNOAMy1GcVCgDJmVtWyuS6lQCgAfyIP3fEqRjcB978xeZCNAB+KG21Ouz4WrUTkK+yWGZSgAATiJE91tJBOkA4OsArSxplUpgClJKgElY29aipEycqAHAoy6YCNIxIAJ0AJ4pSWos9fq0cYybAQCWEKKHMQlQowwA4B2O2ca0bLDgDhNSN31RAPBtDE2QjjMRoAPwVElSgzIM2TFgkwMA4CkI0cOwGcUJYQwA+CWlBJiSkqQNygCb1rZVExNNAPxFkI6nIkAH4Hsbt9TrZ5RhKMyrAwBORYgejhvceQoAnoxo42RDHH8MJgXgqbVtpZKuUQkAvnfJRJCOxxCgAwjE5lKvzxhwcCw6BwCcihA9LHVz/AwAwG0pJcCURVGcrFAGjGttWyviKiEAAbWPkhofJ0iHCNABBOfGUq/PGPC8jkC+yWGZSgAATkOIHpaS8iCdCQAAcHeAtihpnUpgBlJKgHGsbWtRUiZO0gAQWPdMBOmFR4AOIFCNpV6f9u1s7EIHADzVhyhBkBMANTFRDgCu4v2MWf7d40g/jCMzfU3All1J3SG/ZkUs5MBkxtGNj//bX1Z+8o8/tEc5ioUAHRO2M+T/f5H+FiwqSapLqlCKpyJEBwA8FSF6mDajOOl2Ws0qpQAA5xBiYlZKUZyknVYzoxQY1tq2tsQpGhhcR9KepIb5723z3/d+8D/NtfP/aW7sf8nfv/WrReWhuiSVT/nF0ZwYRh6k/7tfVn7yjwjSi+JjO7/INEeAjqHtm7ata37tmf8uSe3/8psXrb1DPvyff7aiPFg/2eZVRNiOwa0u9frVD55dqFKKxxr+/Ch3FmcCAJ6KED1c16M4aXdazTqlAABnBmgrYkIfs7WhfDcxMDBzD/oNKoFTdHQcIjQkdX/wT+e60/qX/3Bz/mRQf6rf+Ve/qug4eKiIcB3ndNdEkF4YH9thBzrOdRSWN0xb1/0vv3WxMc1v4G9fudQ+8V+fmON77q9+VjZt21EbtyLCdTzp+lKv3/jg2YUGpXhifAy/xh57Ol7ABAATR4getiyKk0qn1WxTCgBwArvQMWvrUZyUO60mA04MxNyDzqJMSHmQ0DC/2j/4p3MNH77pt/5w/uj7fPj3+Hf+1a8WlYcNR8H6Ko8XJxCkFwABOp5iR8eheftvfuui833m916+1NXxYraHnvvpz062cyzmhiTVl3r98gfPLtC2HSNEd3fc8fBdLKlLvgFgVgjRw1bScZBOBwkAZiiKk0UGaHBEKqlKGTCgmph0LaqToXn9+/9sejvMJ+2tP5zfUx6qHwfr//pXFeVBQ0WE6iBIDxoBOk7omLag8TfRdHeYT9p7L106asNrkvTcT39WPtHOcYR1MXE/+smGnqPcXXPnaOxBYA7AJYToxRj8ZyK4AYBZY4AGV6QiRMcA1ra1IUKGoukon7zKvv/P5go1efXWH8w3zM+u3/nXD3eqb5h/spCkuGNpgvTAEKAX3r6OF1E1/ia6WJjP9nsvXeoqnx/MJKn805+tmHZuQxz/XiSrS73+1gfPLtQoBYsJHHDr6H3MBkAAriJEL4b1KE5qnVaTY4QBYHZSSgBHLJtTahqUAk+ztq2yzCQrgtcxz7r+/T8KZ7f5ON76g0d3qv+9//VXK6Yd3xCBetEQpAeEAL2wds37PPublYvsbjS6L11qKz8muVr+64e71DckrVOd4N0w96MX/fPAhrPZjT1qkuoE5wB8QIheHNeiOGl3Ws2MUgDAdEVxUhZHw8ItqR67NxF4TCZOzwgZwfkQ3v78fFvSlqStE4F6ymekOF05EaR77zcI0IvmaMd5jeD8fN0Xj3epm0B9w7Rz7FAPu6+/UtiGPZ+jYWHkdN2RVGMxPwDfzFOCQqlFcbJCGQBg6jgJBK7ZjOJkkTLgNGvb2hILf0K0r/zIxPjNP5pb+f4fzdUI0If39ufn229/fn7r7c/PL0r6lPIJQYTvKEin7fQQAXqh3JF09d2Vi4vvrlxMCdCH133xUrf74qVa98VLK5Kek7Rt+hAIrF1b6vWrBf752YU+3ffyc51Wc4MAHYCPCNGLpSSpzqQ5ADBAA8QVAziFOca9SiWC0pF09c0vzC2++YW59M0/miNQsOTtz8/X3/78/IbykOF15UcGI1x5kP7vCdJ98hsNAvQC2Dfv4OfejS9uvLtyMaMkdphAfav7wqVFSVcl7VCVoFxf6vUrBf3ZKzz+qYxBrpjwvEs5APiKEL14lmXu9gMATF4UJ9yfClellACnqIsjqkOR7zr/wtzKm1+YyyjH5Lz9ufnu25+br779ufmyCBmC79qJIN0bBOjB60i6+m58cfHd+GL13fhil5JMTveFS1n3hUsV5QvHblGRYGRLvX4R27QKj35i9iV9vdNqrrDzHEAICNGLaTWKkxplAICpSCmB9QEZ7Ii45gUnmWPcufvS/3fk65Kee/MLc+mbX2DX+bS9/bn57O3PzVckXREhQ7DtpwjSnUeAHrQdSVfejS+uvBuz63zaui9c6nZfuJRK+nXT52B85rdlFewUKjMGZtHw5N7PK51Wk9wBQDAI0YvrWhQnKWUAgIkOzhYlrVMJa3bF0fi2bVECSBzjHoCj8Lz85hfmqm9+gbvOZ+3e5+Yb9z43n4ode8F280SQ7iwC9GDdkhS/G1+svBtfbFCO2eq+cGmv+8KlqqSyCNN9d22p1y/S4moWkk/G651Ws8LR7QBCQ4hebDfZgQYAE5VSAquq5jgwjsm1h0UJOJKJHRk+Og7P/3iu+uYfz+1RErfc+9x8995nCatKnT4AACAASURBVNMDRZDuIAL0IN2S9Ny7H7+Yvvvxi5yw4pjuC5f2dj9KmB7IWKAoKjxu6+ORq51Ws0opAISIEB0Ns1MSAGBfSgms2em0mhl1ta7EyTQwx7ivUgmvEJ575t5nHwnT71CRYESSGjFBuhMI0MPr/0u6YsLzLuVw2+5HCdN9b8+Wev1qQX5WNpTZHZNUTszVAEBwCNFRktSgDABgeQSan/TB3cL2PBzQm+PB2M1nT0oJimttW4viGHff3JK0QnjuJxOmbyi/M52TVQLp9okgfeYI0IOyK+nKOx+/WHn34xzb7t3DezRM36YiXtla6vXLBWm3Mb6jAJ0TQgAEjRAdkhRFcZJRBgCwOwClBNbsmGPcT6pSFmtWozgpU4bCqolj3L15F0qK3/zjufTNP+bOc9/d++x8495n5yuSrioPjOD5mFoE6TNDgB6MfUlff+fjF8vvEJ57z4TpW8pPYGHRmB9KCvxY9yhOKjxma1ICdABFQIiOI5sc5woAVnHXtD3Vx/8HdqPbHwBTguJZ21ZFhA4+2Jd0deeLc5WdL84xURWYe5+Zz5QfK/o61fBeHqT/B4L0afqNuwTogdiWVH7nExdrlCIsux+91N19/lJF0qfEojEfrC71+iHPZXCUux2vd1rNOmUAUASE6Djppjl+GAAwBrMoiZ2ddpy2C/1IRnmsSSlBIfEZct+2pPLOF+d4VgG795n5vXufma9KisVuPe+7gSJInxoC9CB0JF155xMXt975xEWuKAnY7vOX6mLRmC9qS71+qO0Y897j2+m0mlXKAKAoCNHxuAZHugLA2FJKYG8A/7TfMOE6YYMdy1GccHpCgaxta0vSMpVwVkfSlZ0vzm3tfJF7z4vi3mfm2/c+M1+R9HXlJxDATwTpU0CAHoTX3/nExZV3PsHR7UWx+/ylvd3nL1WVLxrrUBF3x4YK93q6Mo93LPtivgtAwRCi43ElSfUoThjwA8AIzEKkVSphxe4AR4RllMkaQvSCWNvWok65JgHOeH3ni3MrO1+ca1CKYrr3mfma8p1SLBTzuEsogvSJIUD3XkdS/M4nLtIXKeog7/lL7d3nL7Er3W3Xl3r9coA/F3M146mZq/UAoDAI0fG0AT/3UAHAaFJKYG+Adt7/odNqZmK3ni2bLKIr1GeLKyfcsysp3vniXJVS4N5n5rvsSg9iXE2QbhkBuveOdp+3KQXYle68LKhGmbHuuPZFXgCggAjR8TSbUZxsUQYUVIUSYAwpJZj6oD2jVPz9xWDWtrUiwgcXbUta2fnSHKECHnH/tQs10zclYPATQbpFBOhey3efX2b3OR61+/yl9u5H2JXuqNWlXr8S0M/DfejjqXVaTa6ZAlA4hOg4y40oTiqUAQAGY+6U5o5hO24NMUBjNbQ9LKALH58Xt+xL+tTOl+a2dr7E3ec43f3XLrTvv3ZhRfliC3jYRRRB+th+kwDd6369pMo7l9l9jqfb/cilqqQr4vQV12QB/SxlHudYYxbGkQAKiRAd56lHccJKPQAYDHdKz2Cwbu7kYoeeHcu0++Fa21ZF3APoko7y3ed1SoFB3H/twpakT4mAwUcE6WMgQPfWvqSr71y+mL5z+SILxXCu3kcuNZQHnTtUw53x4VKvnwbys5R5nCOrswsdQFERouM8JUkZ98YAwNnMe5LJPTt2O61mY8ivYVW0PexGD1dGCZxxa+dLcys7X5rrUgoM4/5rF+rKjyNl8ZiH3UVJjfg/EqQP4zffIED3VEf57nP6HhhK7yOX9nofuVQRx7u7pLrU64fQdrFYfHTMtwAoLEJ0DDrYZ+ADAGdLKYE1o7Q5dbEzz5YNFs+FZ21bqbhuwgX7kq7ufGmONgMju//aha7ye9JvUQ0vx9YE6QMiQPfWHXF8O8bUy4935/QVNywrjIXWtL2j2e20mrzPARQWIToGtR7FSZUyAMBTpZTAmmzYLzBHi3Eksh0lcTVBiOjHzd6+pMrOl+YySoFx3X/twt791y6kkr5ONbxDkD4AAnRvbb9z+eIGx7fDht5HLtWVLxrj9JXZ2wpgN3qZxziSBiUAUGSE6BjG9ShOmFQHgMeYO6QjKmHFjrnjfBQZ5bMmpQThWNtWVexCn7WOpPLOl+fYxQGr7n/6Qk3s1POy+yiC9KciQPfW1b9Ofo1rgWBV7yOX2sqDdO5Jn62S/N+NznhoNGxWAFBohOgYVmbCIgDAMSaLLLYzo36huUd9lxJasRrFSZky+G9tW4u8o2bujqTKzpfn2JWHibj/6QtHO/UI0v1CkH4KAnQv7UuK/zr5tYxSYBJ6H17Y6314oSKuMZm1rUDuRsdwGpQAQJERomNYJeVBOp0mADjGKR127HdazWzMP6NGGa0heA3nOZYow8zcanx5boMAHZN2/9MX2sqPKeXIW78QpJ9AgO6lXUmVv05+jZNWMHG9Dy+kkl6nEjNT8nW8zYaw0d/x5uo8ACgsQnSMOtDnKBcAyAdjqQiobKk78mcgx+IQz7ELfea+3vjyXEoZMC33P31hT9wd6+v4uvBBOgG6lzqSVgjQMU29Dy9UJV2lEjOzudTrlz38vlmsNhre7wAKjxAdo1qN4oTdfgBA0GjT2O2KuU/9DqW0YjmKE/5++41d6LNztfHlOfrKmLoTQTp3x/ol0hhX2vjuN9/4xZYI0H3TUb4DnR2KmLrehxcyEaTPUpUSFAYhOoDCI0THOK6ZHZgAUEjmzuh1KmFFp9Nq2hqgZZTTGtp5T7ELfaauNr48x3sIM3P/0xf27n/6QkXcHeuTfRU0lPjN/+cXqaQb/BXwq98uAnTM2IkgfZ9qTN2Gh3ejl3lsIyFEB1B4hOgYV417ZQAUWEoJrMls/UGdVrMuJlNsWTeLReAfdqHPBgE6nHH/0xdSEaT7YF9SpfV7HyrcRLUJ0G/yV8ArBOhwhgnSK4z9pq4k/xbrMqYdDe96AIVHiA4bHad6FCfcLQOgiFJKYE3m+J9XZBzpzvsJg7na+BPePXALQbrzCNDhEwJ0OKf34YW2CNJnYcvD3egY9qXfajaoAoCiI0SHDcuSaFQBFEoUJxXz/sP4bnVaTduTcdxFbA9HgntmbVsp76epI0CHswjSnUWADp/kAfqrBOhwT+85gvQZ8HE3OgAAQyNEhy1RFCcZZQBQICklsKZu+w/stJpd5ZN9GN+yWTQCf1QpwVQRoMN5BOnOIUCHTwjQ4TwTpBPqThf1Dr+vAgCFR4gOmzajOEkpA4DQmSssNqmEFbvmDvNJYDe6PbTvnljb1obYhT5NBOjwxo/+yYVUBOkuIECHTwjQ4Y33n1vIJF2lElNTWur1GSeGq00JAIAQHfbdjOJkhTIACBx3RNtTn/CfzeppS3/nzeIRuI8dIdPzOgE6fEOQPnME6PAJATq8Q5A+dVVPvk/GsgCAkRCiYxIaTLQDCBwhlT0T2y1u7lmvU2IrSmLxiPPWtrUiaZVKTMWtxp9wbD78RJA+MwTo8AkBOrxlgvRtKjEVy0u9fsWD75MNXwCAkRCiYxJKkhqUAUCIzGkbEZWwYsfcXT5JGWW2hsUjPCPk7jT+hCsO4DeC9KnLA/R/WLwA/bcI0H1EgA7vvf/cwhbt3NRUKQEAIFSE6JiUKIqTjDIACFBKCayZeDvRaTUbknYptbW2vUwZ3LS2rUVJm1Ri4jq0AwgFQfrUEKDDt3aOAB1BeP+5hdT8ncZkrS71+owTAQBBIkTHJG1GccKOKAChSSmBFfua3lHrNcptDe06z6bo762Nxp+IYAHBIEifynuDAB2+IEBHiCpiUTVjEQAARkSIjkm7EcVJhTIACEEUJ6nyKyswvrq5s3waMsptTUoJeDYFVml8RV3KgNAQpE9McQP0/5sA3UME6AjS+88t7EnaMO9kTHAsstTrL1IGAEBoCNExDXWOfwUQiA1KYM3UdoebsP4OJbeiZBaTwCFr29qQtEwlJupq4ytqUwaEiiDdOgJ0+IQAHUF7/7mFtlhwOvFxopgvAQAEiBAd0+pI1aM4YUUiAG+ZxUDrVMKK3U6rOe1J5YyyW8PkiHtSSjBRtxpf4R2C8P3of7yQiiDdBgJ0+KQjqfLT3yZAR9jef26hLmmbSkyUy0e6N3g8AIBREKJjWiJxJy0AvxEc2jP19qDTatbFXXi2rHPCjDvWtlUWC3wm+voQdzyiQAjSx0aADt/aOAJ0FMb75YUtSTtUYmKipV5/hTIEg81wACBCdEzXZhQnTEIC8BXvL3vqBfv3hiilBDyLAtiXlN79iggXUCgE6WO9MwjQ4QsCdBQV96NPFvMm4YgoAQAQomP6bkRxwm5OAH6NHOKkIu4btuVOp9XszujfzYko9qSUgGdRAFt3uQcdBUWQPrQ8QP99AnR4gQAdhfV+eWGP/vNEMecLAAgKITpmIYvihON9APiEQbbFNmBW/2IT3nN8nx3LZnEJZmhtWxWxwGdS7tzlHnQUHEH6wAjQ4RMCdBTe+2XuR5+g0lKvn1KGMHCNGwAQomNGHSrlQTp3qwDwYdCwKFZT27Jv7iafpYzHYE1KCXgGgdqltkCOIP38vo0I0OEPAnTgWNV8JmAf8yfhKFMCAEVHiI5ZiUSQAcCfAWCJMljhwnu/Lu7As2WTBXFOvJ9gH/egAycQpD/VvqTKT4oYoP9fBOgeIkAHTuBY94laX+r1XRsnNngsIylTAgBFR4iOmXaqojipUgYAjtuiBNbM/E7yTqu5pzxIhx2EuDOytq1ULPCZhO27X2GSDXgcQfoTCNDhEwJ04BTvlxfakl6nEhORUoIglCkBgKIjRMesXY/ihI4VACeZ+58iKmFFx9xJ7oIaj8MaFpnMDgsY7NtVfrQngFM0/4cLqQjSJQJ0AnTP+uCSKj/9rwnQgdO8X16oimPdJyGlBEGoUAIARUeIDhfUojhZoQwAHERAaPFd78o30mk128rDMowvog2fvrVtLUpapxLWcYw7cA6CdAJ0PgVeIUAHGPfPbJy41OuXHfp+ujySkTDWB1B4hOhwQUlSnXtVATgopQRW7Mu9I9TZjc7nxGfsQrfvDse4A4MpcJBOgA6fEKADA3q/vNCQtE0lwh2zOHQqnm9KLJoHUHSE6HDFsrijFoBDojjZEPcN21I3d5G7JOOxWJNSgqkjRLdrX+xAAoZSwCA9D9D/EQE6vECADgyvat71YJyIR1UoAYAiI0SHS1ajOGFnIAAGfOHJXPuGTKh/h0djRSmKEz4vU8JR7hNRvftVjngEhlWgIJ0AHT4hQAdG8H55YU8sqrTNtSPdd3gkI6lQAgBFRogO11xjIh7AzEd6cVIWIZUtu51Ws+Ho95bxeKyh7Z4edqFbfkfd/SrXOwCjKkCQToAOnxCgA2N4f3khE0ErYxc8bp0rWAEUGSE6XFTjvhUADPSCkbn6jXVazbqkXR6RFatm8Qkmr0IJrEopATCegIP0wgbo0f9JgO4hAnTADnaj2+XS3EqbxxHEcwSAqSJEh4tKkhqscgPAwDkImePfX51HZE1KCaaCCQx7du5+VQ3KAIwvwCCdAB0+IUAHLHl/eaGtYlxVMi2rS72+K/O7vCMZ6wPA0AjR4aqSxKQmgOmL4qQiaZlKWHGn02p2Hf8eOcaZgbU31ra1YfpI4O8s4Jzmf38hVRjBAwE6fNKRVPmrv0eADlhUpQRWubIImJ3oo1s1c2UAUDiE6HB6DB/FSUYZAExZSgmscX6Xtwn5uffOjuUoTtglPVkVSmDNrbtfVZcyAHYFEKQToMMnBOjABLy/vNCV9DqVsMaVMSLvyvGklABAERGiw3WbUZzQSAOYCnONBCGgHfudVjPz5HvNeFzW8Pmhvr6oUgJgMjwO0gnQ4RMCdGCyaqZdwPgqTrw0W80Gj2Ism+xGB1BEhOjwwc0oTlYoA4Ap4KhkezKPvte6mCCxObBepAz2rW2rLK6asIVd6MCEeRik5wH6PyZAhxcI0IEJ+2B5YU9c/WVLaanXrzjyvezyOMZSpQQAioYQHb5oMCkPYApSSmBN5ss32mk19+TB0fN8jgqPXej2VCkBMHkeBekE6PAJATowPexGt6fiyPfR5VGMZTWKky3KAKBICNHhi5II0gFMUBQnZUmrVMKKTqfV9G0iml0G9qSUYCIqlMAKdqEDU+RBkE6ADq/62CJAB6aG3ehWubIguMGjGFuVE2MBFAkhOrwa59N5BTBBrKa1J/PtGzahf4dHZ6e9ZlA9ERVKYEWVEgDT5XCQvi+p8p+KGKD/H79MRYDuXXdVBOjALLAb3VLTs9Tru7AxqsujGFtJUsZGNwBFQYgO32xybAyACeGoZHsyvu/Co622aG1bFeWTFRgPu9CBGXEwSCdAh08I0IEZMbvRufrLjooD30Obx2CnOyFOjAVQEPM0HufakXSHMjjlRhQnFcoAwFrvP042JC1TCStumTvGfZTx+KzZYEBtFf0eOzjRCJih5n93IZUbQToBOnySB+i/Q4AOzFCVEoQxpvHw2jmnuxUiSAdQAPOS6IifbVH53Z4c8eqWurm/GABsSCmBvfezr9+4Cf9v8QitKInTHWyqUIKx7dz9KouHgVlzIEgnQIdX3VMRoAMz98HyQpdxYlBjmh0ehb3uhQjSAQSO49wHaAzMpHoq7sBxSUl5kE4jDWC8l3z+HlmnElbsdlpN34+646g+e1JKYM0qJRhbRgkAN/x4dkE6ATp8QoAO0JcMrjly5F50FtZafq6S2lGcrFAKACEiRB909JIf98KOKvcaaTqxAMaVUgJrvH8nm0UAuzxKK1Y5NWZ85j50jGf37tfoMwIumUGQngfo6wTo8KNLKgJ0wCkfLC80xCmlNrgwtmnwGKxbltSK4qRKKQCEhhB9mFFMq9mQ9HUq4ZR1GmgAY9qiBNZk/Bzg82UdK/r5TANBmmKQToAOnxCgA+6qUYKxVRz4Hho8hom5HsUJu9IBBIUQfdjRTKtZE/fguNhAc0oAgKGZjv0ylbBip9NqdgP5WTIepzW0z+OrUAI+00CophCkE6DDJwTogNvq4qrPcc08XDXXtnKqwAS7IMp3pWdcwwogBIToozW2KY2tczJWuQEYAbtkLb6HA2rnu5J2eKRWLLPQbWwVSjCWO3e/pi5lANw1wSC9sAH6yv9OgO5jF1QE6IDTPnh2YU95kI7RrTryfTR4FBO3KakbxUmVMB2AzwjRR1cRqw9dUlIepNMoAxiIeV8Q7tmx32k1s8B+pozHak1KCUaztq2y6eOAzzIQtAkE6UUO0DdEgO4bAnSAvmVhLPX6FQe+jQZPYipKkq4rD9NrUZyUKQkA3xCijzrCyY9+qYgg3SURnVkAQ9gQ4ZQtwa3GN4sCaOPtWGeR28g4ZWc8+3e/xm4hwBc//tSFVHaC9CIH6CuMif3rdkqq/NXfJ0AHfPDBswsNSbtUwvsxToPHMFUlSdckvRfFSSOKk5SSAPAFIfo4I51Wsy2OAnbNehQnNcoAYAB02u0J9b1L+MbnbdYI0fkMA4ViIUgveoDeEItEfbIvKSVAB+hjMsaZLu5Fn6lVSTejONkz96anLLoH4DJC9PEb3UzS61TCKddY0QbgLOYIqVUqYcWuWVQWIhZl2cOiw9FUKMFYMkoA+GeMIJ0AnQDdJ/vKd6C3KQXAOLFozRZjBZg+y6byK2j+zuxQr0ZxwhgYgFMI0S3otJpVSXeohFsd2ihO2L0F4GkI9Cy+bwNu39tidboty7TLI6Fmo9t942sc0wj4aoQgPQ/QNy4QoMMH+5Iq/5kAHfDSB88udBknjiVy5PtgrOCWVeX3p9+N4uQwipO22alejeKkwnwCgFn5ECWwJjWNb0QpnFCSVI/iZMUc0QMAJ21QAmuyAvx8N3jMVmyJY90HtratsghExtGgBIDffvypC+nl2w+kfJfSWQjQaS98QoAOME4svKVev2Lul5+ZTqvZjuJkV9IyT8RJkY5zluuSFMXJw8cnifn+4bUfq1vX/JKkbqfV7FIi4EmE6PYa3r0oTjbMy4gBrBuWld9TVKEUAB72wvN3NYMkO+4UYKFSJiZHbNmI4mSRxW0DY6X9eLirEgjAAEF6cQP0/+2XK5ojQPcMAToQjgYlGHus40IN65Ku8Ti8wybG0Zx5reWJRQo75p9HoXtb0l6n1eS9h0LiOHeLzGoddjc61jhEccJdRQBO4j1tT1aAtn1Po93LiieV+PwNhRB9dPtvfI0QHQjFGUe7FztAZwe6d22TCNCBYHzw7EJb0i6VGFnZke8j41EAT1g1v64pPwXgto6P2e+euL8+5Zh9FAEhumVmRc5VKuGUa1GcpJQBQBQnizr/SFAMZrfTahYlpCKMs2eLEgyMwSifWQDGKUE6AToBuk8I0AH6nHBwrNNpNVkMAQxnWcf319+U1DLheiOKk5oJ1suUCSEhRJ9MA5yJXWuuucnKKADiPmYmDEZr1+sMrK2JGFANjDqNrkEJgPCcCNL3JVV+TIAOP+QB+j8gQAfoc+Jkk+bQ98JiCGB8RzvXb0p6z+xYr0dxskUmA98Rok9Ip9VMJXWohFudW7MLFUBxpZTAmqJdlZHxyK1hN/pguOdtjD4fJQDCZIL0FQJ0eIIAHQjYB88uEL6OrrTU67syR8s1oIB9y5LWJd1Qvlu9G8VJZnaqk8/AK4Tok1URO9ec6qCJSVWgsMzKR0IpOzqdVrNbsJ8547Fbk1KCs61tc5T7OO+nN76mLmUAwvXjjQuF+4wToHuJAB0ohh1KMHrz5sTgIZ/bYCMcMFnLyq/XvCnp78zx71ucVAgfEKJPthHek7RhBk9wQxTFSUYZgEJi96s9hVupbQbWTJDYUYriZIMynImV2aNrUAIAISFA9xIBOkDfEwM0cQ59L+xGB6ZrVfku9feiOGkTqMNlhOgT1mk12yK4cc1mFCcpZQAKh9DOjn0V986wjMdvDe3w2SqUYGQNSgAgFATo3vaVCdAB+p44n0sLh+tiExwwK5GeDNTZWABnEKJPQafVzCS9TiWccjOKkwplAArSG8sXzjD5aGlwaU5aKWp7zsDajnVWGZ+JAePoGpQAQAhW/iMBuocI0IGC+eDZBfqeo6s4NNbfU3E3CwAuOQrU/y6KkzqnGMIFhOjTa4yrku5QCafUmcAHCiOlBNZk/PywhMHQ03En+ohd7je+pj3KAMD7RoAA3UcE6EBxce1XGKqUAHDKuqTbUZx0ozipsjsds0KIPl2ppA5lcEZJeZDOCxgImFkss0olrNjttJqNgtcg46+BNVx383RlSjASggsA3iNA9xIBOlBsDUowEqfmaTqtZlcsiABctCzpuvLd6VkUJ2w6wFQRok+3Md5TvuuKo2DdEUmqUQYgaCklsKbw78tOq9kWC+KsDYS4WuXMQSKG16AEAHwWE6D7iAAdAJ//cFQpAeC0TUmtKE4azCdhWgjRp8ysauP4UsdevlGcsBsOCFdKCazhjrAci6/4fE7M2jb3oY+BCUwA3iJA9xIBOgD6oGNY6vUrLn0/5uS9XZ4M4LxVSXejOGlHcZJSDkwSIfrsGuSrVMIpN1i9BIQnipMNsaPTljtmIRhYTGDTJteqPIGjyUb0xteYwATgJwJ0L+UB+u8SoANF98GzC11x6mhIqpQA8EYk6aa5N52Nq5gIQvQZ6bSamaRbVMIpde7UAIJDB8riO5ISPGzD92jD+ZzCvY8mJQDgIwJ0LxGgA3gc74PRVBwc72diNzrgm2VJtznmHZNAiD7bRjkVE34uKUnK2BEHhMF8ljephBX7ZiCJY9TDHq5UeRQDvtEwcQnAOwTofvaLRYAO4EkNShCUKiUAvHR0zHsjipMy5YANhOizVxGr21wSiWAECAW7W+3hvfgY7kqz2/ZyEgws6FICAD4hQPfSvqTK/0eADoC+qC1lR8f7GeN9wGurkt6L4qTGhkmMixB99o3ynvKgh7tz3LEexUmVMgDeY3erPRkloC4TllKCh8qUYCQNSgDAFwToXiJAB3CWLiUIbuxT5fEA3rsmqRvFCXPEGBkhugM6rWZbTB675noUJ+xiBTxldrVGVMJOM2XaKTwpowTW0A86VqYEI9mjBAB8QIDuJQJ0AGf64NmFBlUIi9mNzjWsgP9Kkm6YI945BRFDI0R3p2GuS3qdSjgl48UKeCulBNbUKMFT2+6upDtUws6gJooTPrcY2RvXuBMdgPvi/0CA7iECdADDvC8wHNfnXdm9CoRjVVKLE4gxLEJ0h3RazaqkW1TCGSXlQTr3ZgD+SSmBNXVKQH2mhBNgcmVKMDTuKwTgPAJ0LxGgAxgG74rhOd0mdlrNhlg4D4TmehQnbTZPYlCE6O7ZEkfFuCQSAQng14c2383K5KQdtzqtJkcknz2ozsSOA1vWozgpUwYtU4KhdSkBAJcRoHspD9A/+V8RigEYFGPnMLEbHQhPJHalY0CE6I4xYcWGmJB3yWoUJxxnDPiD3az2ZJSAOk1ZSgkwAiYsATiLAN1LBOgARsE7YwRLvb7TJ4Caa9y4ghUI09Gu9DKlwNMQorvbOFeohFOucVcr4D7T6VmnElbsmqPLcL6MElhDW4tRMGEJwEkE6F4iQAeA6fLhSOWauEIKCFUkqR3FCZuycCpCdEd1Ws22pKtUwq0OE3dlAM5LKYE1GSUYqs3mKhY7lqM4qRT1h1/bFv0MAAgEAbqXCNABjIN3R7hj/j0x3wSErCTpNqcR4zSE6G430JmkW1TCqZdpPYqTRUoBOItBjT0ZJRgKHW0+xzbQxxgNE5YAnEKA7iUCdADj4oqhgJmT+pinB8J2zRzvztwMHiJEd7+BTiXtUAlnLCufDAHgGLN7dZlKWLFjrhbB4OqUwJpNBiwYEhOWAJxBgO4lAnQAwCC2TJsBIFyRpC4nEuMIIbofNsS9K069SKM4ySgD4JyUEljDO25I5ng3VqXzeQYAFFj87wnQPUSADsAW3iOjKXs27mesCoSvJKkRxQmfdxCie9RAb4iVbi7Z5CUK67zDzgAAIABJREFUuMPsWt2kElbsm+tEMDzqZg9tLIbRpQQAZo0A3c9+rwjQAVjywbMLnI40mrJP32yn1axL2uaxAcErSboZxUmVUhQbIbo/DXRbTCi75ibHegRrlRJ4Z4MSWMOx5KO31Q1xcowtEW0sBvXGNUJ0ALNFgO6lPEBfJUAHAAytKqlDGYBCuM6pxMVGiO4Rs9LtdSrhlAb3tgJO2KIE1tQowVjoWPO5HkeFxw4Afvk4AbqPCNABACM7caw7p8YCxbBJkF5chOj+NdJVceeqS0rKJ0wAzIjZrRpRCTvNjDn5BKOjU20PJ0wAAJxGgO4lAnQAwNjM3AkbOoDi2IzipM2GyuIhRPfTljgyxiURK5GAmUopgTW8y8YfSHcl3aESVpSiOOHzDQBwEgG6lwjQAUzaDiUo1Pg/E5vdgCKJxMnEhUOI7mcDvad8dxZHxrhjM4oTVh8Cs5FSAmsySmAF98rz+QYABIwA3UsE6ACASWCzG1AsBOkFQ4juKbPTrUIlnHIjihOeCTDNXkucbIjJS1vumEVaGL+NzsRCN1tWozgpUwYAgCsI0L1EgA4AmNT4n81uQPEQpBcIIbrfjXRb0lUq4ZQ6k/3AVKWUwJqMElBPPucAAJyrK4mFh/49sy5lAABMApvdgEKKxNxfIRCi+99IZ5K2qYQzSsqDdFYhAZPuqeQLVtaphBW7nVaTI8jtqlECa1JKAABwxU9+/0PsOPNw6CCp8bGdXzBOBwBMBJvdgEJaj+IkowxhI0QPo5HekrRDJZwaoBOeAJO3QQmsIUC33zZ3xb1otiybqxsAAHDCT37/Q23lO84I0v0apxOkAwAmOQ+QSfo6lQAKZZMgPWyE6OHYEJP1rr08q5QBmKgtSmANC3+oq+tSSgAAcAlBupc4dhMAMFGdVrMm6RaVAAplM4qTlDKEiRA9nAZ6T/kEMwN4d1xn5xwwGVGcVCQtUwkrdsyuadhXp122Zp2rUgAAriFI97NP8bGdX2SUAcCErFACdFrNVATpQNHcJAsKEyF6WA10W+zUck0WxQkdaMA+3nUW31OUYGLt8p44Kp/PPQAgaATpXtokSAcwISVKADMfkIogHSgasqAAEaKH10DXxd0rrnWeM3bPAfaYzxMr++zYFyHvxDvQlMCaIlzh0OAxA4B/WgTpPiJIBwBMFEE6UDglSXWyoLAQoofZQHP3ilu4dw2wa0Os7ralbnZLY3JtckPSLpWwYpkVvTjN2rYYoAKYOYJ0LxGkAwAmPSeQinl6oEiWRRYUFEL0cG1J6lAGZ6xHcVKlDIC19xvsqFEC6sznHwFgcQUAJxCke2nzY28SpAPADAW/sJ8gHSgcsqCAEKKH2zjvMXh3zvUoTlLKAIwuipOy8tMdML7dTqvZpgxTwZH59mxwLBYAwGWtf0iQ7iGCdABjW+r1K1RhJIWYlyBIBwrnehQntAsBIEQPu3E+CtLhjhpH0QJjYReqxfcRJZhae9yVdIdKWFFSfqUDAADOIkj3EkE6AGDScwOppG0qARRGxkYQ/xGih984tyVdpRLOKEmq8/IERpZSAmvYHT3ljjMl4D2AialQAgCuIUj3EkE6AGCiOq3mlpirB4qC+9EDQIhejMY5E6vcXHt5El4BQ4riZEP5QhSM747ZHY3ptcV1MYluy6q52iE4b1xTg8cLAOEgSPcSQTqAUVUoAQacH8gkfYr+AVAI62ZOG54iRC9O47wlaYdKOGM1ihOOUgaGk1ICazJKQN09x9UOOKlMCQC4iiDdSwTpADA93SL+0GahfUXSLn8FgOBxrLvHCNGLZUNShzI441oUJyllAM5ndp2uUwkr9s1gDdPH4im7fRrgSJkSAHAZQbqXCNIBDGuFEgzvg2cXukX92c01rCti4xsQupLYWOMtQvRiNcx7yndyMnB3Ry2KEzrZwPkIzOyh0za7drgrFrPZshzwcVj004ZXpgQAXEeQ7iWCdADDYJchRpkn2Ou0mhVxFSsQOo519xQh+gBCCjnNCreUp+qMkqQGx3kA5+LoZnvYDU39QxFqf6bNox3aMiUA4AOCdC9tfuz7BxllADAANskMj/bQMFexck86ELYaOZB/CNEHE9RfbHOM79d5rM4oSWpQBuB0ZiETAYmlJsDshsbs1BkUW7NurnoAtLbNbnQAfmj9HkG6hwjSAQyiRAmGxgLiE8yc/Yo4wQ4I1bLYKOYdQvTiNso1SbeohDOiKE4YlAOno3NhD7ugZ9/+7ikP0mFHiEdh7fFYR1KmBAB8cSJIhz8I0gE81VKvzzsdVnRazW6n1VyR9DrVAIJ0nQ0hfiFEL3ajnIqVbU4NyqM4SSkDcMwcccN9MfYQ3rohowTWhLjIht0Yo6lQAgA+MUH6VSrh15idIB3AU3A872hYQPwUnVazKumKpF2qAQSHTU4eIURHRRwj55Kb5uhqALkNcSSaLbfMLmjMfjDcYCBszXIUJxXKALETHYCHWr/3oUwE6b4hSAdwGubyRsMC4jOYuYMVSdtUAwjKOnNZ/iBEpzHeE0G6axoc6QE8lFICazJK4BRWnfKeeBomkkZD3wmAlwjSvbT5yvcPuHIKwEkVSoBJ6LSae51Wc0vsSgdCU6UEfiBEhzqtZlvcOeySkqS6OcYaKCyzmGSVSlixa1Ywwx0crW/PRmBtJidGjIb2AoC3CNK9dOOV7x+klAGAUaYEI2lQgsGc2JXOXelAGFbZje4HQnQcNcSZOBrGJZHYpQiwuMeejBI41+52Jd2hElaUlF/9EIouj3Q0a9/gGE0A/iJI99JNgnQAS73+oqRlKoFJM7vSq5Kek7RDRQDvZZTAfYToONkQb4kJfZdsRnFCiIgi26AEdMp4LhhQMO3lG9cI0cdAiA7AawTpXrr5yg8I0gH6oBgRV1mNoNNqdjutZkXSp8QR74DPlqM4oR/pOEJ0PC6V1KEMzrjBsR4ooihONsRKblvumF3PcG/gW2fAa++1Ya6ACAV/L0bDBCYA77UJ0n1EkA4UW4USjOaDZxe4ymoMnVaz3mk1y8qPeN+nIoCX2ETpOEJ0PN747ikP0ml43VEPLBgABpFSAnvvEErA82Hg4Z0uj3MkFUoAIAQE6V4iSAfog2I4bOKyVcj8iPeyCNMBH0VsonQbITpOa3jb4hhll5SUB+mLlAKF6Dnkf9fXqYQV+51WM6MMTqtRAmvSgH6WLo9ztCZk7RuivwQgCATpXiJIB4qJ05BGwy50i07cl16WtE1FAK9UKYG7CNHxtIa3IenrVMIZkbg7F8WRUgJreG+43952Je1QCStKAd0l1eVxjoxJTADBaP+3BOkeIkgHCmSp119RvvkFw2tQAvtMmL4l6dfFznTAF6tRnDCX4ShCdJzV6NYk3aISzliP4qRKGVAA3AVjT0YJeE4FE8pJOm0e5cgqlABASAjSvUSQDtD3xPnYiT5Bj+1MJ0wH3Md8uKMI0XFeg5uKO2pccj2KE47aR7DMqrtlKmHnFW6u54D76gxorVmP4qQcwM/R5VGOjH4SUACX6w+yy/UH7U/UHxTiCgeCdC8RpAPFUKEEozdvlGDyjsL0Tqu5aPoSzPMDbtrkOl83EaJj0A4hk/vuyDjeAwFj1Z3FdwUl8GdQqzxIhx2p7z/AG9eYUBoD96IDgbtcf5BJ2lR+5VWDIB0OI0gHwlehBCPrUoLp6rSaWafVXJF0RZw+C7iIfqODCNExSAO7J4J0l5SUB+lMECNE7CC0J6MEXqlRAgYdj9nlUY6sQgmAMF2+/TBAP0KQDtcRpAOBWur1K+I+9JF98OxClyrMRqfVbJjTZ39d0tcZewLOYHOZgwjRMWjj2uZD7JRIBGQI7S91nKQMQK25ZRZAwa92loGrHctRnFQC+DnYjT46FmQBATolQD85NiJIh8sI0gH6nHjUDiWYPXPUe63TapYlxZK2xSY6YJZCmc8KCiE6hmlYM9OYwg3rUZywcxEhSSmBNRwN7ife6bxPTiJEHx0TmkBgzgjQjxCkw3U3X/khQToQmAolGFmXEril02q2O63mlrk7/VPKj3snUAemj/6iYwjRMWyDuiXpDpVwxjWzexfwWhQnZUmrVMKK3U6rSYjup4wSWLMZwLUnhOijK619QyuUAQjDAAH6wy6lpMYn7vySIB2uIkgHArHU65dNuwPGOsHptJr1TquZmkD9ivJNdZycB0wHmwIcQ4iOUaSSOpTBGbUoTpgoRgjvFdiRUQJvB6p7YqEaA49jXR4h7QpQdEME6EeKFaT/Nx/KlN9lCn8QpAOMNUCI7g1zf/qWOfL9OdPvYN4CmJxSFCe0MQ4hRMcojeee8olJjnRx5MUqqR7AjjsUW0oJrMkoAc8PkqQtn7/5N64xsTQmBp2A50YI0I8ULUivKT9yFf4gSAf8x2d4zOaLEvin02p2zR3qG51Wc075LvXXxR33AG1MwAjRMWqj2RaTky5ZFncgw1Nmdd0ylbBip9NqdimD1+1rXRyTZu31EsBJLUxGjNE34kh3wF9jBOgP2wAVK0hPRZDuG4J0wFMc5T623Q+eXdijDP4zu9SrnVazciJUP9qpzrwGMLp1SuAOQnSM1VCKO9hcshrFSUYZ4CEW5NjDOyAMLIqyJ/X8+2eHRrGfP1BIFgL0IwTpcN3Nl394wIIvwD/MYTDGwSlMqH60U70s6dd1vFv9llgkDgw+kOFId2cQomPcxjFjoO6UzShOUsoAjzoEi7IzSfr/t3e/321c953HPzRtOnhE5jkNQo6lpCdnF0AaRJIdi5B3t7tnfwnOj7rddqvRbvfs1rFN6i8w9BeYapw4cdqjYZs0yf5oyP11dp9QYNOTxB7Zg2kSS/KPGKTxPOAjkOla2AczoCCJlEjiAjN35v06x8eOZSnkF8O5c+dz7/ciPGKD8DUdliiBMbaPibxgGg6TTsAyBgP03cdNEaQj2RoE6QBzjIxhjpMRge91BnarOwM71o/p9q71Swp3rq+Lo2OBQbzPSIiHKQEMDIhO1C6VVkbJcKVYrjSjlvsAk8/sWAl8j5Zo6RhXW8VyZV3SPNUY2nSxXHGiRX82YiwfztzZP1Xt6kssMAJsMIIAva8fpFffOvdw6p+Vmv/sYaf0f/6fxEJVa55VFAbp1etPTTHuAwk3u9nl/efwGpQg26JjCFv7XQvRhpvBBWZVqnZod9dwhnuXdQjRE+Jh8XIOZlSja4lzjRPyQFosVwoEarCAQwmMYfdyurgiRDd5n3Ft/MLXFtR85rK2FL5gx9EnnoToQMJ9/q8/djUx0tA3c0F68f8SpFskDNJ/8pvq9ScJ0gEL5hYYQjufa1AF3E/0PnvwOuGaMflQHG6GnFGY5/TDdt4/JfD5sFiulNgoGb+HCNlgcHCribYriZqEUwZY8NDGKkgzNnioSp0VxlRj5ovlSsHir5+f7eGcP/unmqEMQHJ9/q9HtgP9nsdPSY3f/u/ZaO0e/FNau9s4h/+tn9DaHUg4hxIMNzxRAiDmH0Lfaw602V8caLNfVthif1nSBpVKBHajJwBnosPoDVjSIpVIjGKxXHEpAxKM+4U57EJP35jaEbtnTXIs/tobfHyZ/vyBVBtjgL47RxJBOpKLIB1IsNnNriM6RDG3AdL63BiG60vR+fUF3Q7VWfwSH0L0BCBEh+mbrSvpEpVIjPPFcsWhDOBBIPVcSpBKLI4wx+axsMHHNzQWbQEJFEOA3keQjiQjSAeYU6QZXbYAW54hb4fqJUnHFGY+7FAf87ylWK7QWS9mhOgYxQ22LmmVSiTGlWK5UqUMSNQTQLi4gxXcZqxyNEt6JyxMUIyZK5YrVi7cWVsgRDfx+Z/9U/EsBCRIjAH67uOoCNKRXATpQMLMbnQL4sxgE5jbADY+S/peK2r/XpB0QdI6VRmbKiWIFyE6RsURrT6SZMXy82CRznsEzHApQaqxG90cm7tfMEEdHrvRgYRIQIDeR5COJCNIB5KlTgmGttHO51qUAbD8mdL33MD3qpLOincV48CzYMwI0TGqm2lH4cvqLaqRmAn4Cu0/kATRgg5WcBuahAa+x7nZ6eZSAmPOWzwONvj4hnbu7NdVoAxAvCrJCdB3H00lNT5HkI7kzuMJ0oGYzW50ZxI2dtmKOQ2QpudK32tEYfqzooviKFUpQbwI0THKG2lLnHmcJEWxoxHJ4FACYwjQ0z+WdsTLbu4/vHAypU4JgPgkMEAfnCcRpCOpCNKB+NHRiDkNgP2eLX1vJWrzfolqjAQb0WJGiI5R30QbCs/JQDKc5+EfCeBQAmNYGJMNLJbI+P2Hc9HNPQed/broygPEoPLfEhug9xGkI8nCIP2nBOnAuEW70HmPZgZzGiDNz5e+V5dUFrvSzU9UypUqVYgPITrGcQN1maAnyjlKgJgH/TkqYeb2GnX8QPrH0RUmIeZuQ8VyxdYX0Jw1ZgYvQYExsyBA3x0jJDU+9z8yEqT/ziMO83SrEKQD8XCinz8MOexwHjqQgR9032sqPMM7oBpG8fwXI0J0jOsG6nDzBCB2oZvELvRscSmBMbaGqHQkMPT5sxsdGB+LAvQ+gnQkGUE6wNzBVg1KAGRD4HudwPdKPGMaxbNfjAjRMU5VsZMOyKxiuTIju16iJtmWCNSyxqUExtSi+5FtGnx0RkyLl6HAWFgYoO8+toogHckexwjSgTGY3eg6opMecxkAR3vGDDdVrlIJIwqUID6E6BjnjbMjqaYw/AGQPTVKYMxKdE9FdsbQlmjnbcq0jfejtQU1xWJEU9iNDoyYxQF6XxaDdF5y2vUsQ5AOjFB0Fjrd3wxp53NsAgCyyRHdiU2YpwTxIUTHeCfn4bkY7P4BsomffXNcSsDnjqEncjZq8NEZwW50YIRSEKD3ZSpIFy85bRzLCNKB0VkUZ6GbwiItIKOiDUCO2FQ5/MSkXOGZLyaE6Ijj5ulKukQlgMwN9EUqYcRG4HsNypDZ8ZOJhxnzxXKlYOHXzQ4Oc14++3VaogGmpShA332MVUaC9OB3HukoPIKNIN0eBOnACDwW7kJnwSVzGAAmnjHDTZV1KjG0AiWIByE64rp51sW5a0CWOJTAGFrKZRsvIMyx8cVYg4/NKCbygEEpDND7CNKRZNOSVn7rp7/hmBLA7DyBXejMYQCYesb0vSWeL4fGosmYEKIj7odSbp5ANjiUwBhC1GxjEYU5Np6L3hHtEE06f/brqlIGYHiV/5raAL2PIB1JNiep8ZmfEaQDw3pso1uQ9DKVMDestPO5FmUAIDp8DKtACeJBiI74nqLCMzFqojUtkGrFcsURq7hNWQ18jwlotsfOpnipbcpcsVypWfh1s5DGrDolAIaTgQB997FWUuNz/5MgHcm9PgnSgaGxaNkslxIAkKToaMp1KnFkBUoQD0J0xH3zbEWTcwDpVaMExhCeQeJFhEkO94HMmz/7dbqlAEeVoQC9LzNB+t/9E4J0W69PgnTgaB7b6FYlnaMSzF0AjIxLCY6Mdu4xIURH7KJddReoBJA+xXKlwCTUmK3A93jYBJMOs84VyxWrXjTT0n0kls5+XQQOwCFlMEDffcQVQToSfn0SpAPMsxJgg1buAAZF7zXpSnw0dHmNCSE6knQDXaYSQOo4lIAJPYyPmR3GzMzfp9jRYX4yWqcMwMFlOEDvI0hH4q9PgnTg4B5rdeuS5qgEcxYAI+dSgiM+4JUr7EaPASE6EiPwPUeciwGkjUMJeMjESPBCwpxFPn9IWjj7KkcMAQdBgL6LIB2Jvz4J0oEHe6zVLUh6mUoY51ICAHtoUIIj47kuBoToSJqapA3KANivWK5UxUpuU4Lo6AsgvCB8b4Xx0pg521bz0tJ9ZJYoAXB/BOj3PvJKapQJ0pHg65MgHXgglxKYn7K28zneYQC49+YQvs/C0fBMFwNCdCTtJtpRGKRzNgZgP4cSGEOwg724lMAYdqNDkopnX6WtO7AfAvT97x0iSEfCr0+CdGBvj7W6i5LmqQRzVQBjRTfio6GdewwI0ZE40W5Lh0oA9iqWKzMKF8TADMIy7MWlBMbUovsW9wW8fPZVJqbA3b7wXwjQH/T4K4J0JPz6/MwbBOnAoKiNe51KMFcBMHYNSgBbEKIjkaK2HpeoBGCtmqRpymDEctSlA7h7rGyJ1bumTMuyhT9RS/dlPrqRcCkBcBsB+oGFQfr/IkhHcq9PgnTgnmc+3luYt97O51qUAcB9NCjBkRQowfgRoiOxAt+ri5fDgK0WKYHRiT3A9cF9ay/s8BiN4tlXOUYDkAjQj3L/UFaC9H9MkG7r9UmQDkiPtbp10cadOSqAuLQowZEUKMH4EaIj6RaZlAN2KZYrBYUvaDC8jcD3GpQB+wl8z5W0RSXM3L6i+5c11ha0wuc/MgtnX1WVMiDLCNCPPp6IIB0Jvz4J0pFlj7W6JUkvU4mR2BILfQE8QNRZEbACITqSfkPtKGyvygtiwB7sQjfHpQQ4AF5SZPv+xX1ihD9bZ18VIQMyiQB9aATpSPz1SZCOLHqs1Z1h/jTa5+d2PsdxdAAOguMJYQVCdCRetDKpSiUAaziUwBiXEuAAaDud7fsXn//oTIuXrMggAnRjCNKR+OuTIB0ZnWPPUYaR1hcAMBoFSjB+hOiwQuB7TUkXqASQbMVypaYwdMDw1mlvhEOMkby0NmM6uo9ZY21BLbGCe5Tmz76qOmVAVhCgm388VvaC9A0+druuT4J0ZMVjre6ipHNUYmQ22vlcgzIAOKAmJTg0FoHFgBAd1ojOfV2mEkCiOZTAGJcS4BDYjZzt+xj3i9F6ufqqapQBaUeAPjJZC9I5js3C65MgHWn32IfdkqRXqARzUgCJwdEPsAIhOqwS+J4jdlsBiVQsVwpiVbcpW9HCIeCgaDltzrnofmaNtQW5IrAYNbf6qkqUAWn1hf9MgD7qR2VlJ0hvKtyRzrhk2fX56TcJ0pFOj33YnZHUoBKjf16mBACAtCFEh41qom0tkNSfTZhBIIpDCXyvI7q1ZP1+5vKxjdS0wiCdgAGpQ4A+NmGQ/r8J0pHY65NnCaTOQIDOsXOjtdzO59hVCuAwuGfACoTosE4UFDhMyIHEWaQExtAGDUfhUoJM38+4b4xeUSxyQsoQoMdyH8lGkP6PCNItdO7Tb/6G50mkcW5dpAzMRQAkDmeiwwqE6LBS4HtNcfYykBjFcqUqaY5KmLnFRfc44LBjY0PSBpUwYi66r1ljbUEtSat8dCM3X/0GC1aQDgTo8T06iyAdyXWeIB1p8diH3SXGubFYb+dzvMMAAKQSIfrB0LYxgQLfW5F0kUoAieBQAmNcSgCuH+5rR8QOkPE4X/0G3VdgNwL02BGkI9HjHEE6bPfYh11H0gKVYA4KAMAwCNEPpkQJkinwvSVxBiwQq2K5MiPOQ2cCCq6f9Dkf3d+ssbaghqSAj24sXql+gwVksBMBenIeo5WRIP3nBOlWPgcRpMNWUYB+hUqMxUY7n+NeAQBILUJ0pMGieGEMxKkmaZoyGLEa+F6HMuCoAt9riZbepu9vtmE3+vhcIUiHbQjQE4cgHUlGkA7rPPZht8Tz8FhxjwAApBohOqwXBU5MxoH40NKWCSiSZYUSZPf+trYgV9IGH93YLFW/Qdcq2IEAPbEI0pFkBOmwRhSgN8Qi/3HZEgsWAAApR4iOVBgI0gGMUbFcKSh88YfhbQS+R/gJE2OiK15OG7vNFcsVGwNSl49ubKYlNQjSkXQnf0iAnvTxRgTpSC6CdCRengA9ljlHO5+jkx6AoypQAtiAEB2pEfheU9IFKgGMFbvQzSFAh0kuJTDGsfBrXhLhxDgRpCPRCNCtUZTUKBGkI5kI0pFYBOixzjkA4KgKlAA2IERHqkS77y5TCQyrWK5UqcKB1CgBE1AkkksJjHFs+4LXFtThnjJ2BOlIJAJ0+6YhWRnDCdKtRJCOxMn/igA9JsvtfK5FGQAAaUeIjtQJfG9R0jqVAEarWK7UJM1RCSPWA99jAgqTY2FTUkAljJguliuOhV83u9FjuFYkNarf7BGkIxEI0K20JamelW+WIN1K5z/tEaQjGQjQY1WnBACALCBER1rVRHgAjJpDCYxxKQFGgJ3IZp8rrMJu9Nj0g3Q6tSBWBOhW2pJUbf7zh5tZ+qYJ0q1EkI7YEaDHil3oAEyoUoJD26AE40eIjlQKfK+jMOBjIg6MQLFcmZF0jkoYsSXOQ8docF2Zc65YrhQs/LrZjR6PaUk/qn6z51AKxIEA3drnwaqfsQC97+fPEKRb6Pynvd80Pu39ZoZSYNzyv+rWRIAepzolAIBYtCjB+BGiI7WiVrYOlQBGgp8tc1aihT+A6XGwI2mZSmT3vsdu9NhdIUjHOJ384cczJ3/4cUME6LbJdIDeR5BupXlJBOkYq/yvuo6kH4kAPS7sQgdgCsegwQqE6Ei1wPdWJF2kEoBxi5TAGAIujJJLCYxxLL7HEEjE50r1mz1+DjFyJ3/48YzCXXnzVMMqBOgDCNKtVFQYpPMiHCOX/1W3LukKlYhVnRIAMITFULACITpSL/C9JbETDzCmWK6UJM1RCSM2oq4ZwKjGwIY4M8mUuWK5wtnoOIrz89/srcx/s8dOPYzEyR9+XFLY2q9INaxCgL6HgSAdFk0RRZCOEcv/qutKeplKxIpd6ADMPDiUKzzrHQ334BgQoiMrFiUFlAEw9vMEMwi2MA4uJTCmZunXzW70+J2T1Jj/Zq9AKWDSyR9+zLmwdiJAv48oSL9AJawyLcn/tPcbh1LApPwH2zP5X3Wb4qiSJKhTAgCGsPDuaFqUYPwI0ZEJ0bmwVfECGRhKsVyZkb0hUhKtUAKMgUsJjDkf3Qetwm705Ayjkprzr/WqlAImnPzBx3VxLqyNCNAP4OfPPOKKIN1GV05c2+HZE0bkP9guSWqKTitJcJld6AAMIkSHNQjRkRkDQTqAo6uJF7WmrAa+xyQU4xj/WpJWqYQxjqVf95Jo7Z8E05Kuzr/Wo6sLjuzkDz6AgRaAAAAgAElEQVSeOfmDj1dEW1sbEaAfAkG6tc6fuLbTPHFth2NMcGT5D7YdhZ1WOEouGWNXnTIAMKhKCY6kRQnGjxAdmRKdPcwkHDg6hxIY41ICjBFdDzJ+H4x2o9f5+BLjlfnXeivzr3FOOg7n5A8+7u/KO0c1rEOAfgQE6dYqSmqduLZTpRQ4jPwH2zP5D7ZdSVfEAv6kWGrncx3KAMDIA0K5UhALpI6qRQnGjxAdmRP4nivpMpUAjvSQM08ljNgKfI9QE+Me+zjSxNDtsFiuWNl6bG1BrqSAjzAxzils704rOxzIyR98vCjJFy+drHz2k1T1/wUB+lH8/OwjrgjSbTQt6eqJazt1SoGDiNq3N8T550myIY6FAmAWx4QeHQuaYkCIjkwKfG9RtLYFDovWs+a4lABcd9wP+dqhMAz1ae+O+xlo3/4K1bASAboBBOlWe/nEtZ3GiWs7BUqBfR+IPtheVBigc/55stTZhQ7AMIcSHE3UZRljRoiOrN+w2Y0FHBwrBc1hJTfi4FIC7odrC2qIhYRJ9Mr8a73G/Gu9AqXAoJM/+LiqsG0f7dvtRIBu0C8I0m02L6l54toOc0rcYe797Zm5D7b7C8Vo354s6+18jjkkAGOiLqcsloJVCNGRWYHvdRQG6bS3BR78kFMTrUON3X4C32tRBsQw7jXF4jFTpovlimPx18+u52Sal9Sc/xa70iGd+v6tmVPfv7Uk6aoIFWxFgD4CBOl2Pz9J+tGJt3ZWTry1M0M5MPf+dk0sFEuyOiUAYBhz3aNbpwTxIERHpkWBAiuhgQdzKIEx7EIH1x/3xVitLagl6RIfYSJNS3pl/lu9xvy32JWeVae+f6sqqSlpgWpYiwB9hAjSrXdOUuvEW+xKz6q597dn5t7fXpH0I7FQLKmW2/lcgzIAMKVYrsyI98vD4GiNmBCiI/MC32tIukglgPs+5LAy3JwVSoCYrz86sJgxH7Uis9WSpA0+xuReX2JXeuZEu89dhbvP6QBkLwL0MSBIt97grvQC5ciOufe3HbH73IZxjGdQAKYtioVTw2BuERNCdEBS4HtLkpapBLAnhxIYsxwdJQHENd51xEIO7o+S1hbUES/Hkq6/K705/61elXKk26nv33IUhgrnqYbVCNDHiCA9Fc5Jap54a6dOKdJt7v3t0tz72w1JV0SIknT1dj7HewsAxkQbEF6mEkNhfhETQnQgEvieI86KBfbiUAJjXEoArkPuj0mxtqAVca6WDYqSrs5/q+fOf6vHGbIpc+r7t6qnvn+rIUKFNCBAjwFBeipMS3r5xFs7rRNv7VQpR7rMvbc9M/f+9pIkX2GnHSRb0M7nOAIMgGkuJRgai5tiQogO3Kkq2twCu4rlSknhy3sMbyM6PgKIVXQd0sbbjLliuWL7eZ4Ozz7WOC+pdebbvfqZbxOm2+7UX90qnPqr3dbthAr2CwP0f0mAHodfVB9xRZCeiucqSVdPvL3TOPE2Ld5T8YG+t72osMvKAtWwam4AAMYUy5VF5jvD451yfAjRgTtvRh0RpAODaPVrjksJkCDsLjDHsfmLX1tQi+vBKtMK2+A1z3y751AO+5z6q1szp/7qVl3Sh6J1e1oQoCcAQXqqzEv68MTbO+5xwnQrzb237cy9t92S9IrosmKTy+18jrEMgDHR5qxXqMTQ6J4cI0J04O47ku81RXAI9NUogTEuJUCCcC66OeeK5YrVu4LXFlRnUmadOUlXzny71yJMt8NAeN4S5wGmCQF6ghCkp855Sc3jb+/Uj7+9QwcWGx5O3tuuzr233VR4RMkcFbHKhqQ6ZQBgShSgN6iEES1KEB9CdGAPge+5ki5TCWT8YccRq8ZNWQ18jwceJGmca0lapRLGOHwPiAlhesKd+t494TnPVumxJan6NgF6ohCkp06/A0uLMD3BDyPvbdfm3ttuKDyihOPgLJ0LtPM5ztsFYMRAgM7cxwzmGzEiRAf2EfjeoggYkPFJFCUwhl2/SCKXEhhjfQebtQU1xQJCm90O018nTE+CU9+7VTj1PcLzFCNATzCC9FTqh+m/Pu7vuMd92rwnQeHdbafw7nZL0o/Eebc2W23ncw3KAMCEYrlSFQG6adyjY0SIDtyfI9qbIpsPPAUmwcZsRd0tgEQJfG9FYQiA4c1FK61tV1fYyhEWX4uSrpx5vdc583qvfub1Hjv2xuz0926VTn/vlqvwzHPC85Q+24kAPfGiIP0ilUil85I+jML0KuUYr8K72zOFd7frUXhO2/Z0jGkOZQBgQrFcqSvsSsIcyKDA9xpUIT6E6MD9b1Cd6GGSkAFZwyTKHJcSgOszE9KwG73D/T81dnfsnXm95555vVelJKN1+nu3nNPfu9WQ5CsMeJBOBOgW+UX1kSVJy1Qitc5Lunrc32ke93ec4z6t3kep8O52qfDutqvbHVYIz9OBNu4AhlYsVwrFcqURjQ8wiw2eMSNEBx50l/K9pqQalUDWJlKUwBiXEiDBliiBMbViuWL9y9u1BTVEW/e0OS/p6pnXe60zr/cWz3yH3emmnP7urcLp795aOv29Wx2Fu/Ho4pNuBOgW+kX1EUcE6WlXjO7BreP+jnu8uVOiJGYUbm7PFG5uO4V3t5u6vUiM3YXpsdzO5zh6DsDRB+ByZSbaff4hc6GRaVCCeBGiAwcQtcygFRyy8gBUE6vKjd0+ooU4QFLHt5ZY1WrKtFKy6G5tQYtcF6k0J+kVSb8+853eytPf6bFI9AhOf/fWzOnv3lo8/d1bTYUvixZEoJAFYYD+rwjQbfSLeYL0DD2LnZfkH2/uNI83dxafaHJ2+lEUbm7XCje3XUm/VrhAoUhVUmdDKeikBSA+xXLF0e3uJBgd5h8xe5gSAAcT+N5SdN4p7RmRdrxUN8elBLDAksKXYxiek6Kfe0fhjiOk0zlJ557+Tm9L0oqklR//hwl2Iu3j9HdvzUTPR7WodsgWAvQU+MX8I85n1/9ezOczo6hw4dgrTzR3guj5bOX90qMtSrO3ws3t2sBYx+KwDMxbaOMO4NCDa9h9bzF6X8AGrPFoUIJ4TfR6PRXLlR6luK9Lge/VKQOiwaIpVuFmwdmoA0EWH4Z+zcdvzCcD32NiCht+7lviZZkpx6Id/tZ75rIWFb6AtmRmc++/6j3g13XAXz/cn9Mb2dchSb0hf3//1/eYAG5FE/R+qJ7p8ev0X94qSapKqmniAa0Jh7n2Hvh594b7vA1eOyO89g73vUzsU+f7/AwO8XkRoKfMZ9f/3tXdQfqo7+tjGKfG8jM+rvvWA3/Gh/r9gSbCce794qOZ/rku3NjuLxCrauIBwXns40NvuN8/rmvPHpfb+Ry70AEcWLSxcFEstBq3jcD3CpQhXuxEBw6vqrCNBqutkEYOJTBmmQAdNgh8r1MsV1bEzixTFpWS1ohrC1p65rJq4myzrJhWtENd0pWn/6wXKArVf/zHE420f/NP/uWtGfVD8/DvPOuDAD2FfsmO9KwrRn+9/ESw0+/G0pDUeL/4aCvt3/yxG9vVgbGOzSEZnf4RoAM40IAZBudONGYwN4oH3eISgBAdOOzTZhg21KKJFiuvkDYOJeBBB5nkipfJJu+jaXoxVROdCrKqHzQsPP1nPUlaj55/m5IaP/5ju3eqP/kXt0qSwt3mEyqJMAF3IkBPMYJ0RPpnqJ+XpCeCnY1onGtIatq+U/1YuNO831WlKhZFIhzbOL4PwN6TvzA0rw78xTuA+DUoQfxo534wtHPHXgOLI86QTbPMtXOPHpY4/9YM2u3AxntAS6wuNuXZwPdSs5DmmcuqSrqa/JnNvf+Kdu77//qwLU97E9pQGKj3/2r97b+fSGTg8ORf3KpKKigME0q6O0gYwbVDO/cjXHvJaedOgJ4Ru63daed+sN8/rvvWaNu5H64l94TWJTV74YLC5gf/8NFEviM4dn27EI1z1d2xbuL+z/VWPZvQzt2UC+18zuXuD2RbdKRf6b7zIyRC4HsTVCF+7EQHjn4Tc4vlSkHSy1QDKeFQAmOYmMJGS7Lp/Ovk309TE6KvLajxzGVd4pkHd5mL/jrX/xdf/POeJAWSOprYXTXf/3vzb//daHavP7V8qyRppif1XwjNRLvLC2JxEA6HAD1D2JGOA5jXQLDwqb/b6d8nmpJamlBL2v2r88E/GM3u9cff2d1Vrv4415tQVeG4RycVHMQyAfrhFMuVOlVACgyOH4wZdlmlBMnATvSDYSc67vdQtaKBl4dIjSzuRO+IVj2mHAt8r0UZYNk9oCDpQyrBfWA/z1xWQ0leoc5O9EP9+QZ2og/z+wNN9DoD9ekoDCT2+/2DL3/6v17QXQH5kXaGjujaYSf6Ea69+HeihwH6vyZAz5rP/k20I31U9/UxjFNj+Rkf130rWTvRj3rfCoP2O3+9KanT2//aKkXj3eCfPT+yz9umZxN2og8rkFRt53NWH8UTw/yYvARAnC4EvudShvixEx0YnqNwhw0ruWDz5MARAbop6wTosFHge61iubIqFoaZUlO4uz9t31OL8QImHj32+HfcexAnAvQM++WZR5zP/g070mHUtO4NwGmVi7jGN4cAHQCs06AEyfAQJQCGE/heR+FL5S2qAYvVKIExLiUA1y8kLabtG1pbUIfxAkAKEaBDvzzziCNpmUoASBmnnc8xvgGAXQI2aCUHITpg4q4W3tR4qQwrRS2c2f1lxpZSdA4yMjmerYhFYabMFcuVatq+qbUFNSRd5OMFkKJnNwJ0SCJIB5A6l9v5HO8nAMA+LiVIDkJ0wJDo/OwLVAIWciiBMStRdwqAh3Wk9v66tqAlETIAsN+WpOpbBOgYQJAOICXW2/ncImUAACuxACpBCNEBgwLfc5lww0IOJTBmiRKA6xgDasVyZSal39uipICPGIClCNCxL4J0AJbbEN0yAcBWq7RyTxZCdMCwwPcc8VIZlohaDc9RCTMT1cD3eBGLNIxjLUnrVMKIaaX0BdbA+ei0/wdgGwJ0PBBBOgCLx7haO5+jQx4A2Ild6AlDiA6MRlXhyk8g6RxKYAy7d5EmLiUwJrVtFNcW1IqeeQDAFgToODCCdAAWctr5HGMcAFg6V4k6HSNBCNGBEYjORGZ3FhItajF8nkoYw0MO0mSFMczc7bZYrhTS+s2tLagp6QIfMwALEKDj0KIgfZVKALDAxXY+xw5GALAX9/AEIkQHRiRq67xIJZBgnJFlzmq0eAZIyxjW4eHdqFQ/D6wtyJV0iY8ZQIKFAfo5AnQciSOObAOQbMvtfI7ueABgN+7jCfQwJQBGJ/A9N9p99jLVQAKxyMMclxIgpQ/vdKsww1H6g/T6M5dV4JoBkEAE6BjKL5+e6nz2x7+pSmpIKlIRAAmz3s7nHMoAAHbfy6NNmZkxu9ktSSpJKkR/n4l+aX7gP9uQ1Ir+uSmpEz2TN9v53Fg2tLETHRixwPfqov0bEqZYrpTECyBTNgLfY8cu0jh+NaOHVQxvuliuOGn/JtcW2KkHIHEI0GHEL5+e6kiqMs4BSNq0TXQZBIA0cNP+Dc5udmdmN7vO7GZ3ZXaz25HkS7qicAPqOYXh+fxdv21u4N8vRP/tVUm/nt3sNmc3u/UojB8ZQnRgPBwm20jgNQkzCNCRZrSSMicrL7eqPPMASAgCdBhFkA4gYTYkVce1Ew8AMLr7eeB7blq/udnNbnV2s7si6dcKQ/NzkqYN/NFFhaG6P7vZbc1udhdnN7szpr9+QnRgDKKzZWsKX+QASeBQAmMIGZFmLiUw5lx0xEuqrS2oHzDQxQBAnAjQMRIE6QASNM7VCNABIBVS+W452nXeUrhz/NyI/+/mJL0iqTW72XVnN7sFU39wP0Tn4R8YscD3WtFkG4hV1FJ4mkqY+dGOfraBtI5dHXEkiUlOFr7JKEhn8SCAuBCgY6QI0gEkYZxr53OMcwCQjnu6m6ZvKNp53lK463xuzP/305LOS+q3eh96Z3o/RGfVGjAG0fmyF6gEYsZ5WeawCx1Z4FICY5ysfKNrC2oqDBgI0gGMEwE6xuIdgnQA8SFAB4D0WIo2sFgvOvN8ReHO87mYv5xpha3em7Ob3aGyENq5A2MWnW+xTCUQh6iV8DkqYcSWOA8d2Ri3VkRrblPmiuVKNSvfLEE6gBiezQjQMTYE6QBicIEAHQBSNX9JxQat2c1uVVJLycsd5iT9aHazu3TUXemE6EAMAt9zJK1TCcSAXejmrKRlpSBwkOudEhjjZOmbjYJ0h48dwIiFAXptkmABY0WQDmCMLrTzOZcyAEBqpGIX+uxmt65w93mSj49dkNQ4ylnphOhAfGpiZx/Gb5ESGMPkFZl6sKcExpwvliszWfqG1xa0Io6zATA6BOiI1TtfJEgHMHIE6ACQvjmM9e/aZje7rsK26TYoKmzvXjrMbyJEB2ISrTKqiRanGNcoEbYQnqMSRmwEvtegDMjQmNUSHVRMylxXkLUFuSJIB2AeAToSgSAdwAgRoANA+li9Cz06/7wp6bxlX/q0wh3pBw7SCdGBGAW+R4tTjBPXmsEHHUqADHIpgTGZ7ApCkA7AMAJ0JApBOoARIEAHgPTZCHyvbusXH50t3lC4s9tGhwrSCdGBmAW+tyLpEpXAKEWtgzkP3RzOh0ZWr3u6pxi6LRfLlVIWv3GCdACGEKAjkQjSARhEgA4A6VS3/Otfkr0Bet+Bg3RCdCABopVHy1QCI1SLBgcMbzVqbQ1kbazqiAUkJi1m9RsnSAcw7JAkqXSNAB0JRZAOwAACdABIp/XA96y9v89udpdkXwv3/fSD9Jn7/UeE6AdTogQYg0Um2Rjx9QUzCBGRZRxlYE6mu4MMBOl0NwBwGIGk6rXaZItSIMkI0gEMgQAdANLL2nf0s5vdmqSFlH0e03rAu35C9IOZoQQYtWiHX028TIZhxXKlIPtbrCTFls2rBQEDY1VT0gaVMPOgXixXnCwXIArSqzz7ADjoMKQwQO9QCtiAIB3AERCgA0B6XY7eq1lndrNbkJTW8Wl+drNb3+8XCdGBBIlaRFepBAxjF7o5TGYBdqOb5GS9AGsLaoogHcABpkqSqteeJUCHXQaC9FWqAeA+tiSdJUAHgFTf5+sWf/2u0n1U7Mv7nY9OiA4kTLQaiXNCYZJDCYw+MAD8HMCU+ahbSKYRpAN4gHURoMNi73xxqvPOF6dqkpapBoA9bEmqtvO5BqUAgNRyok7E1pnd7DqS5jPwGbl7/UtCdCCBonbRTLAxtGK5UlO6V4mN9UfT1pY7gOExqiN2UxmdSFGC3SC9JFreArjT8rVnJwnQkQrvPDXlMM8HcJd+gM67BgBIr9XA91Zs/MJnN7szsnsH/WEUowUDdyBEBxIq8D1H4a4LYBgOJTCGFtbAbS4l4D5t2tqCWuLsWAC3LV97dpJ7JFIlCtIvUgkA0TNvgQAdAFJtS3a/91mUNJehz6t+978gRAeSrSZpgzLgKKIWweeohDErlAAIRStoGZ/MmIu6hkDS2oL6Z8eyUw/ItgsE6Eird56aWhJHuAGZn1Ip3IFOpxUASDeb27jPKAzRs2Tu7t3ohOhAkp+owxtsTZwRiqMhlDFn2dYHHmCEXErA/XoU1hbUWVuQI4J0IIu2FAbojDFItXeemnIllZnrA5m03M7nSgToAJB6l21t4x7J6jGx9cH/QYgOJFx0BrNDJXAEi5TAGJcSAPxcjND5YrkyQxnuFAXp7NQDsmNLUpUAHVnxzlNTTXGMCZA1l9r5nEMZACD1Atl/lnhWs4W52c1utf8/CNEBG+644YqlS1QCB1UsV0rK1nklo7QR+F6DMgD3jE0tSetUwhiHEtxrbUGupLNipx6Q+mFFUunas5OcC4tMuU6QDmTFlqQL7XyuTikAIBP3fMfmrqazm92SpGKGP0On/w+E6IAlAt+ri7amODh2oZvjUgKAn49xPqDjTmsLaoiAAUizVYU70FuUAll0/ampzvWnpkrM94HU2lJ4/jlzJwDIBifqLmz195Dxz3D32EVCdMAui+IFMh4gagnM+brmMNEF9hH4nit2CBu7fUddRLCHtQX1d+qtUg0gVS5d+9Jk7dqXJjkXFpl3/ckpRxxjAqRuyiSp0M7n6LQCANlg+znofdWMf47Ts5vdmkSIDtj15B22AKmKwAL3V5M0TRmMWI9aVgPY3wolMIYuIvextqDO2oJq4ogbIA22JD177UuTdUoB3Hb9ySlXHGMCpMVyO58rtfM5FooBQDasB75n/Xud2c1uQdlu5d5XlQjRAesMBOnAfhxKYIxLCYAHWqIExtSibiK4j7UF1SU9KwIGwNopjaTqtS9NsggL2MP1J6cakgqiCx1gq/755w6lAIBMzXHS0hmWLokDdSBEB2y8I4dnatDmDfcolisFSfNUwszEN2pVDeDBYxIvec2YFsdxHMjaglbEOemAjZYVBui0tQXu4/qTU53rT06VJF2mGoBVNsT55wCQNVuSatHmxzQgRA/NS4TogLWicI8JNe5GK2Bz2B0FHJxLCYxxKMHBDJyTvkw1ACtc9L406XD+OXBw15+cWlS4gJ7uK0DyrUoqcf45AGTKlqRqyo4DrfKxhmY3uyVCdMBi0Rkb61QCA9jBaA4tqoGDcymBMfNRVxEcQHROuiMCBiDJNiSVvS9N8mwFHEF0TnpVdF8BkuxiO5+rcf45AGSOE3VoTJMCH+uuGUJ0wH41JtMj0bLtCy6WKzVJc3x0RgQpfAACRvcDE7asYjewOXQVOaS1BbkiYACSaFVSyfsy7duBYVx/cqp5/TTt3YEE2pBUbudzLBQDgOy5EPheGjuZki/cViVEBywXBReO2H1luq4tC79sh0/OGJcSAIfGEQjm0FXkCNZeUnPtJREwAMmwJemC9+XJmvdl2rcDplw/PbUo6Vnm/0AiLIv27QCQVRei43aRcoToQApEO2YdKmHMhm1fcLFcmZF0jo/OGB6CgMOPRSs23j8Tai7qLoIjWHtJi5LOcj0C8Q0JCnef8zwFjMD101MrCttscrQbEI8tSc+28zmH9u0AkEkE6BlCiA6kRBReXKQSRti4itjhYzNmNerwAODwmERwX0+EtZfUkFRS2EoawPhc8r48WfK+PNmiFMDoXD891bl+eqoavQNgVzowPuuSCu18ji5cAJBNqQ7QZze7VT7iOxGiAykS+N6SOJPWBBtDdM7PNcelBAA/PwlwLuoygiNae0mdqy+pJtreAmOZikgqe1+erFMKYHyun55aUrhojF3pwGhtSbrYzueq7D4HgMxiB3oGEaID6bOo8CUWjq5h0xdbLFdKkub42IzYiLo6ADiCwPda4iWuSQ4lGN7Vl9Rve8uudGA0LnlfmSx5X57kTFggBtdPT7XYlQ6M1LrCs8+XKAUAZFYmAvR2Ptfgo74TITqQMlEb6iqT56FqaNtgwS50cwjQgeG5lID7e9JcfUmdqy+yKx0w/dgsqex9hd3nQBLcOMWudMCwcPf5XK7ansu1KAcAZHYsKLMDPbsI0YEUGgjScXhW7VKLWv3W+NiMYWU5MPwY5IqQ0pS5YrnCeG7Q1Rd3d6VfphrAkW2pv/v8K+w+B5Lkxqmp1o1T7EoHDFiVVGjPsfscADI+76kGvsecJ7s6hOhASkU39wtU4tBs24lckzTNx2bEetSKGkD27qVJ5lACs66+qM7VF7Uo6aykDSoCHO55SVKJ3edAskW70gviKBPgsDYkPduey9Xac5x9DgAZFkgqZDRA56jg25qE6ECa73bhbkB2Wh2ObcGPw0dmjEsJAGPYsWFOLeo6AsOuvqjG1RdVkHRJ7NYDHmRL0rPeVyar3lcmW5QDSL4bp6Y6N05N1cSiMeCgLkkqfTSXY0EwAGTbssId6FldTMUisttahOhAygW+tyjORDuoVZsGx2K5UpA0z8dmxJbYOQuYHHuaYuWqKdPi2I6Ruvqi6grPkGW3HrC3y5IK3lcmeVYCLHTj1FTjxqmpglg0BuxnXdKxj+Zy9Y/YfQ4AWXcp8D0nwwG6JDW4DELtfI4QHciImggzDsK2nZMOH5kxKxl/OAJGwaUExixSgtG6+qJaV18Qu/WAO61LOvbmVycX3/zqJM9JgOVunJyqi0VjwKANSc9+VMhVPyrkWpQDADJtS9LZwPfqlEKcAX97PixCdCADonDQEavO73tTDHyvYdnX7PCxGUPracA8lxIYU4y6j2DErr6gxtUXVJB0kecmZNiGpGff/Opk9c2v0rodSJMbJ6daN07utnhnoT2yakvSpY8KucJHBVq3AwAUSCpZmA2MCnUYqAMhOpCVkSBsrUs72P3Vbfpii+VKTdIcH5sRG9HPBwCz405H4TlSMIPd6GN09QUtSbvnpQNZsSXp4ptfnSy8+VVatwNpduPkVOPGyamSpAuiAwuyZVlS4aNCrk4pAAAK27eXAt9rUYpQO5/riMWWEiE6kD3RaqqLVOIeNu5CZ0GEOexCB0bHpQTGOJRgvK6+oM7VF1SXdEwsCEG6bSlcMFJ486uTPBcBGXLj5JSrsMU756Uj7VYlHfuokHM+KnDuOQBAG6J9+/24WZ8jt/O5hkSIDmRO4HtL4kXw3aza3VcsV2YknedjM4adVsDoxpyG2N1kynTUhQRjdvUFtRovyFEYpq9TEaTMsqTSm787WefccyCbbpyc6kTnpRdEmI70WZd09qNjuRrnngMAIpdF+/YHWeH7DxGiAxkU+J4jWnL0XbKwlbfDx2bMKu16gJFzKQH3/zRohGF6VeE5soTpsN2ypGNv/u6k8+bvcu45AOnmF6Y6N7+wG6az8B6264fn1Y+OhTvJAACZ1999vhgdQYh9tPO5lrL93mO3QxshOpBdVbHCPLC0ZYvD5WuMSwkAfs4scq5YrhQoQ7waX1Oj8TXCdFiL8BzAfUVhuiOOM4GdCM8BAHth9/nhuRn9voN2Pre76ZIQHcjqnSBcbVVVdoP0LVkYRhfLlZKkIlewmWsg8D1auSSTEqwAAAnbSURBVAOjH29aCs8ghBm0dE8IwnRYhvAcwKHc/MJUayBMvywW4SPZCM8BAPuND2V2nx9eO59zlc0jGpcG/wchOpBhURvzxYx++46FbdyV4c9rFFxKAIwNC1YYB1JrIExnxx6SZiu6Jo+98RzhOYCjicL0RXFmOpJpVdLZTcJzAMC9c6ELge9VLc0AkqKese93I1o8sIsQHci4wPdchavKs+SCxTuQ2YFozhIlAMY61vDC1Yy5YrlSpQzJ0/iaWo2vyRE79hC/LYVBV+GN5yadN54jPAcwvLvOTL+obO5MQnIsSzq2+Xiutkl4DgDYYy4UvYvCEDK4G/2ejSuE6AAU+N6isrNz6oKtA2ixXHEkTXPFmrnsoxbTAMaHyYs5DiVIrsbzE63G8xP9HXuEDBjr842kC288NznzxnOT9Teem6RdIQDjblamOjcrU0s3K1MFSRfEkSYYn34w8snNx3PO5uM55vQAgEHLCs89r9O63SgnI9/nejufu2fjJSE6AElS4HuOwhdvaXbB8hVoDleqMexCB8bPpQTGnC+WKzOUIdkaz090Gs9PLDWenyiIkAGjtSzp7BvPTZbeeG6Sey2AsblZmXJvVqaqksriSBOMzrqkC5uP52Y2H8/VNx/PEYwAAO6eDx0LfM9h05R57XyuofD4lDTb0j7ZCyE6gEHVFE98rQ7Qi+VKQdI8l6gxnM8MjFl0BlVAJYzheA+LrD8/4a4/P1EVrd5hzobC3XjHopbtDUoCIC43K1PNm5UpR9InRRcWmLGl8P1UefPxXHXz8TvPJwUAQITn4+Qo3e8x6u383h1uHuazB9AXtTlxiuWKJJ1P0cSrGoU3tg9UMPSARUsfIDZLkq5QBiMWxe5+66w/P9GKPrvF+dd6TjS+s0gOh7EqyX3j9yZZEAggcW5WpjrR897SiWs71WicO09lcAhBdA2tbH7qE8zbAQB7WZZUJzgfn3Y+15nd7NYkXU3jHLudz+3btZad6ADunbGErd0vyP7VReuSCikI0CVCdJNcSgDEhtDHnGKxXClRBosfUv5kwl3/kzt2p7NrD/s+nivc2fnJN35vskaADsAG737+0ca7n3/UUbg7/YLoSIT9bUXPQuXNT32itPmpT7gE6ACAPcaKS5I+yc7zeERt3S+mcK7t3O8/mOj1eiqWKw2xA+J+1gPfq1IGZE3UQty18P6wpXA12lJKPoeapB9xRRqxEfhegTIAsd7TXLEjyZTLge8tUob0mH+tV9WEHIXt+qf3+m96Ew/4Qw746z0N9+cM/3Xc/gp6Q3wfd3xNh/n9Jv+sYX7//r+2IWmlN9Fz3/i9ySY/HQDS4MS1nUI0zjmS5h50Xxx2fDjS7z/MmDn0+NCLbRwedpwz8LVsKVxgu7LxxCdYHIYkzlt7VAFIhEDSks3HtKbN7GbXVTre621JKu3Xxr2Pdu4A9h+hwhVd1WK54ihspzVtwZe9LGkxZe26OffWHB64gGT8HBKim+EobA2OlFj/k4mGpIYkzX+rV4ueAWqWPIPBzCR+RZL7s99/qEE5AKTNu59/tCWpLql+4q2dUvQsU9N+gTrSaFW3w3N2mwMA7jcvWkpJh9lUaedzzuxmV7L73d6WpOqDAnSJnegHxU50ZF6xXJlRdIankvkid11heN5MYd1/zRVozDHa/QCJuLe1xMtSUy6wIjv9BgP13sQDnsPYiX6w32/yzxpuJ/qGwhdEjZ/9/kPsxAOQSXcE6hO3nxHZiT66cXiMO9G3NBGOcyI4h11zVnaiA+O3KmmFdxx2sHhHej9AP1COxE50AAcS7eyuF8uVJd3e+ZaEAGRZYev2VkpLzy50gw9iBOhAYriSXqYMxsYJJpgpt/6fJlYUBq068+1eVbd3qLMYxdJH6+jzXPnZ7z/EzgoAmffubz/aVLRo/8TbOyVJVYXvHYpUx0ob6ofmx2nVDgB44NxoSWF4zkIri1i6Iz2Q5Bw0QJfYiX5Q7EQH9lAsV+JqvxYoDAzctA+uxXKlyYsDY9itCSTn3laQ9CGVMIYuGxl15tu9QvQcVpV0LpzhPWgGGP6NnegG/6wH//4tRWGCpMbP/s1D/LwCwAEcf3tnZmCcq0qaYye6mXF4BDvR1/vj3MbxT7BADGmYs7ITHRid3aM9CM7tN7vZdSRdseBLXZdUa+dzh7rmCNEPWFxCdOCBD5elgYltVeZbvq8qevmYlaAgqqnP1WXEVuB7M5QBSNQ9bkX90A/DuhT4Xp0y4My3e1VN7IYNey/CI0Q3/2ft/fvX+8+uP/sDdpsDgAnH394paeIB7x0I0Q/2+4f8PhRubmhIarROsNscqZyvEqID5ux2KJHUIDhPn9nNbknhpsekbga81M7n6kf5jbRzB2BEdBZ5U2H7lf4uw0I0sdXA36X9F+1sSGpF/9yI/rmZtnPOD8HhyjLGpQRA4hCimx0v6pQBf/MfJxrRM5TOvN6biZ6/+gsdWTQ9Ov2d5k1JjZ/+wUMNSgIA5r33uUfveO9w3N8Z9WJ+3LbeH+cUBucEIACA/fRD84bC0LxFSdKtnc81Zze7VYXH8yTp+MZDt2+/GzvRD/igyE50AONWLFc6vAQwppzhxRgA97lsOBv4XoMy4H7OvN6rakIlSaVevy3uvjPF+/9ZGd+J3t9915TU/OkfstMcAJLguL9TiHaq98e6+UOPL3v8txncib6h24F5s/XpT/CMiSzOVdmJDhxcf6FVU4TmmTe72S0o3NAWZ+a8JWmxnc+5w/5BhOgHvAkQogMAAABIk6e/05tRFDREfxV254WE6P2Jd1MTuy+EWj/9Q3aZA4BNnmjulO4Y68LFZAdbxJmNED2IxrmWbofm7DJH5hGiA3va0u2wvCmpxWJ+7CfamV7XeLPnDYUB/tJhzz7f95Gq12M8AAAAAACEnv5Or6QJ9dvBF6K/7ggdUhai948U6ocIzZ7U+um/fajF1QAA6fNEsDO4iGxwvJvba6xJSYi+Ho1xu+Nc6zOfoJMKsA9CdGRYPyjvDMyPWgqPXGWRFQ4t2pm+qPAowlF1o1yVtGJi5/k9j1SE6AAAAACAg3j6z3pVSeqF7XKl2wFEQYPhQ7JC9PXo763or/4Loc5P/ohW7ACA254IdgrqLyCbCP/eC/+3dPdOquSE6P3FYFK4m1yaCP/+4WdoxQ4cRdS5F0ijwWu7Py+Swl3lLcqDUZrd7NYULl6sSioO8UdtRdfyisLwfGQLPAjRAQAAAADGfPHPd3eyS2HAXrrrPylpotf/9aOG6P3dERr4cxqDv/6TP3qInRIAAOM+9XfRTvaJgXFNu+Pe7bFvuBB9MNjoa0V/qTehzoe/xU5yAABgp9nN7t2dge5+nho02B2h2c7nWuP6Ov8/1mtBucNb7rIAAAAASUVORK5CYII=;" parent="ij2_FURvqXdRc3KbHj5h-111" vertex="1">
          <mxGeometry x="132.52999999999997" y="180" width="107.47" height="21" as="geometry" />
        </mxCell>
        <mxCell id="ij2_FURvqXdRc3KbHj5h-92" value="" style="group" parent="ij2_FURvqXdRc3KbHj5h-111" vertex="1" connectable="0">
          <mxGeometry x="153.5" y="100" width="80" height="60" as="geometry" />
        </mxCell>
        <mxCell id="ij2_FURvqXdRc3KbHj5h-93" value="" style="verticalLabelPosition=bottom;html=1;verticalAlign=top;align=center;strokeColor=none;fillColor=#00BEF2;shape=mxgraph.azure.cloud_service;dashed=1;" parent="ij2_FURvqXdRc3KbHj5h-92" vertex="1">
          <mxGeometry x="15" width="50" height="40" as="geometry" />
        </mxCell>
        <mxCell id="ij2_FURvqXdRc3KbHj5h-94" value="Nacos" style="text;html=1;align=center;verticalAlign=middle;resizable=0;points=[];autosize=1;strokeColor=none;" parent="ij2_FURvqXdRc3KbHj5h-92" vertex="1">
          <mxGeometry x="15" y="40" width="50" height="20" as="geometry" />
        </mxCell>
        <mxCell id="ij2_FURvqXdRc3KbHj5h-102" value="" style="group" parent="ij2_FURvqXdRc3KbHj5h-111" vertex="1" connectable="0">
          <mxGeometry x="13.5" y="100" width="60" height="60" as="geometry" />
        </mxCell>
        <mxCell id="ij2_FURvqXdRc3KbHj5h-99" value="" style="verticalLabelPosition=bottom;html=1;verticalAlign=top;align=center;strokeColor=none;fillColor=#00BEF2;shape=mxgraph.azure.cloud_service;dashed=1;" parent="ij2_FURvqXdRc3KbHj5h-102" vertex="1">
          <mxGeometry x="5" width="50" height="40" as="geometry" />
        </mxCell>
        <mxCell id="ij2_FURvqXdRc3KbHj5h-100" value="Nacos" style="text;html=1;align=center;verticalAlign=middle;resizable=0;points=[];autosize=1;strokeColor=none;" parent="ij2_FURvqXdRc3KbHj5h-102" vertex="1">
          <mxGeometry x="5" y="40" width="50" height="20" as="geometry" />
        </mxCell>
        <mxCell id="ij2_FURvqXdRc3KbHj5h-103" style="rounded=0;orthogonalLoop=1;jettySize=auto;html=1;entryX=0.18;entryY=0.2;entryDx=0;entryDy=0;entryPerimeter=0;startArrow=classic;startFill=1;" parent="ij2_FURvqXdRc3KbHj5h-111" source="ij2_FURvqXdRc3KbHj5h-83" target="ij2_FURvqXdRc3KbHj5h-93" edge="1">
          <mxGeometry relative="1" as="geometry" />
        </mxCell>
        <mxCell id="ij2_FURvqXdRc3KbHj5h-104" value="注册" style="edgeLabel;html=1;align=center;verticalAlign=middle;resizable=0;points=[];" parent="ij2_FURvqXdRc3KbHj5h-103" vertex="1" connectable="0">
          <mxGeometry x="-0.2778" y="-7" relative="1" as="geometry">
            <mxPoint as="offset" />
          </mxGeometry>
        </mxCell>
        <mxCell id="ij2_FURvqXdRc3KbHj5h-108" value="注册" style="edgeStyle=none;rounded=0;orthogonalLoop=1;jettySize=auto;html=1;entryX=0.97;entryY=0.5;entryDx=0;entryDy=0;entryPerimeter=0;startArrow=classicThin;startFill=1;" parent="ij2_FURvqXdRc3KbHj5h-111" source="ij2_FURvqXdRc3KbHj5h-93" target="ij2_FURvqXdRc3KbHj5h-99" edge="1">
          <mxGeometry relative="1" as="geometry" />
        </mxCell>
        <mxCell id="ij2_FURvqXdRc3KbHj5h-109" style="edgeStyle=none;rounded=0;orthogonalLoop=1;jettySize=auto;html=1;entryX=0.84;entryY=0.2;entryDx=0;entryDy=0;entryPerimeter=0;startArrow=classic;startFill=1;exitX=0.26;exitY=1;exitDx=0;exitDy=0;exitPerimeter=0;" parent="ij2_FURvqXdRc3KbHj5h-111" source="ij2_FURvqXdRc3KbHj5h-83" target="ij2_FURvqXdRc3KbHj5h-99" edge="1">
          <mxGeometry relative="1" as="geometry">
            <mxPoint x="93.5" y="70" as="sourcePoint" />
          </mxGeometry>
        </mxCell>
        <mxCell id="ij2_FURvqXdRc3KbHj5h-110" value="注册" style="edgeLabel;html=1;align=center;verticalAlign=middle;resizable=0;points=[];" parent="ij2_FURvqXdRc3KbHj5h-109" vertex="1" connectable="0">
          <mxGeometry x="-0.1259" y="1" relative="1" as="geometry">
            <mxPoint as="offset" />
          </mxGeometry>
        </mxCell>
        <mxCell id="ij2_FURvqXdRc3KbHj5h-112" style="edgeStyle=orthogonalEdgeStyle;rounded=0;orthogonalLoop=1;jettySize=auto;html=1;entryX=0;entryY=0.5;entryDx=0;entryDy=0;startArrow=none;startFill=0;curved=1;dashed=1;" parent="1" source="ij2_FURvqXdRc3KbHj5h-50" target="ij2_FURvqXdRc3KbHj5h-80" edge="1">
          <mxGeometry relative="1" as="geometry" />
        </mxCell>
        <mxCell id="ij2_FURvqXdRc3KbHj5h-113" value="拉取服务列表" style="edgeLabel;html=1;align=center;verticalAlign=middle;resizable=0;points=[];" parent="ij2_FURvqXdRc3KbHj5h-112" vertex="1" connectable="0">
          <mxGeometry x="-0.064" y="4" relative="1" as="geometry">
            <mxPoint as="offset" />
          </mxGeometry>
        </mxCell>
        <mxCell id="ij2_FURvqXdRc3KbHj5h-114" style="edgeStyle=orthogonalEdgeStyle;curved=1;rounded=0;orthogonalLoop=1;jettySize=auto;html=1;entryX=0.03;entryY=0.5;entryDx=0;entryDy=0;entryPerimeter=0;dashed=1;startArrow=none;startFill=0;" parent="1" source="ij2_FURvqXdRc3KbHj5h-50" target="ij2_FURvqXdRc3KbHj5h-20" edge="1">
          <mxGeometry relative="1" as="geometry" />
        </mxCell>
        <mxCell id="ij2_FURvqXdRc3KbHj5h-115" value="Auth2(Security2)" style="edgeLabel;html=1;align=center;verticalAlign=middle;resizable=0;points=[];" parent="ij2_FURvqXdRc3KbHj5h-114" vertex="1" connectable="0">
          <mxGeometry x="-0.1875" y="1" relative="1" as="geometry">
            <mxPoint as="offset" />
          </mxGeometry>
        </mxCell>
        <mxCell id="ij2_FURvqXdRc3KbHj5h-65" value="" style="rounded=0;whiteSpace=wrap;html=1;dashed=1;" parent="1" vertex="1">
          <mxGeometry x="1080" y="900" width="310" height="390" as="geometry" />
        </mxCell>
        <mxCell id="ij2_FURvqXdRc3KbHj5h-58" value="" style="group" parent="1" vertex="1" connectable="0">
          <mxGeometry x="700" y="970" width="80" height="60" as="geometry" />
        </mxCell>
        <mxCell id="ij2_FURvqXdRc3KbHj5h-20" value="" style="verticalLabelPosition=bottom;html=1;verticalAlign=top;align=center;strokeColor=none;fillColor=#00BEF2;shape=mxgraph.azure.cloud_service;dashed=1;" parent="ij2_FURvqXdRc3KbHj5h-58" vertex="1">
          <mxGeometry x="15" width="50" height="40" as="geometry" />
        </mxCell>
        <mxCell id="ij2_FURvqXdRc3KbHj5h-23" value="Auth Server" style="text;html=1;align=center;verticalAlign=middle;resizable=0;points=[];autosize=1;strokeColor=none;" parent="ij2_FURvqXdRc3KbHj5h-58" vertex="1">
          <mxGeometry y="40" width="80" height="20" as="geometry" />
        </mxCell>
        <mxCell id="ij2_FURvqXdRc3KbHj5h-124" value="" style="group" parent="1" vertex="1" connectable="0">
          <mxGeometry x="682.25" y="1080" width="92.75" height="180" as="geometry" />
        </mxCell>
        <mxCell id="ij2_FURvqXdRc3KbHj5h-123" value="" style="rounded=0;whiteSpace=wrap;html=1;dashed=1;" parent="ij2_FURvqXdRc3KbHj5h-124" vertex="1">
          <mxGeometry x="30" y="3" width="62.75" height="177" as="geometry" />
        </mxCell>
        <mxCell id="ij2_FURvqXdRc3KbHj5h-61" value="" style="verticalLabelPosition=bottom;html=1;verticalAlign=top;align=center;strokeColor=none;fillColor=#00BEF2;shape=mxgraph.azure.cloud_service;dashed=1;" parent="ij2_FURvqXdRc3KbHj5h-124" vertex="1">
          <mxGeometry x="36" y="10" width="50" height="40" as="geometry" />
        </mxCell>
        <mxCell id="ij2_FURvqXdRc3KbHj5h-117" value="" style="verticalLabelPosition=bottom;html=1;verticalAlign=top;align=center;strokeColor=none;fillColor=#00BEF2;shape=mxgraph.azure.cloud_service;dashed=1;" parent="ij2_FURvqXdRc3KbHj5h-124" vertex="1">
          <mxGeometry x="36" y="132" width="50" height="40" as="geometry" />
        </mxCell>
        <mxCell id="ij2_FURvqXdRc3KbHj5h-119" value="" style="verticalLabelPosition=bottom;html=1;verticalAlign=top;align=center;strokeColor=none;fillColor=#00BEF2;shape=mxgraph.azure.cloud_service;dashed=1;" parent="ij2_FURvqXdRc3KbHj5h-124" vertex="1">
          <mxGeometry x="36" y="70" width="50" height="40" as="geometry" />
        </mxCell>
        <mxCell id="ij2_FURvqXdRc3KbHj5h-122" value="A&lt;br&gt;服&lt;br&gt;务&lt;br&gt;集&lt;br&gt;群" style="text;html=1;align=center;verticalAlign=middle;resizable=0;points=[];autosize=1;strokeColor=none;" parent="ij2_FURvqXdRc3KbHj5h-124" vertex="1">
          <mxGeometry width="30" height="80" as="geometry" />
        </mxCell>
        <mxCell id="ij2_FURvqXdRc3KbHj5h-132" value="" style="group" parent="1" vertex="1" connectable="0">
          <mxGeometry x="870" y="1083" width="100" height="177" as="geometry" />
        </mxCell>
        <mxCell id="ij2_FURvqXdRc3KbHj5h-126" value="" style="rounded=0;whiteSpace=wrap;html=1;dashed=1;" parent="ij2_FURvqXdRc3KbHj5h-132" vertex="1">
          <mxGeometry width="62.75" height="177" as="geometry" />
        </mxCell>
        <mxCell id="ij2_FURvqXdRc3KbHj5h-127" value="" style="verticalLabelPosition=bottom;html=1;verticalAlign=top;align=center;strokeColor=none;fillColor=#00BEF2;shape=mxgraph.azure.cloud_service;dashed=1;" parent="ij2_FURvqXdRc3KbHj5h-132" vertex="1">
          <mxGeometry x="6" y="7" width="50" height="40" as="geometry" />
        </mxCell>
        <mxCell id="ij2_FURvqXdRc3KbHj5h-128" value="" style="verticalLabelPosition=bottom;html=1;verticalAlign=top;align=center;strokeColor=none;fillColor=#00BEF2;shape=mxgraph.azure.cloud_service;dashed=1;" parent="ij2_FURvqXdRc3KbHj5h-132" vertex="1">
          <mxGeometry x="6" y="129" width="50" height="40" as="geometry" />
        </mxCell>
        <mxCell id="ij2_FURvqXdRc3KbHj5h-129" value="" style="verticalLabelPosition=bottom;html=1;verticalAlign=top;align=center;strokeColor=none;fillColor=#00BEF2;shape=mxgraph.azure.cloud_service;dashed=1;" parent="ij2_FURvqXdRc3KbHj5h-132" vertex="1">
          <mxGeometry x="6" y="67" width="50" height="40" as="geometry" />
        </mxCell>
        <mxCell id="ij2_FURvqXdRc3KbHj5h-130" value="B&lt;br&gt;服&lt;br&gt;务&lt;br&gt;集&lt;br&gt;群" style="text;html=1;align=center;verticalAlign=middle;resizable=0;points=[];autosize=1;strokeColor=none;" parent="ij2_FURvqXdRc3KbHj5h-132" vertex="1">
          <mxGeometry x="70" width="30" height="80" as="geometry" />
        </mxCell>
        <mxCell id="ij2_FURvqXdRc3KbHj5h-133" style="rounded=0;orthogonalLoop=1;jettySize=auto;html=1;startArrow=none;startFill=0;" parent="1" edge="1">
          <mxGeometry relative="1" as="geometry">
            <mxPoint x="780" y="1130" as="sourcePoint" />
            <mxPoint x="866" y="1130" as="targetPoint" />
          </mxGeometry>
        </mxCell>
        <mxCell id="ij2_FURvqXdRc3KbHj5h-134" value="feign client" style="edgeLabel;html=1;align=center;verticalAlign=middle;resizable=0;points=[];" parent="ij2_FURvqXdRc3KbHj5h-133" vertex="1" connectable="0">
          <mxGeometry x="-0.1395" y="2" relative="1" as="geometry">
            <mxPoint x="2" y="-11" as="offset" />
          </mxGeometry>
        </mxCell>
        <mxCell id="ij2_FURvqXdRc3KbHj5h-135" style="edgeStyle=none;rounded=0;orthogonalLoop=1;jettySize=auto;html=1;startArrow=none;startFill=0;" parent="1" edge="1">
          <mxGeometry relative="1" as="geometry">
            <mxPoint x="777" y="1199.5" as="targetPoint" />
            <mxPoint x="867" y="1199.5" as="sourcePoint" />
          </mxGeometry>
        </mxCell>
        <mxCell id="ij2_FURvqXdRc3KbHj5h-136" value="feign client" style="edgeLabel;html=1;align=center;verticalAlign=middle;resizable=0;points=[];" parent="ij2_FURvqXdRc3KbHj5h-135" vertex="1" connectable="0">
          <mxGeometry x="0.2" y="-1" relative="1" as="geometry">
            <mxPoint x="8" y="-10" as="offset" />
          </mxGeometry>
        </mxCell>
        <mxCell id="Qk28svfCWHP9obNBSVoU-1" value="" style="shape=image;verticalLabelPosition=bottom;labelBackgroundColor=#ffffff;verticalAlign=top;aspect=fixed;imageAspect=0;image=data:image/png,iVBORw0KGgoAAAANSUhEUgAAAWkAAABZCAMAAADLqCVlAAABjFBMVEX///+jJCLcOCzcOCyjJCJJTE2jJCLcOCyuKCS3KyXLMinFMChJTE2jJCLcOCyjJCJJTE2jJCLcOCxJTE2jJCLcOCxJTE2jJCLcOCyjJCJJTE2jJCLcOCxJTE2jJCLcOCyjJCJJTE2jJCLcOCxJTE2jJCKpJiPcOCxJTE2jJCLcOCxJTE2jJCLcOCxJTE2jJCLcOCxJTE2jJCLcOCxJTE2jJCLcOCzUNStJTE2jJCLcOCzcOCykJCLbOCylJSJJTE10ERN6ExSBFhaHGBiOGxmUHRubIByhIh6jJCKmJSOnJSOoJB+qJiOqJyOrJiOsJySuKCSvKCSxKSSxKSWyKSWzKSS1KSO1KiW4Kya4LCa7LCS7LCa8LSa+LSe/LifALifBLifDLyjELyjHMCjHMSjIMSfKMinNMynOMynOMyrPMynRNCrTNSrVNSvVNirVNivWNivYNyvZNyvcOCzeRDngUUbjXVTlamHndm7pg3vrj4nunJbwqKPytbD0wb72zsv52tj75+X98/P////Akn19AAAAP3RSTlMABAQIDBAQEBQXFxsgICAkMDAwQEBAUFBQVGBgYHBwcHiAgICQkJCQoKCgsLCwwMDA0NDQ4ODg5PDw8PH09Pi811PyAAAQn0lEQVR4nO2d+2PUth3Abw/DHqZzcbl2hiszXIeJW4OLywzddnSvHozX0q2QLWvGkrEwxlKS0BAuaUjyj8+yLOn7lb6yfSklKb3vL70csh4fSd+X5Gun80qI2wv96qMf9pw2j3hJq2JAgnTcJ145caJBIV320U2LT7nX/IybD9LxWukOxn3i1ZM+Az3I2MeSeRsiflFsvFbCsZ949SQr8Q4K/eHk/KPb+MyE9F6E0x2EnF8FvUEmpPcirx7pw29NXVgp5MKZt15Wk61EkXarj83PHGTSb723ouTy1NGX02obUaQ7cfkpan7mwJI+OnV5RZMLJw+/hIbbCCDtMNRtPOWDSfrwyQs6Zi5TB0OLANKFAvGbHY/OwSSNtIYuF0+/9vW23kYQ6ZZy4Ei/duaigPpka31VEn6qYL+37wv7FSB94jxcv6Pdnc21EvPmzjZa2Gf2d2F/00kbRnB1Z3d3d3u0yf6zrmmR8ydebOO+H4ZBncb1QAFMWn/K9Xuhb2RCbKQ934eFXWVcEWmnKObXGl63sQSXwycIIzjaFbKzavzj5fEWtls4CVnAB9dnaaFMLkmnl1bsBnnUpR7uxlXUPcgiD/sevQw5eV6UiZpwNEORdnpJVVUccEZervJ3irSvKiW71+kEooNZv94+H5sijN+TZ9uS9Bbx74Xfd6K938fHVHS0mwmsfT7cUFCs+mrEe+qJUhIRrih/ul+VdBNUUwAqMUk7fVg4D6teygUgSOPmUaVkBxNrZvG1kxdNiKvrW7tQtjeeUKxbBzQVncyJQZ/Y8vEwRsitAhIbBRRpHCMGeolUzZpB2s/1wh5F2mw+0VdtZAyAVCKkT7e6uWvK83VThay0DWhCMRzYo4JDVx9vWQj0lJgJQFrkPTwSdCE9G2leOO2xufB7ZSN5YJKumo97TAv3OHUtHV5ujaxXfulH5XgSY/zApzNkbe3paLQpFcjW1sZIN4tCpo61Jg0lo+Eg1B41EyZpv6M+YxFUNNJlw3DJl0S7OmnefCRXsRMaqP2qK6JEucK10WOfjpYnjPJI1xz//sun+IuLJxvMI0W6Z+cYi37bV7RBOiULiZow6S7GIwjlmUa6PNFBhsMrvwKbjq1zpLv9LEfpgaNnsE/3xdras9GztbUvNKgjw/H4/J9/vnXzykcf/wcXrA9oCNKJAzjGYbE5IwW+2vWJ+ZiNNFjSaaIqEhsZkS4PEHTTFslaUZf1w0QnHSD1AGaTEM2n+2LjOdDHWxuQ9ur27iZazn+7VcjNK4X89tP/IdZ1fp9GOi09XmlKpGsUCPZ5+Q1QLnHAFCUij0nLFsLS0Iq6hXlFpKMBFfdEFOncsG4lajlNrF6L62eEKOvbhvHbBsH3012lO9hyviVJX7ny0R/+hRf2eRtrRDp2ZSdLAavLEYSYj+zIpZlKdQv0DSYtJkEM2y3Nl9z6kLQ7oIxWpao00sQZgzeoDjFFvZZziGOadqbcjF24jkd4OUPS5sL+8HuNpHPBQkDF27hXfeuoj3AHO0odk6QBQS+MI/kgJB1Z6AQmaTLzHYJOu+T2YHIac15ZJ0Gb4ffn//jTrVsE6WJhfwzL/biJtDTcjra/hVQBRU+ezGJVqVDTa5p2ZhHpnFzSHd4gJk1GfKznMXiGvgWhAQQRN5aRVu7vEDQk/Tvkhjz8ATkERVr1qlLCpiKsXFgZlgzwQDyatGoh6hKwAWnP2EdCejppi62LwLQxNyanVvVDjeCahfSaPiXL9++YpHUP5N61Q3TfJAdlPSrlYe5PPgW5VB56CaF1MGk5AeXDSaitM0Ca1UsvfE8n3SOLlXSl+im7k/eNdX1NR72+Q3DeIYOU/8qFfZNYzisrDz4ZDhtIg11b68GxjSvyEvoYBFPNn9brw8keQLpvv4qjk7bYOhftir6c3R7s6nA4s4T5PNnQWe+MyLi7XNh3Benf/FFzqBnnRtLAIaqJ/jg9gc6oLCdJE2GQMoiQdGJT02X0Y2SYKBkgM+irSQbZPkZDZ72yNtoSHvXzL0eG4kBSmsabv/+r9vXC7eGwBWmwaxtADzzTm1CoCNIUamUV2pGmcnnNpFkiWAVhItvHeXxyv5amNg9PR19uwbzp/YXPtaU+d2M4bEM6A181gE4Jv62eNI+ULai/XtKFON1QhKapq0gPhzfuLTcifrL2bGOLxzU7ZNKUy9LMteGwHWk4wgbt0RufNIgx1QozScd20gONtC2tT5AuxQvLDmQOID0cXpvRjaO2jKHqfmYtytXzHkjXWkTmN1n19MBKGh7PVBIYpEPm2JCCwhDWZUucXRMYdgLWfoxIMyWyQKB7umWG519aMC8v3BgO90i6ctYsg+5Im24Mt1tHuhAvCMEsZgoOeJ4+Fwl00npUBf7JeopVmgtfI10okTndOhZKY9NwRmhfZGn22lCX79v7ppEOKEpQhD+thw+0P43FUXqEQwWkHSvCWCdtWQYZtjiaMC80MkgzT+SBgXB1/Tki/ZTAvPLgjlnX8KyldYK0CAFtOlPFIubZayPpjp5WgdF4TEWmokc4GidjSd++2kX9xaDOEngo67i2Was7TLXB5NKbtsYJ0lIPWwIxlfdAeQVX6mGNdKEg0WGpo4p1MGmkJDAhnTQ5I1md8uBPsiV/iiBEWsfV0bZNd1BqYzj89c8tSrpDk5bZZ4TaCULxtpAM4VNF0LXk8njiKQdV9VHtKD+dDShNHYCJka0Tybw+/bWSqBroEWpZ09bx6RalO0i1Mbz+2eOV89YDRYq0Oo+K1crhR6R806r8dC52cWDLT4tpS6pZcuQ0+SZpX98oZcs5RdpkGqCl7vmmjcirp06cfzR7lVzYlHXc2NnA34hgUOM8z/91ahzS6kAq71exB3ZIZIKaZTG6fjdE7jIiHYKSYRgqXy9XbamW+ybq8owhN0nrqHtqJTBJjGsJ5e4q/KWjFxiQx/eukwv7jmkdV6DuWJqj1MbwzqIs8aMxSOOTmCwBvpkvx2EXRNqtKWWSLrcTVDV8C0R6jFhiTeFtsrJHwByWf4fw2oQ4Z/xQILlP6oDa2PHhDPXE1buPQJkfjkO6Y701A9dHK9Lm/RYuYp9rpHnFWY8vR5ffo4rMaJwr+7jKeHd5I3CVVzpHJJb4pixPQQEUmxKxxI5aMCjUxr3HoMzyTPvIpY5k2FTAJG0pSZ0jlhVXk1zspCST9Zl5D2EY0iQRDWBfSV5yKiqqEh9ZuQlmEL15UulS1pH06obTOFN1/8YYMSLvJ7kU4ba2o+5jLw/fs+OSozNs3HSAw/asynHrGSZP02DmtTtfK1HZ9+En2Owt3qWVyNxyI2esNqpFbyFdISGco56RaUrxWIyrIlms8FbLkR4yrKmYMb1xBxjYlE9JAOxkoRf4Ez7QcTEZ0frgpoosMTTS0xbreG1WFFu6R3HGakP6JDaXmg+K8vddvKzNy5y4QB5WN3JSNQ1yqyDWuCaHilW8Xljs+TCQ/QrALHvS8DndMEqSKKQOKEXLYT9J4jBQJbh20FwMi3W8PTs3NzdLKhhNbagEtY209WCTDSSIq9WV9sk14/Yqry3llseN8jws6TgJu4kNALhBxLRlahwkvnQR2mEBuxgW62iRu9hmwgS1NUx0e/R59FcVr/n92v0RpR30My6LdTSEBYNIPaMNYQ/Iv20CqehnXA9p64hkeh6rDd1WTkgLwVw0F8MaOwq5u4iKE5mmCWkhBjw9PW2xjoVc/Uzz6oiSl76z3wM8MHLJpHO7lXXUvDo6QX3uyH6P7+DI6wRq4DtXSmReVyLXsXqmM02/PL7foztQcugdgpEZgC9O2zk/IDNNxaK/+ILfB/1my+HTv6B9Z/3w9tEsX9hXNTNYm6C+8N39Ht+BkWOXa1wM3To+WlxcxEHKclOC2pKf/hbKryoi96cpYkbsiKU5Qb1syU9/C0WBtKanzTOuanKaE9RLtyf+tJAZsGZNF4MLeT/SkqBGtrJQLRPSQoY3kC62paf1My6aM8o0cQ97QlqIsWQffUanp4ESWaYT1CjTJEylhbQLDus9/dc3fPwbG/wrx/Y3+0WOSixjJOuzP8QrxKlzV5V3ta/0HLU2HFeU4EsW27152jreWWCwlxZmKHcDq40laSrtp1vyc4IvjVXnFSjL3NFekIjAhTCQ7KdastVnf0hUmIBJAAc9of6V9tMhaDj8FwfKQzWxZHFUOF56Wk9Qw7PccUmDH0OAp1oDdJiIbtHWk7bX10gaHr7VkR6g1zrQcEJQk2KClcjjtulpQ21gFT4maXYUk3TdjsfuhuZqBw/QlbgEk7bemayrz/6rTUn1iykpuEAcmrcqq68cn11ZSOHjsj8ufx/AjdnVG0hFs3sW66iJpjb0vOl4pNnFqmrtOhE8OoeLiV+YbkW6pr5G0uxheYHYTrrD7waq6kB/euJFHjbFGjd8t+MxbR2B4MicyJuORzqE94FSMLqCkjrfzdgfrUjX1NdMWuuYnXQ5oXK/oKfAhWsDzW2cWrLEjqXgBDWZN33fkp+2kM6gjvCBoiw2slxhQTHElqRr6mtBOm1Lmn2WZsQ2Px+YdFpaR5ygpi/2vmtzp2nSLr4BkqolUXS5V3XbYfcu2pF28Q3yTN3cb0PaA083kHaAZgL9Kd/RFVN95H2K4h3NOppKBCdO6Yu9596wjqboZigkgz9vAq9exWo62KiqciHbqYh0xusxPeO6+iLuDRN3EyrSfgpMaNFoxFuBQ1Atpsomwpkvb6bE4hLA29RZgH6iuIhRXkfqmc6b1nDWLyIB0j4upMj4zBAG5TsA/U6H8vLMVVpXn9Y0kKS8U5ej3wFS/YVf+fAZ9RHUyW9kiR/WOHScUCFDPWf6SHkidyBny8Xes3Wca9Y0vAQSYdJs9TrFl0z1ItJ5Uop5f6SuvlrSJZ4QhIlheeeRCfwKks7UR/ymQxk5SXfxzXMka3yi+Hh+dnp6+u48NIP0cculd5rOD2k97eOFmWikC7UXurxIOz1dV1+tnvb9CJdo0NMdWk9zcUL0ateRs6QS0U8UsSyQedMP3m5OK1l8D9QldwD/gY2qWM8xf2G1pe9RU1+TRUzRqy8NpH1gPIn+9PHPWhx6m1YitnfK6TzT8Jz1fS2tm2BksmsR3O4RsGd8VK78DbCWpPX65B/NpL2cz6nsbx1pOC1EfwLjrucb75KsqfcCLMdaZ1+3DkDvJhiZuhsKQuYuDMCrUYUi7m1Juqa+Ri8vgO+Y1pMOob6H0XjVdp94ZfTIKVqJaAcvNOcPTrXORtvyHn3xukl5z1y9tyx86aS6z9w272Gvr9mfjsGeqiPN3nUBKRXVHyfnbfuWt+iO09YR3PxdIvOm58a53WHN5ZUeaPVmA/Ab9IFSvkdCEbfW1yLvkSmdoHwP6eKIr8p3vDz4uAzEcnaNnr20Tr4wWsjrtHW8Mfvg4crDB3Ok99xWbahuEl1jIl/whunhetJ1WVNrfS2icU/9jFlt1jRHv18GE2ZV31L73W2bi22RMdRGJT4ItoIQe8LdME4i7WJ5GLq2vwPpmFvg0fXZr1kHsiIvFI/5qhH1vwfUvqCG0w2TOLT+JiSXN+hXb7+q2pgIIUdOtVnYY6qNidBisY5SLp2aXCZ9UWKJHbl6nqiNFyo261ibq5vI3oSIHRtydRPZqxx5BymRsxP1/PXJIemJNOdEJ/IV5Sc/Pf6z48cnXt2e5P+40cIJBKV3WgAAAABJRU5ErkJggg==;" vertex="1" parent="1">
          <mxGeometry x="710" y="1386.35" width="232.44" height="57.3" as="geometry" />
        </mxCell>
      </root>
    </mxGraphModel>
  </diagram>
</mxfile>
